<svg xmlns="http://www.w3.org/2000/svg" viewBox="0 0 400 300"><g data-name="15"><path d="M378.8 214.81H21.2a.46.46 0 01-.46-.46.47.47 0 01.46-.46h357.6a.47.47 0 01.46.46.46.46 0 01-.46.46z" fill="#d1d3d4"/><path d="M312.13 90.41H140.72a6.59 6.59 0 00-6.67 7.68l16.4 125a9 9 0 008.69 7.68h171.41a6.59 6.59 0 006.67-7.68l-16.4-125a9 9 0 00-8.69-7.68z" fill="#231f20"/><path d="M330.55 231.22H159.14a9.5 9.5 0 01-9.13-8.07l-16.4-125a7.21 7.21 0 011.66-5.8 7.1 7.1 0 015.45-2.35h171.41a9.5 9.5 0 019.13 8l16.4 125a7.21 7.21 0 01-1.66 5.8 7.1 7.1 0 01-5.45 2.42zM140.72 90.85a6.23 6.23 0 00-4.78 2.08 6.38 6.38 0 00-1.46 5.07l16.4 125a8.6 8.6 0 008.26 7.3h171.41a6.23 6.23 0 004.78-2.08 6.34 6.34 0 001.46-5.11l-16.4-125a8.6 8.6 0 00-8.26-7.3z" fill="#231f20"/><path d="M125.65 110.32h189L295.79 223.1a9.46 9.46 0 01-9 7.68H113.21a6.33 6.33 0 01-6.4-7.68z" fill="#fff"/><path d="M286.82 231.24H113.21a6.88 6.88 0 01-5.37-2.38 7.06 7.06 0 01-1.48-5.84l18.84-112.77a.46.46 0 01.45-.38h189a.48.48 0 01.35.16.49.49 0 01.1.37l-18.86 112.77a10 10 0 01-9.42 8.07zM126 110.78l-18.74 112.39a6.19 6.19 0 001.27 5.1 6 6 0 004.68 2h173.61a9 9 0 008.52-7.3l18.75-112.24z" fill="#231f20"/><path d="M136.66 90.41h173.61a6.33 6.33 0 016.4 7.68l-2 12.22h-189l2-12.22a9.45 9.45 0 018.99-7.68z" fill="#b71440"/><path d="M314.63 110.77h-189a.43.43 0 01-.35-.17.41.41 0 01-.1-.37l2-12.21a9.93 9.93 0 019.48-8.02h173.61a6.91 6.91 0 015.38 2.38 7.06 7.06 0 011.47 5.84l-2 12.21a.45.45 0 01-.49.34zm-188.44-.92h188.06l2-11.83a6.16 6.16 0 00-1.27-5.1 6 6 0 00-4.68-2H136.66a9 9 0 00-8.51 7.3zM141.92 214h-.08a.45.45 0 01-.37-.52l15.14-90.63a.47.47 0 01.53-.38.46.46 0 01.37.53l-15.14 90.63a.46.46 0 01-.45.37zm25.32 0h-.08a.45.45 0 01-.38-.52l15.15-90.63a.46.46 0 11.9.15l-15.15 90.63a.45.45 0 01-.44.37zm25.31 0h-.07a.45.45 0 01-.38-.52l15.14-90.63a.47.47 0 01.53-.38.45.45 0 01.37.53L193 213.63a.46.46 0 01-.45.37zm25.32 0h-.08a.44.44 0 01-.37-.52l15.14-90.63a.46.46 0 11.9.15l-15.14 90.63a.46.46 0 01-.45.37zm25.31 0h-.07a.45.45 0 01-.38-.52l15.15-90.63a.46.46 0 11.9.15l-15.15 90.63a.46.46 0 01-.45.37zm25.32 0h-.08a.45.45 0 01-.37-.52l15.14-90.63a.46.46 0 11.9.15L269 213.63a.46.46 0 01-.5.37z" fill="#231f20"/><path d="M141.92 214h-.08a.45.45 0 01-.37-.52l15.14-90.63a.47.47 0 01.53-.38.46.46 0 01.37.53l-15.14 90.63a.46.46 0 01-.45.37zm25.32 0h-.08a.45.45 0 01-.38-.52l15.15-90.63a.46.46 0 11.9.15l-15.15 90.63a.45.45 0 01-.44.37zm25.31 0h-.07a.45.45 0 01-.38-.52l15.14-90.63a.47.47 0 01.53-.38.45.45 0 01.37.53L193 213.63a.46.46 0 01-.45.37zm25.32 0h-.08a.44.44 0 01-.37-.52l15.14-90.63a.46.46 0 11.9.15l-15.14 90.63a.46.46 0 01-.45.37zm25.31 0h-.07a.45.45 0 01-.38-.52l15.15-90.63a.46.46 0 11.9.15l-15.15 90.63a.46.46 0 01-.45.37zm25.32 0h-.08a.45.45 0 01-.37-.52l15.14-90.63a.46.46 0 11.9.15L269 213.63a.46.46 0 01-.5.37z" fill="none" stroke="#d1d3d4" stroke-linecap="round" stroke-linejoin="round" stroke-width=".92"/><path d="M299.37 144.39H134.31a.46.46 0 110-.91h165.06a.46.46 0 110 .91zm-4.06 24.3H130.25a.46.46 0 110-.91h165.06a.46.46 0 110 .91zM291.25 193H126.19a.46.46 0 010-.92h165.06a.46.46 0 010 .92z" fill="#231f20"/><path fill="none" stroke="#d1d3d4" stroke-linecap="round" stroke-linejoin="round" stroke-width=".92" d="M134.31 143.93h165.06m0 .46H134.31a.46.46 0 110-.91h165.06a.46.46 0 110 .91zm-169.12 23.85h165.06m0 .45H130.25a.46.46 0 110-.91h165.06a.46.46 0 110 .91zm-169.12 23.85h165.06m0 .46H126.19a.46.46 0 010-.92h165.06a.46.46 0 010 .92z"/><path d="M181.35 163.62a.44.44 0 01-.35-.16.46.46 0 01.06-.64l17.65-14.69a.46.46 0 01.64.06.47.47 0 01-.06.65l-17.64 14.68a.47.47 0 01-.3.1z" fill="#b71440"/><path d="M196.54 163.62a.46.46 0 01-.34-.15l-12.74-14.69a.46.46 0 010-.64.44.44 0 01.64.05l12.74 14.68a.46.46 0 010 .64.41.41 0 01-.3.11zm57.15 25.66a.46.46 0 01-.35-.17.45.45 0 01.06-.64l17.6-14.68a.46.46 0 11.59.7L254 189.17a.46.46 0 01-.31.11z" fill="#b71440"/><path d="M268.88 189.28a.44.44 0 01-.34-.16l-12.74-14.68a.46.46 0 010-.65.47.47 0 01.65.05l12.73 14.68a.46.46 0 010 .65.48.48 0 01-.3.11z" fill="#b71440"/><path d="M272.88 230.42l24.53-19.19h-14.19a8.78 8.78 0 00-8.32 7.14z" fill="#fff"/><path d="M272.88 230.88a.46.46 0 01-.23-.06.47.47 0 01-.22-.47l2-12.06a9.26 9.26 0 018.77-7.51h14.19a.44.44 0 01.43.31.43.43 0 01-.15.5l-24.52 19.19a.46.46 0 01-.27.1zm10.34-19.19a8.31 8.31 0 00-7.87 6.75l-1.82 10.9 22.56-17.65zm-22.45-106.77a2 2 0 01-1-.27 12.5 12.5 0 1117.52-16.29 2 2 0 01-3.6 1.76 8.5 8.5 0 00-16.14 3.72 8.54 8.54 0 004.23 7.36 2 2 0 01-1 3.72zm-44.99 0a2 2 0 01-1-.27 12.5 12.5 0 016.28-23.31 12.43 12.43 0 0111.24 7 2 2 0 01-3.6 1.76 8.5 8.5 0 00-16.14 3.72 8.53 8.53 0 004.24 7.36 2 2 0 01-1 3.72zm-44.99 0a1.91 1.91 0 01-1-.27 12.5 12.5 0 1117.51-16.29 2 2 0 11-3.59 1.76 8.5 8.5 0 00-16.15 3.72 8.55 8.55 0 004.24 7.36 2 2 0 01-1 3.72z" fill="#231f20"/><path d="M167 87.48a.54.54 0 01-.25-.06.51.51 0 01-.19-.69 9.66 9.66 0 013.85-3.39.5.5 0 11.42.9 8.92 8.92 0 00-3.4 3 .5.5 0 01-.43.24zm45.57 0a.5.5 0 01-.43-.75 9.6 9.6 0 013.86-3.39.5.5 0 01.66.24.49.49 0 01-.24.66 8.92 8.92 0 00-3.4 3 .5.5 0 01-.45.24zm44.51 0a.57.57 0 01-.25-.06.51.51 0 01-.18-.69 9.66 9.66 0 013.84-3.39.5.5 0 01.67.24.49.49 0 01-.24.66 8.92 8.92 0 00-3.4 3 .52.52 0 01-.44.24zM35.97 102.988L59 101.81 64.843 216l-23.03 1.179z" fill="#fff"/><path d="M41.83 217.64a.46.46 0 01-.46-.44L35.52 103a.44.44 0 01.11-.33.47.47 0 01.32-.16l23-1.18a.48.48 0 01.49.44L65.32 216a.41.41 0 01-.12.33.43.43 0 01-.32.16l-23 1.18zm-5.37-114.22l5.81 113.27 22.11-1.13-5.81-113.27z" fill="#d1d3d4"/><path fill="#fff" d="M41.91 217.001l-3.08.154-5.716-114.34 3.08-.153z"/><path d="M38.76 217.79a.51.51 0 01-.31-.11.5.5 0 01-.15-.32l-5.85-114.19a.45.45 0 01.11-.34.5.5 0 01.32-.15l3.07-.16a.48.48 0 01.49.44l5.85 114.19a.47.47 0 01-.44.49l-3.07.15zm-5.37-114.21l5.81 113.27 2.15-.11-5.81-113.27z" fill="#d1d3d4"/><path fill="#fff" d="M36.96 109.09l4.33-.23"/><path d="M37 109.55a.46.46 0 010-.92l4.34-.23a.46.46 0 01.48.44.45.45 0 01-.43.48l-4.34.23z" fill="#d1d3d4"/><path fill="#fff" d="M37.35 116.76l4.5-.24"/><path d="M37.35 117.22a.47.47 0 01-.46-.44.45.45 0 01.44-.48l4.49-.24a.48.48 0 01.49.44.46.46 0 01-.44.48l-4.5.24z" fill="#d1d3d4"/><path fill="#fff" d="M37.74 124.42l7.56-.38"/><path d="M37.74 124.89a.47.47 0 010-.93l7.56-.38a.46.46 0 01.48.43.47.47 0 01-.43.49l-7.56.38z" fill="#d1d3d4"/><path fill="#fff" d="M38.14 132.09l4.33-.22"/><path d="M38.14 132.55a.45.45 0 01-.46-.43.46.46 0 01.43-.49l4.34-.22a.46.46 0 01.48.44.45.45 0 01-.43.48l-4.34.22z" fill="#d1d3d4"/><path fill="#fff" d="M38.53 139.76l4.59-.23"/><path d="M38.53 140.22a.46.46 0 01-.46-.43.47.47 0 01.44-.49l4.59-.23a.46.46 0 010 .92l-4.6.23z" fill="#d1d3d4"/><path fill="#fff" d="M38.92 147.43l7.56-.38"/><path d="M38.92 147.89a.47.47 0 01-.46-.43.47.47 0 01.44-.49l7.56-.38a.45.45 0 01.48.43.47.47 0 01-.44.49l-7.55.38z" fill="#d1d3d4"/><path fill="#fff" d="M79.681 131.075l9.574.836-8.19 93.803-9.574-.836z"/><path d="M81.05 226.19l-9.57-.83a.45.45 0 01-.31-.16.48.48 0 01-.11-.34L79.21 131a.48.48 0 01.5-.42l9.58.84a.45.45 0 01.41.5l-8.19 93.81a.46.46 0 01-.46.46zM72 224.47l8.65.76 8.12-92.89-8.66-.76z" fill="#d1d3d4"/><path d="M89.25 131.92a7.93 7.93 0 01-4.87 1.29 5.63 5.63 0 01-4.71-2.13l3.59-9.17 2.62-6.68 1.42 7z" fill="#fff"/><path d="M84.38 133.68a6 6 0 01-5.09-2.35.45.45 0 01-.05-.42l6.21-15.85a.44.44 0 01.47-.29.47.47 0 01.41.37l3.37 16.68a.48.48 0 01-.16.45c-.06.06-1.71 1.41-5.16 1.41zM80.19 131a5.35 5.35 0 004.19 1.74 8.29 8.29 0 004.36-1l-3-14.86z" fill="#d1d3d4"/><path fill="#b71440" d="M87.3 122.26l-4.04-.35 2.62-6.68 1.42 7.03z"/><path d="M87.3 122.72l-4-.35a.47.47 0 01-.34-.22.44.44 0 010-.4l2.61-6.69a.45.45 0 01.47-.29.46.46 0 01.4.37l1.43 7a.46.46 0 01-.45.55zm-3.39-1.21l2.82.25-1-4.92z" fill="#b71440"/><path fill="#fff" d="M69.04 128.924l7.532.658-6.446 73.819-7.531-.658z"/><path d="M70.13 203.86l-7.54-.66a.45.45 0 01-.41-.5l6.44-73.82a.47.47 0 01.5-.42l7.54.66a.47.47 0 01.31.16.45.45 0 01.11.34l-6.45 73.82a.44.44 0 01-.17.31.44.44 0 01-.33.11zm-7-1.54l6.62.58 6.33-72.9-6.62-.57z" fill="#d1d3d4"/><path d="M76.58 129.57a4.44 4.44 0 01-3.68 1.52 5.52 5.52 0 01-3.9-2.18l2.83-7.21 2-5.26 1.22 5.56z" fill="#fff"/><path d="M73.19 131.56h-.31a6 6 0 01-4.21-2.37.47.47 0 01-.06-.43l4.89-12.48a.44.44 0 01.5-.28.47.47 0 01.42.37L77 129.48a.44.44 0 01-.08.37 4.89 4.89 0 01-3.73 1.71zm-3.62-2.73a5 5 0 003.36 1.8 3.93 3.93 0 003.15-1.19l-2.3-11.37z" fill="#d1d3d4"/><path fill="#fff" d="M75.05 121.98l-3.18-.28 2.05-5.26 1.13 5.54z"/><path d="M75 122.44l-3.17-.28a.42.42 0 01-.35-.22.46.46 0 010-.41l2.06-5.26A.44.44 0 0174 116a.47.47 0 01.42.37l1.12 5.54a.46.46 0 01-.11.4.49.49 0 01-.43.13zm-2.52-1.14l2 .17-.69-3.4z" fill="#d1d3d4"/><path fill="#fff" d="M72.9 131.09l-6.5 72.07"/><path d="M66.4 203.62a.45.45 0 01-.42-.5l6.5-72.07a.5.5 0 01.5-.42.47.47 0 01.42.51l-6.5 72.07a.45.45 0 01-.5.41z" fill="#d1d3d4"/><path fill="#fff" d="M55.367 149.058l7.993.313-1.101 28.168-7.994-.312z"/><path d="M62.25 178l-8-.32a.42.42 0 01-.32-.14.46.46 0 01-.13-.33L54.91 149a.47.47 0 01.47-.44l8 .31a.48.48 0 01.45.48l-1.11 28.16a.46.46 0 01-.47.49zm-7.51-1.22l7.07.28 1.07-27.24-7.07-.28z" fill="#d1d3d4"/><path fill="#fff" d="M54.868 120.82l11.201.438-1.101 28.169-11.202-.438z"/><path d="M65 149.89l-11.2-.44a.48.48 0 01-.32-.15.45.45 0 01-.12-.33l1.1-28.16a.49.49 0 01.48-.45l11.2.44a.48.48 0 01.32.15.45.45 0 01.12.33l-1.1 28.16a.46.46 0 01-.48.45zm-10.72-1.34l10.28.4 1.06-27.25-10.28-.4z" fill="#d1d3d4"/><path d="M50.2 146.26a.46.46 0 01-.44-.47l.76-19.59a3.45 3.45 0 013.58-3.3h.54a.46.46 0 010 .92h-.54a2.51 2.51 0 00-2.62 2.41l-.76 19.59a.46.46 0 01-.52.44z" fill="#d1d3d4"/><path d="M29.93 151.83H93L89.35 227a7.48 7.48 0 01-7.48 7.47H41.09a7.47 7.47 0 01-7.47-7.47z" fill="#fff"/><path d="M81.87 234.93H41.09a7.94 7.94 0 01-7.93-7.93l-3.69-75.14a.48.48 0 01.46-.49H93a.45.45 0 01.33.15.43.43 0 01.13.34L89.81 227a7.94 7.94 0 01-7.94 7.93zm-51.45-82.64L34.08 227a7 7 0 007 7h40.79a7 7 0 007-7l3.67-74.71z" fill="#d1d3d4"/><path d="M91.85 166H31.26a.46.46 0 01-.46-.46.47.47 0 01.46-.46h60.59a.46.46 0 01.46.46.45.45 0 01-.46.46z" fill="#d1d3d4"/><path fill="#fff" d="M337.82 115.89h42.66v42.28h-42.66z"/><path d="M380.49 158.63h-42.67a.47.47 0 01-.46-.46v-42.28a.47.47 0 01.46-.46h42.67a.47.47 0 01.46.46v42.28a.47.47 0 01-.46.46zm-42.2-.92H380v-41.36h-41.71z" fill="#d1d3d4"/><path fill="#d1d3d4" d="M355.67 108.99h7.76v11.98h-7.76zm17.92 17.13h-22.83a.46.46 0 110-.92h22.83a.46.46 0 010 .92zm0 8.01h-29.3a.46.46 0 010-.92h29.3a.46.46 0 110 .92zm.22 8.01h-29.52a.46.46 0 010-.92h29.52a.46.46 0 110 .92zm-11.44 8.01h-18.08a.46.46 0 010-.92h18.08a.46.46 0 010 .92z"/></g></svg>