<svg xmlns="http://www.w3.org/2000/svg" viewBox="0 0 400 300"><g data-name="#496_consulting_flatline"><path d="M354.65 213.29H45.35a.5.5 0 01-.5-.5.51.51 0 01.5-.5h309.3a.51.51 0 01.5.5.5.5 0 01-.5.5z" fill="#d1d3d4"/><path d="M69.93 105.58C55 116.45 53 139.11 52.62 156.13c-.38 16 3.19 31.28 6.53 46.89 3.26 15.27 15.65 23.6 30.44 27 22 5.09 46 5.68 68.33 3.22s22.91-24.46 20.67-42.47c-.62-5-4.13-8.09-7.92-10.79a47.28 47.28 0 01-12.08-11.65C148 153 147.39 134.78 140.33 118.1c-5.58-13.21-18-22.41-32.41-21.95s-28.06 2.21-37.99 9.43z" fill="#fff"/><path d="M132.56 235.18a192.42 192.42 0 01-43.08-4.64c-21.71-5-28.74-17.69-30.82-27.42l-.7-3.28c-3.19-14.8-6.2-28.77-5.84-43.72.83-34.47 9.8-45.33 17.52-50.95l.29.41-.29-.41c10.51-7.64 25.24-9.1 38.27-9.52 14.06-.43 27 8.28 32.88 22.25a145.74 145.74 0 016.32 20c2.7 10.25 5.5 20.84 11.9 30.16 2.83 4.12 6.4 7.57 12 11.53 3.84 2.73 7.48 6 8.12 11.13 2.06 16.49.37 27.91-5.17 34.92-3.64 4.61-9 7.34-15.94 8.11a233.48 233.48 0 01-25.46 1.43zM70.23 106c-14.34 10.43-16.68 32.29-17.11 50.16-.35 14.83 2.64 28.75 5.81 43.49l.71 3.28c2 9.45 8.87 21.73 30.07 26.65 20.52 4.76 44.09 5.87 68.15 3.21 6.66-.73 11.8-3.34 15.27-7.73 5.36-6.79 7-18 5-34.18-.6-4.77-4.06-7.84-7.71-10.44-5.65-4-9.3-7.55-12.2-11.77-6.5-9.46-9.31-20.15-12-30.48a146.57 146.57 0 00-6.28-19.88c-5.74-13.59-18.28-22.11-31.93-21.64-12.87.42-27.42 1.85-37.71 9.33z" fill="#231f20"/><path d="M109.13 190.08a72.19 72.19 0 01-8-.45 76.52 76.52 0 01-15-3.25c-6.64-2.15-11.1-4.61-14.45-7.95-5.09-5.09-7-12-7.77-16.83-1.7-11.24 0-23.66 1.23-30.06a30.57 30.57 0 0114.94-21.06c5.38-3.13 11.8-5.15 19.61-6.17 8.2-1.07 14.1-.19 18.57 2.76 7.3 4.82 9.38 14.09 10.88 23.17l2.55 15.41c.62 3.83 1.48 9.07 4.49 11.54a19.1 19.1 0 003.41 2.06c2.11 1.06 4.28 2.17 5.51 4.58 1.51 3 2.15 8 .6 11.29-1.72 3.62-5.23 6-7.71 7.47a56.28 56.28 0 01-28.86 7.49zM106 104.87a48.33 48.33 0 00-6.08.43c-7.68 1-14 3-19.23 6a29.53 29.53 0 00-14.46 20.38C65 138.06 63.3 150.35 65 161.45c.71 4.72 2.59 11.37 7.49 16.27 3.23 3.23 7.56 5.61 14 7.71a74.32 74.32 0 0014.75 3.2c13.55 1.53 26.1-.86 36.29-6.9 2.37-1.41 5.71-3.67 7.31-7 1.42-3 .82-7.64-.58-10.41-1.08-2.12-3-3.1-5.07-4.14a19.84 19.84 0 01-3.59-2.17c-3.31-2.71-4.2-8.18-4.85-12.16l-2.55-15.41c-1.46-8.86-3.48-17.9-10.44-22.49-3.05-2.08-6.89-3.08-11.76-3.08z" fill="#d1d3d4"/><path d="M72.31 174.45a.51.51 0 01-.47-.31.5.5 0 01.28-.65c6.42-2.66 10.7-2 10.88-2a.5.5 0 11-.15 1s-4.21-.6-10.35 1.94a.43.43 0 01-.19.02z" fill="#d1d3d4"/><path d="M330.07 105.58c14.95 10.87 16.9 33.53 17.31 50.55.38 16-3.19 31.28-6.53 46.89-3.26 15.27-15.65 23.6-30.44 27-22 5.09-46 5.68-68.33 3.22s-22.91-24.46-20.67-42.47c.62-5 4.13-8.09 7.92-10.79a47.28 47.28 0 0012.08-11.65c10.59-15.33 11.2-33.55 18.26-50.23 5.58-13.21 18-22.41 32.41-21.95s28.06 2.21 37.99 9.43z" fill="#fff"/><path d="M267.44 235.18a233.48 233.48 0 01-25.44-1.41c-6.94-.77-12.3-3.5-15.94-8.11-5.54-7-7.23-18.43-5.17-34.92.64-5.16 4.28-8.4 8.12-11.13 5.55-4 9.12-7.41 12-11.53 6.4-9.32 9.2-19.91 11.9-30.16a145.74 145.74 0 016.32-20c5.91-14 18.85-22.67 32.88-22.25 13 .42 27.76 1.88 38.27 9.52 14.7 10.69 17.08 32.84 17.52 51 .36 14.95-2.65 28.92-5.84 43.72l-.7 3.28c-2.08 9.73-9.11 22.38-30.82 27.42a192.42 192.42 0 01-43.1 4.57zM291 96.63c-13.25 0-25.31 8.41-30.91 21.66a146.57 146.57 0 00-6.28 19.88c-2.72 10.33-5.53 21-12 30.48-2.9 4.22-6.55 7.74-12.2 11.77-3.65 2.6-7.11 5.67-7.71 10.44-2 16.21-.4 27.39 5 34.18 3.47 4.39 8.61 7 15.27 7.73 24.06 2.66 47.63 1.55 68.15-3.21 21.2-4.92 28-17.2 30.07-26.65l.71-3.28c3.17-14.74 6.16-28.66 5.81-43.49-.82-34-9.57-44.68-17.11-50.16-10.29-7.48-24.84-8.91-37.71-9.33z" fill="#231f20"/><path d="M290.87 190.08a56.28 56.28 0 01-28.94-7.49c-2.48-1.47-6-3.85-7.71-7.47-1.55-3.28-.91-8.31.6-11.29 1.23-2.41 3.4-3.52 5.51-4.58a19.1 19.1 0 003.41-2.06c3-2.47 3.87-7.71 4.49-11.54l2.55-15.41c1.5-9.08 3.58-18.35 10.88-23.17 4.47-2.95 10.37-3.83 18.57-2.76 7.81 1 14.23 3 19.61 6.17a30.57 30.57 0 0114.94 21.06c1.19 6.4 2.93 18.82 1.23 30.06-.73 4.87-2.68 11.74-7.77 16.83-3.35 3.34-7.81 5.8-14.45 7.95a76.52 76.52 0 01-15 3.25 72.19 72.19 0 01-7.92.45zm3.13-85.21c-4.89 0-8.73 1-11.81 3-7 4.59-9 13.63-10.44 22.49l-2.55 15.41c-.65 4-1.54 9.45-4.85 12.16a19.84 19.84 0 01-3.59 2.17c-2 1-4 2-5.07 4.14-1.4 2.77-2 7.41-.58 10.41 1.6 3.37 4.94 5.63 7.31 7 10.19 6 22.73 8.43 36.29 6.9a74.32 74.32 0 0014.75-3.2c6.49-2.1 10.82-4.48 14-7.71 4.9-4.9 6.78-11.55 7.49-16.27 1.68-11.1 0-23.39-1.23-29.72a29.53 29.53 0 00-14.46-20.38c-5.26-3.06-11.55-5-19.23-6a48.2 48.2 0 00-6.03-.4z" fill="#d1d3d4"/><path d="M327.69 174.45a.43.43 0 01-.19 0c-6.14-2.54-10.3-1.94-10.35-1.94a.5.5 0 11-.15-1c.18 0 4.46-.65 10.88 2a.5.5 0 01.28.65.51.51 0 01-.47.29z" fill="#d1d3d4"/><path d="M254.79 116.12l-31-17S222 94 220.08 92.43s-.73 4-.73 4-10.6-6.77-11.69-4.94-2.9 9.29.72 12.18c3.19 2.53 9.13 3.17 9.13 3.17 16.56 13.35 39.93 28.1 39.93 28.1" fill="#fff"/><path d="M257.44 135.42a.5.5 0 01-.26-.08c-.24-.15-23.49-14.85-39.88-28-1-.12-6.21-.86-9.23-3.26-3.79-3-2.11-10.72-.84-12.83a1.1 1.1 0 01.73-.51c2-.48 8.19 3.15 10.69 4.68-.23-1.45-.33-3.15.4-3.6.27-.16.71-.25 1.34.26 1.83 1.47 3.43 5.74 3.78 6.69l30.86 17a.5.5 0 01-.48.88l-31-17a.44.44 0 01-.23-.27s-1.73-5-3.53-6.42l-.2-.14a9.69 9.69 0 00.28 3.62.49.49 0 01-.2.52.52.52 0 01-.56 0c-3.41-2.18-9.4-5.51-10.89-5.15h-.1c-1.12 1.86-2.68 8.92.6 11.53 3 2.42 8.81 3.07 8.87 3.07a.54.54 0 01.26.11c16.35 13.18 39.66 27.92 39.89 28.06a.51.51 0 01.16.69.52.52 0 01-.46.15z" fill="#231f20"/><path d="M247.11 212.41s2.25 25.68 1.33 27.34-22.95 5-23.35 2.65 10.78-7 10.78-7l-2.46-21" fill="#fff"/><path d="M228.41 243.69a12.52 12.52 0 01-2.16-.14c-.65-.11-1.53-.34-1.66-1.06-.41-2.45 7.7-6.09 10.74-7.36l-2.42-20.62a.5.5 0 011-.12l2.46 21a.5.5 0 01-.31.52c-5.2 2.14-10.69 5.2-10.48 6.41 0 0 .29.32 2.43.38 6.42.21 19.17-2.22 20-3.21.6-1.26-.54-17.25-1.4-27a.5.5 0 011-.09c.38 4.31 2.22 25.92 1.27 27.62s-14.3 3.67-20.47 3.67z" fill="#231f20"/><path d="M279.69 219.15s3.09 22.69 1.49 23.34-23.35 1.68-23-.23 11.08-5.55 11.08-5.55l-3.88-22.12" fill="#fff"/><path d="M266.78 243.88c-4.23 0-7.93-.25-8.79-.94a.79.79 0 01-.31-.76c.34-2 8-4.78 11-5.8l-3.82-21.71a.5.5 0 01.41-.57.49.49 0 01.58.4l3.89 22.12a.51.51 0 01-.34.57c-4.83 1.63-10.13 4-10.7 5 .6.34 3.46.77 11 .6a86.83 86.83 0 0011.2-.77c.69-1.26-.33-12.52-1.74-22.83a.51.51 0 01.43-.57.49.49 0 01.56.43c1.44 10.53 2.81 23.21 1.19 23.87-.94.43-8.34.96-14.56.96zm-11.05-70.22c-.53 1.82-5.17 49.5-5.17 49.5h-18.71s-8.61-47.88-5.78-59.7c1.94-8.14 10.78-12.12 19.78-9.48 13.39-.53 27.15-2.24 27.15-2.24z" fill="#231f20"/><path d="M250.56 223.66h-18.71a.49.49 0 01-.49-.41c-.35-2-8.6-48.12-5.78-59.91a13.41 13.41 0 016.39-8.53 18 18 0 0113.94-1.34c13.19-.52 26.89-2.21 27-2.22a.49.49 0 01.5.25.49.49 0 01-.05.55l-17.2 21.83c-.5 2.39-3.86 36.28-5.13 49.33a.5.5 0 01-.47.45zm-18.29-1h17.84c.5-5.16 4.63-47.37 5.14-49.14a.56.56 0 01.09-.17l16.52-21c-3.65.42-15 1.67-26 2.1h-.16a17 17 0 00-13.24 1.22 12.21 12.21 0 00-5.91 7.89c-2.63 11.02 4.89 54.44 5.72 59.1z" fill="#231f20"/><path d="M313.49 158.4s5.89 9.78-3.21 20.79-35-.57-35-.57l6.47 43.08-19-.19s-19.8-58.65-17.52-64.72 18.5-8.87 18.5-8.87z" fill="#231f20"/><path d="M281.72 222.2l-19-.19a.5.5 0 01-.47-.34c-.81-2.4-19.84-58.89-17.52-65.06s18.21-9.06 18.89-9.18a.6.6 0 01.19 0l49.78 10.48a.51.51 0 01.33.24c.06.1 6 10.2-3.26 21.36-3.84 4.65-11.25 6-21.41 4a76.63 76.63 0 01-13.38-4.09l6.34 42.2a.49.49 0 01-.11.4.52.52 0 01-.38.18zm-18.64-1.2l18.06.19-6.39-42.51a.5.5 0 01.7-.53c.26.12 25.69 11.3 34.44.71 4.58-5.54 5.2-10.73 4.91-14.11a16 16 0 00-1.64-5.91l-49.46-10.41c-1.32.24-16 3-18 8.53-1.84 4.81 11.81 47.53 17.38 64.04z" fill="#231f20"/><path d="M251.82 188.58a.49.49 0 01-.46-.31c-.43-1.09-10.49-26.81-7.33-33.26a2.68 2.68 0 011.68-1.51.5.5 0 01.62.34.51.51 0 01-.34.62 1.71 1.71 0 00-1.06 1c-3 6.06 7.25 32.19 7.36 32.45a.5.5 0 01-.29.65zm23.43-9.46a.48.48 0 01-.26-.07c-.25-.15-6.15-3.75-7.82-6.3a.49.49 0 01.14-.69.5.5 0 01.69.14c1.55 2.37 7.45 6 7.51 6a.51.51 0 01.17.69.52.52 0 01-.43.23z" fill="#fff"/><path d="M313.49 158.4s20.89-51.47 5.46-63.28-37.42-6.55-40.42 4.49-14.83 48.31-14.83 48.31 37.9 11.3 49.79 10.48z" fill="#b6133f"/><path fill="#231f20" d="M291.65 100.73l-3.61 36.33 19.91-38.9-16.3 2.57z"/><path d="M288 137.56a.39.39 0 01-.15 0 .48.48 0 01-.35-.53l3.62-36.33a.5.5 0 01.42-.45l16.29-2.56a.49.49 0 01.49.2.51.51 0 010 .52l-19.92 38.9a.5.5 0 01-.4.25zm4.07-36.4l-3.32 33.32 18.27-35.67z" fill="#231f20"/><path d="M279.9 95.18l-26.08 18.45 2.38 23.43 27.95-11.81s4.63-25.92-4.25-30.07z" fill="#b6133f"/><path d="M290 95.71a13.64 13.64 0 015.83-.63c3.07.54 5.88 2 9 2.46a57.6 57.6 0 0010.34 0c1-.05 0 1.3.84.72 2.82-2.06 2.68-6.14 2.67-9.2a77.64 77.64 0 00-2.63-21c-1-3.56-4.95-16.59-10.72-11 1.3-1.27-5-4.23-5.9-4.48-8.18-2.27-15.6 4.92-17.43 12.4-1.33 5.43-1.43 10.82-4 15.92-1.14 2.25-2.62 4.47-2.72 7a8.24 8.24 0 004.65 7.28 13.4 13.4 0 008.9.81z" fill="#fff"/><path d="M315.72 98.9a.6.6 0 01-.27-.07.69.69 0 01-.29-.71v-.07l-1.57.07a48.21 48.21 0 01-8.83-.08 27.55 27.55 0 01-4.88-1.3 28 28 0 00-4.15-1.16 12.57 12.57 0 00-5.34.54l-.29.07-1.19.29a14 14 0 01-9.23-.86 8.7 8.7 0 01-4.93-7.73 13.89 13.89 0 012.13-6c.22-.41.44-.82.65-1.23 1.72-3.38 2.32-6.85 3-10.52.29-1.73.6-3.51 1-5.29a18.7 18.7 0 018.31-11.36 12.4 12.4 0 019.74-1.4c.57.16 5.23 2.2 6.24 3.91a3.73 3.73 0 013.24-.73c3.5.94 6 7.37 7.49 12.6a77.5 77.5 0 012.65 21.16v.38c0 3 0 7.11-2.88 9.23a1.07 1.07 0 01-.6.26zm-.51-1.9a.94.94 0 01.7.26.83.83 0 01.17.26c2.14-1.9 2.12-5.34 2.11-8.13v-.37a76.78 76.78 0 00-2.61-20.9c-2-7-4.41-11.27-6.78-11.9a3.2 3.2 0 00-3.11 1.17.5.5 0 01-.7-.72c.18-.75-4.29-3.25-5.69-3.64a11.39 11.39 0 00-9 1.3 17.64 17.64 0 00-7.84 10.74c-.43 1.74-.73 3.51-1 5.22-.61 3.59-1.25 7.29-3 10.81-.21.41-.44.82-.66 1.24a13.24 13.24 0 00-2 5.54 7.67 7.67 0 004.38 6.81 13 13 0 008.57.77l1.16-.28.29-.07a13.53 13.53 0 015.75-.56 30.3 30.3 0 014.3 1.2 26.69 26.69 0 004.7 1.26 47 47 0 008.64.07l1.6-.08z" fill="#231f20"/><path d="M285.11 67.89s-2.73 8.39-1.1 14.66a9.26 9.26 0 007.32 7l.32 11.17s.12 5.72 7.09 4.63a12 12 0 009.21-7.2l.2-20.57s-8.07-4.34-7.6-11.73c0 .01-9.3 4.85-15.44 2.04z" fill="#fff"/><path d="M297.07 106a6 6 0 01-4-1.29 5.76 5.76 0 01-1.91-4L290.84 90a9.87 9.87 0 01-7.32-7.29c-1.64-6.34 1-14.6 1.12-15a.5.5 0 01.27-.3.53.53 0 01.41 0c5.85 2.68 14.91-2 15-2a.52.52 0 01.51 0 .5.5 0 01.22.45c-.45 7 7.26 11.22 7.33 11.26a.5.5 0 01.27.44l-.2 20.58a.45.45 0 010 .16 12.38 12.38 0 01-9.6 7.52 10.89 10.89 0 01-1.78.18zm-11.64-37.43c-.55 1.91-2.28 8.68-.94 13.85a8.69 8.69 0 006.9 6.64.5.5 0 01.44.48l.32 11.17a4.78 4.78 0 001.56 3.24c1.13 1 2.8 1.25 5 .92a11.57 11.57 0 008.78-6.81l.19-20.18c-1.38-.81-7.5-4.77-7.61-11.22-2.33 1.07-9.35 3.93-14.64 1.91z" fill="#231f20"/><path d="M304.23 76.26s3.23-7.86 7.26-3.08-1.48 10.3-4.94 9.94" fill="#fff"/><path d="M306.88 83.64h-.38a.5.5 0 01-.45-.55.5.5 0 01.55-.45c1.74.18 4.08-1.35 5.17-3.42a4.86 4.86 0 00-.66-5.7 2.91 2.91 0 00-2.57-1.34c-1.82.28-3.39 3.19-3.84 4.29a.5.5 0 01-.93-.38c.08-.19 1.87-4.47 4.62-4.9 1.21-.19 2.38.38 3.49 1.69a5.89 5.89 0 01.78 6.81c-1.22 2.31-3.66 3.95-5.78 3.95zm-17.24-.85a3.74 3.74 0 01-1.58-.3.88.88 0 01-.48-.61c-.37-1.43 2.32-5.37 3.16-6.55a.49.49 0 01.69-.12.5.5 0 01.12.7c-1.8 2.54-3.21 5.22-3 5.73a6.1 6.1 0 003.15-.16.5.5 0 11.29 1 8.6 8.6 0 01-2.35.31zm1.69 6.77s6 .58 9.39-.4c0 0-3.49 8.91-9.16 9z" fill="#231f20"/><path d="M291.56 98.69a.5.5 0 01-.5-.49l-.23-8.63a.5.5 0 01.55-.51c.06 0 5.93.56 9.2-.38a.49.49 0 01.51.14.5.5 0 01.1.52c-.15.38-3.68 9.22-9.62 9.35zm.28-8.59l.2 7.55c4-.48 6.82-5.65 7.82-7.77a35.18 35.18 0 01-8.02.22z" fill="#231f20"/><ellipse cx="295.01" cy="74.33" rx="1.54" ry=".88" transform="rotate(-88.54 295.016 74.323)" fill="#231f20"/><ellipse cx="286.92" cy="74.12" rx="1.54" ry=".88" transform="rotate(-88.54 286.93 74.123)" fill="#231f20"/><path d="M318.57 85c.43 6.57 1 18.65-9.44 15.67a8.87 8.87 0 01-5.13-4.05c-2-3.58 3.38-8.76 5.93-11.09" fill="#fff"/><path d="M312.1 101.64a11.39 11.39 0 01-3.11-.48 9.26 9.26 0 01-5.47-4.3c-2.07-3.64 2.45-8.42 6-11.7a.51.51 0 01.71 0 .5.5 0 010 .71c-1.92 1.76-7.75 7.1-5.83 10.47a8.28 8.28 0 004.88 3.83c2.62.75 4.68.54 6.12-.62 3.45-2.79 2.93-10.72 2.68-14.53a.5.5 0 011-.07c.28 4.29.81 12.26-3.06 15.38a6 6 0 01-3.92 1.31zm-16.28-16.57c0 .53-.89 1-2 1s-.66-.44-.66-1-.44-1 .66-1 2 .47 2 1z" fill="#231f20"/><path d="M320.77 97.82s-9.23 7.71-9.27 14.23 7 37 7 37l19.23-10.72s-7.5-37.87-16.96-40.51z" fill="#b6133f"/><path d="M264.75 145.1h-.14a.5.5 0 01-.33-.63l13.78-45a.5.5 0 11.95.29l-13.78 45a.5.5 0 01-.48.34zm53.94 2.37a.49.49 0 01-.49-.39c-7.79-34.75-7.31-35.16-7-35.41a.51.51 0 01.71 0 .49.49 0 01.09.49c0 1.63 4.27 21.55 7.21 34.65a.5.5 0 01-.38.6z" fill="#231f20"/><path fill="#fff" d="M291.85 146.97L256 160.48l-15.92-11.43 31.34-9.46 20.43 7.38z"/><path d="M256 161a.53.53 0 01-.3-.09l-15.91-11.44a.5.5 0 01-.21-.49.51.51 0 01.35-.39l31.34-9.45a.58.58 0 01.32 0L292 146.5a.53.53 0 01.33.47.5.5 0 01-.33.47L256.17 161a.47.47 0 01-.17 0zm-14.81-11.75l14.88 10.69L290.4 147l-19-6.86z" fill="#231f20"/><path d="M335.49 139.6s4 20.23-6.89 22.16-47-5.14-47-5.14-12.54 2.21-11.74-1 8.63-4.63 8.63-4.63-6.46-3.13-3.28-3.12a97.62 97.62 0 0110.1 1.13l33.4-4.45" fill="#fff"/><path d="M323.66 162.6c-13.68 0-39.89-5-42-5.47-1.89.33-10.16 1.64-11.9-.24a1.38 1.38 0 01-.32-1.34c.67-2.61 5.25-4.09 7.64-4.69-3.4-1.8-3.24-2.51-3.17-2.79.15-.65 1-.65 1.36-.65a96.75 96.75 0 0110.11 1.12l33.33-4.44a.5.5 0 01.13 1l-33.4 4.44a.38.38 0 01-.15 0 98.16 98.16 0 00-10-1.12h-.15a20.39 20.39 0 003.66 2.17.51.51 0 01-.12.95c-2.09.39-7.65 1.93-8.24 4.26a.37.37 0 00.08.41c1.08 1.17 7.37.57 11.08-.08h.19c.36.07 36.13 7 46.77 5.14a7.12 7.12 0 004.73-3.07c4.08-5.93 1.86-18 1.76-18.5a.52.52 0 01.11-.42.49.49 0 01.51-.17.48.48 0 01.36.39l-.49.1.5-.09c.25 1.32 2.32 13.1-1.93 19.26a8.05 8.05 0 01-5.38 3.48 29.61 29.61 0 01-5.07.35z" fill="#231f20"/><path d="M196.4 225.84a6.82 6.82 0 003.79 1.84c1.67 0 19.78-3.34 20.53-.86s-.73 3.72-5.06 5.76c-5.8 2.73-25.27 9.14-25.27 9.14l-4.26-10z" fill="#fff"/><path d="M190.39 242.18a.44.44 0 01-.42-.28l-4.26-10a.45.45 0 01.19-.57l10.27-5.88a.46.46 0 01.57.09 6.35 6.35 0 003.46 1.69 33.24 33.24 0 003.64-.45c10.79-1.51 16.74-2 17.32-.09.86 2.85-.94 4.25-5.31 6.31-5.75 2.72-25.12 9.1-25.32 9.17zm-3.68-10.27l3.94 9.25c2.8-.93 19.56-6.52 24.81-9 4.45-2.1 5.44-3.17 4.82-5.22-.45-1.49-12.39.18-16.31.73-2.2.31-3.37.44-3.79.46a7.12 7.12 0 01-3.85-1.74z" fill="#231f20"/><path d="M140.11 236.57s19.41 6.67 20.24 7.94-.64 2.76-5.81 3.22-27.29-.74-27.29-.74-.28-6 1.11-9 11.75-1.42 11.75-1.42z" fill="#fff"/><path d="M150.85 248.29c-7.92 0-22.87-.8-23.62-.84a.47.47 0 01-.44-.44c0-.25-.26-6.14 1.15-9.24 1.49-3.27 11.14-1.82 12.24-1.65h.07c4.59 1.58 19.63 6.82 20.48 8.13a1.56 1.56 0 01.14 1.58c-.59 1.21-2.77 2-6.29 2.33-.85.1-2.15.13-3.73.13zm-23.16-1.73c3.08.16 22.13 1.13 26.81.71 4.52-.4 5.39-1.49 5.54-1.82a.64.64 0 00-.07-.69c-.77-.9-12.64-5.22-20-7.74-3.88-.62-10.33-.85-11.23 1.13-1.08 2.45-1.08 7.02-1.05 8.41z" fill="#231f20"/><path d="M89.77 173.34s-15.84-39.59-14.18-59.12S90 93.5 94.47 93.22s27.94-3.41 36.51 7.1 6.37 61.13 6.37 61.13z" fill="#b6133f"/><path fill="#231f20" d="M117.73 102.24l-.29 39.67-16.84-42.33 17.13 2.66z"/><path d="M117.44 142.41a.51.51 0 01-.47-.31l-16.84-42.34a.53.53 0 01.08-.5.49.49 0 01.47-.18l17.13 2.67a.5.5 0 01.43.49l-.3 39.68a.5.5 0 01-.41.48zm-16-42.21L117 139.35l.27-36.68zm36.88 51.22s19.36 5.18 36.67 16.94c7.94 5.39 22.77 58.27 22.77 58.27s-1.66 9.16-12.24 7.73l-46.24-59.91s-9.92-23.26-.96-23.03z" fill="#231f20"/><path d="M187.68 235a16.14 16.14 0 01-2.23-.16.53.53 0 01-.33-.19l-46.23-59.91a.41.41 0 01-.07-.11c-.29-.69-7.23-17.09-3.78-22.17a3.6 3.6 0 013.29-1.55h.12c.19.05 19.64 5.34 36.82 17 8 5.44 22.36 56.39 23 58.56a.55.55 0 010 .22 10.51 10.51 0 01-10.59 8.31zm-1.89-1.12c9.29 1.15 11.23-6.2 11.45-7.24-.78-2.77-15-52.77-22.53-57.88-16.58-11.26-35.28-16.53-36.46-16.85h-.06a2.59 2.59 0 00-2.32 1.11c-3.05 4.5 3.39 20.08 3.85 21.16z" fill="#231f20"/><path d="M89.77 173.34s36.68-14.92 46.08-16.3c0 0 13.45 5 20.36 17.74s-16.1 61.79-16.1 61.79a18.16 18.16 0 01-12.58 2.22l-.3-51.34s-44.31 4.39-37.46-14.11z" fill="#231f20"/><path d="M130.88 239.61a18.43 18.43 0 01-3.45-.33.5.5 0 01-.4-.49l-.3-50.79c-4.22.37-29.95 2.23-36.6-6.39-1.78-2.29-2-5.13-.83-8.44a.5.5 0 01.28-.29c1.5-.61 36.84-15 46.2-16.34a.54.54 0 01.25 0c.13.05 13.7 5.23 20.62 18s-15.15 60.23-16.09 62.24a.46.46 0 01-.18.21 18.36 18.36 0 01-9.5 2.62zm-2.88-1.24a17.88 17.88 0 0011.69-2.14c1.31-2.84 22.6-49.18 16.05-61.21-6.4-11.78-18.64-16.94-20-17.47-9.07 1.42-42.66 15-45.62 16.17-1 2.88-.76 5.32.75 7.28 6.76 8.76 36 6 36.26 6a.51.51 0 01.38.12.5.5 0 01.17.37z" fill="#231f20"/><path d="M155.38 195.91h-.09a.51.51 0 01-.41-.58c1.29-7.34 2.62-18.92 1-20.74-5.33-5.88-18.57-15.68-18.7-15.78a.5.5 0 01-.11-.69.51.51 0 01.7-.11c.13.1 13.45 10 18.85 15.91 2.51 2.76-.38 19.67-.72 21.59a.49.49 0 01-.52.4z" fill="#fff"/><path d="M131 100.32s6.35 12.2 10.09 18.47 11.86 15.26 11.86 15.26 28.76 10.23 28.95 10.78-2.73 10.22-2.73 10.22-30.17-2.17-35.17-4.53-15.12-14-15.12-14z" fill="#b6133f"/><path fill="#fff" d="M111.21 106.62l-2.12 3.34 2.32 1.38.23 16 5.8 14.57.29-13.48-4.83-17.55 1.44-1.69-3.13-2.57z"/><path d="M117.44 142.41a.51.51 0 01-.47-.31l-5.79-14.57a1.16 1.16 0 010-.18l-.22-15.73-2.09-1.23a.54.54 0 01-.23-.32.47.47 0 01.07-.38l2.12-3.34a.51.51 0 01.34-.23.52.52 0 01.4.11l3.13 2.57a.5.5 0 01.06.71l-1.3 1.49 4.76 17.3a.77.77 0 010 .15l-.3 13.47a.5.5 0 01-.41.48zm-5.3-15.16l4.86 12.19.24-10.94-4.82-17.5a.54.54 0 01.1-.46l1.11-1.3-2.3-1.89-1.54 2.43 1.88 1.12a.49.49 0 01.24.42z" fill="#231f20"/><path d="M99.55 61.27a7.83 7.83 0 011.79-.45c2.44-.28 2.48.25 4.36-1.33a17.9 17.9 0 0110-3.8c7-.46 12.09 3.05 10.49 10.73a22.52 22.52 0 01-4.1 8.36c-4 5.48-9.53 10.44-16.27 11-2 .15-5.75 0-7.2-1.63a18.15 18.15 0 01-3.72-17.39 10.15 10.15 0 011.81-3.5 7.09 7.09 0 012.84-1.99z" fill="#fff"/><path d="M104.59 86.27c-1.78 0-4.93-.24-6.37-1.84a18.58 18.58 0 01-3.8-17.83 10.5 10.5 0 011.91-3.66 7.68 7.68 0 015-2.61 14.92 14.92 0 011.52-.11c1 0 1.31 0 2.57-1.11a18.07 18.07 0 0110.26-3.91c4.13-.27 7.48.81 9.43 3 1.74 2 2.29 4.86 1.58 8.27a22.42 22.42 0 01-4.18 8.55c-3.45 4.78-9.13 10.6-16.64 11.16-.19.06-.65.09-1.28.09zm12.28-30.12h-1.17a17.4 17.4 0 00-9.7 3.73 4.14 4.14 0 01-3.17 1.34c-.37 0-.83 0-1.45.1a6.93 6.93 0 00-1.67.42 6.53 6.53 0 00-2.63 1.84 9.72 9.72 0 00-1.73 3.33A17.58 17.58 0 0099 83.77c1.14 1.27 4.32 1.66 6.79 1.46 7.12-.53 12.58-6.14 15.9-10.74a21.51 21.51 0 004-8.17c.64-3.1.17-5.66-1.36-7.42s-4.19-2.75-7.46-2.75zm-17.32 5.12z" fill="#231f20"/><path d="M117.74 91.68v10.56s-2.48 5.81-9.39 4.06-7.75-6.73-7.75-6.73l.31-19.57s5.17-2.68 3.79-13.85a34.4 34.4 0 0018 2.72s2.12 12.21 1.38 17.59c-.75 5.24-6.25 5.15-6.34 5.22z" fill="#fff"/><path d="M110.84 107.13a10.62 10.62 0 01-2.61-.35c-7.14-1.82-8.09-6.91-8.12-7.12l.3-19.64a.52.52 0 01.27-.44s4.84-2.71 3.53-13.34a.47.47 0 01.21-.47.49.49 0 01.51 0 34.17 34.17 0 0017.69 2.67.51.51 0 01.55.41c.08.5 2.12 12.35 1.37 17.75-.43 3.19-2.67 5.16-6.3 5.57v10.11a.58.58 0 010 .19 8.27 8.27 0 01-7.4 4.66zm-9.43-26.82l-.31 19.27c0 .1.89 4.58 7.38 6.23 6 1.54 8.42-3 8.76-3.68V91.68a.5.5 0 01.18-.39.76.76 0 01.46-.13c3.33-.3 5.29-1.94 5.67-4.74.64-4.65-.92-14.7-1.29-17a35.18 35.18 0 01-17-2.44c.95 9.39-2.79 12.61-3.85 13.33zm16.33 21.93z" fill="#231f20"/><path d="M105 79.74a4.51 4.51 0 00-1.51-2.44 8 8 0 00-2.41-1.25 3.39 3.39 0 00-1.46-.28 2.73 2.73 0 00-1 .35 3.47 3.47 0 00-1.69 1.73 4.13 4.13 0 00-.12 2 8.45 8.45 0 00.51 2.11 5.48 5.48 0 007.23 3" fill="#fff"/><path d="M102.38 85.83a6 6 0 01-5.53-3.7 8.27 8.27 0 01-.54-2.24 4.58 4.58 0 01.14-2.22 4 4 0 011.92-2 3.1 3.1 0 011.17-.41 3.85 3.85 0 011.69.31 8.6 8.6 0 012.56 1.33 5.05 5.05 0 011.67 2.71.49.49 0 01-.37.6.5.5 0 01-.6-.37 4.07 4.07 0 00-1.34-2.17 7.63 7.63 0 00-2.27-1.16 2.87 2.87 0 00-1.23-.26 2.22 2.22 0 00-.8.3A3.1 3.1 0 0097.38 78a3.9 3.9 0 00-.08 1.74 7.25 7.25 0 00.48 2 5 5 0 002.72 2.71 5.13 5.13 0 003.85 0 .48.48 0 01.65.26.5.5 0 01-.26.66 6 6 0 01-2.36.46z" fill="#231f20"/><path d="M117.33 75.92s3.76 5.34 2.92 6.3-3.27.39-3.27.39" fill="#fff"/><path d="M118.46 83.28a7.67 7.67 0 01-1.59-.18.5.5 0 11.22-1c.83.19 2.32.29 2.78-.24.21-.49-1.17-3.15-3-5.68a.5.5 0 01.82-.57c1.49 2.11 3.84 5.81 2.89 6.91a2.87 2.87 0 01-2.12.76z" fill="#231f20"/><ellipse cx="114.34" cy="74.75" rx="1.26" ry=".9" transform="rotate(-86.47 114.35 74.75)" fill="#231f20"/><ellipse cx="122.06" cy="74.78" rx=".9" ry="1.26" transform="rotate(-4.02 122.047 74.75)" fill="#231f20"/><path d="M117.51 86.48c-2.08 0-4.81-.32-6.61-1.77a.51.51 0 01-.08-.71.49.49 0 01.7-.07c2.85 2.29 8.71 1.36 8.77 1.35a.5.5 0 01.16 1 19.56 19.56 0 01-2.94.2zm6.77-5a6.73 6.73 0 01-6.65-7.89 6.74 6.74 0 017.79-5.46 6.72 6.72 0 01-1.14 13.35zm-5.66-7.71a5.72 5.72 0 008.93 5.67 5.74 5.74 0 001.4-8 5.73 5.73 0 00-10.33 2.31z" fill="#231f20"/><path d="M111.22 81a6.6 6.6 0 01-1.17-.1 6.73 6.73 0 112.32-13.25 6.73 6.73 0 012.71 12.13 6.74 6.74 0 01-3.86 1.22zm0-12.45a5.73 5.73 0 00-4.68 9 5.72 5.72 0 008 1.39 5.74 5.74 0 001.4-8 5.66 5.66 0 00-4.7-2.43zm6.52 23.13s-6.57 1.52-10.44-.68c0 0 4.28 8.85 10.44 7.93z" fill="#231f20"/><path d="M116.82 99.49c-5.9 0-9.8-7.93-10-8.28a.47.47 0 01.11-.58.48.48 0 01.58-.07c3.66 2.09 10 .65 10.08.64a.5.5 0 01.62.48v7.24a.5.5 0 01-.43.49 6.71 6.71 0 01-.96.08zm-8.35-7.43c1.38 2.26 4.65 6.71 8.77 6.41V92.3c-1.53.28-5.56.85-8.77-.24z" fill="#231f20"/><path d="M82 98c-5.37 1-27.12 51.24-19.67 57 11.62 9 52.05-.1 52.05-.1l-3.29-15.6s-26 .73-26.37-4.61 15.12-30 13.09-33.74S82 98 82 98z" fill="#b6133f"/><path d="M94.67 160.05a.5.5 0 01-.09-1l12.23-2.1.38-14.25-23-2.37a.47.47 0 01-.36-.21.49.49 0 01-.07-.42L94 104.59a.5.5 0 01.62-.34.51.51 0 01.34.62l-10 34.54 22.81 2.35a.5.5 0 01.45.51l-.4 15.12a.5.5 0 01-.42.48l-12.63 2.18z" fill="#231f20"/><path d="M108.25 144.51a59.58 59.58 0 0012.94-.63 39.37 39.37 0 019.65-1.11 36.38 36.38 0 0112.46 2.85.92.92 0 01.42.28c.38.53-.53 1-1.18 1.07a17.15 17.15 0 01-5.09-.65 48.84 48.84 0 0111.5 6.12c.41.29.85.74.65 1.2s-1 .37-1.55.13l-9.3-4.25a23.39 23.39 0 016.61 4c.28.25.58.57.5.94-.13.62-1.06.5-1.64.22a54.93 54.93 0 01-8.07-4.93l5.74 4.39c.07.47-.42.87-.9.89a2.61 2.61 0 01-1.32-.47l-6.4-3.7 4 2.8c.63.44 1.34 1.15 1 1.85s-1.59.57-2.42.2a48.44 48.44 0 00-10.27-3.16 16.42 16.42 0 00-3.81-.77 33 33 0 00-5.83 1.27c-2.89.65-5.78 1.32-8.67 2" fill="#fff"/><path d="M137.29 156.53a4.38 4.38 0 01-1.6-.39 47.72 47.72 0 00-10.17-3.14c-.44-.08-.87-.21-1.3-.33a7.58 7.58 0 00-2.4-.42 18 18 0 00-3.93.78c-.62.17-1.23.34-1.82.47-2.89.66-5.78 1.32-8.67 2a.47.47 0 01-.55-.34.45.45 0 01.34-.55c2.89-.68 5.79-1.34 8.68-2 .57-.13 1.17-.29 1.78-.46a18.62 18.62 0 014.14-.82 9.41 9.41 0 012.68.46c.41.12.81.24 1.23.32a48.47 48.47 0 0110.37 3.19 2.38 2.38 0 001.57.26.38.38 0 00.24-.22c.21-.48-.62-1.11-.88-1.3l-4-2.79a.47.47 0 01-.13-.63.46.46 0 01.62-.14l6.4 3.7a2.05 2.05 0 001.08.4.57.57 0 00.4-.2l-5.53-4.23a.46.46 0 11.55-.73 54.09 54.09 0 008 4.89 1.32 1.32 0 00.94.14c.06-.1 0-.24-.31-.54a22.91 22.91 0 00-4.4-3l-2.1-1a.46.46 0 01.36-.84c.73.29 1.44.62 2.14 1l7.18 3.29a1.41 1.41 0 00.88.15c.12-.18-.09-.46-.43-.7a48.36 48.36 0 00-11.4-6.06.45.45 0 01-.27-.57.46.46 0 01.56-.3 16.23 16.23 0 004.94.63 1.12 1.12 0 00.83-.37l-.23-.1a35.76 35.76 0 00-12.3-2.82 34.37 34.37 0 00-8.37.89l-1.18.22a60.57 60.57 0 01-13 .64.46.46 0 01-.44-.48.44.44 0 01.47-.44 59.85 59.85 0 0012.83-.62l1.18-.22a34.8 34.8 0 018.58-.9 36.86 36.86 0 0112.62 2.89 1.32 1.32 0 01.61.43.88.88 0 01.08.92 2 2 0 01-1.62.87h-1.31a49.36 49.36 0 018 4.66c.76.54 1.05 1.18.8 1.75a1 1 0 01-.58.55 2.25 2.25 0 01-1.58-.18l-2.23-1a1.53 1.53 0 01.65 1.37 1 1 0 01-.54.69 2.14 2.14 0 01-1.75-.16c-.56-.27-1.11-.56-1.67-.86a1.11 1.11 0 01-.27.74 1.49 1.49 0 01-1.07.52 2.94 2.94 0 01-1.57-.52l-.77-.45a1.36 1.36 0 010 1.18 1.29 1.29 0 01-.74.71 1.91 1.91 0 01-.62.11z" fill="#231f20"/><path d="M125.52 106.63s4.76 19.41 9 33.22" fill="#fff"/><path d="M134.56 140.3a.45.45 0 01-.43-.32c-4.24-13.65-9-33-9.06-33.24a.46.46 0 01.34-.56.46.46 0 01.55.34c.05.19 4.81 19.56 9 33.19a.46.46 0 01-.3.57.34.34 0 01-.1.02z" fill="#231f20"/><path fill="#fff" d="M182.61 163.27l-.25 2.72-61.17 8.94.61-2.85 60.81-8.81z"/><path d="M121.19 175.43a.52.52 0 01-.37-.16.48.48 0 01-.12-.44l.61-2.86a.53.53 0 01.42-.39l60.81-8.8a.51.51 0 01.41.13.53.53 0 01.16.41l-.25 2.71a.5.5 0 01-.42.45l-61.18 9zm1-2.91l-.39 1.81 60.07-8.78.15-1.69z" fill="#231f20"/><path d="M182.61 163.27s-13.93-11.94-14.39-11.83-63 7.61-63 7.61l16.61 13z" fill="#fff"/><path d="M121.8 172.58a.46.46 0 01-.3-.11l-16.62-13a.5.5 0 01.25-.89c.62-.07 62-7.43 63-7.6.28-.06.69-.17 14.81 11.94a.51.51 0 01.16.52.52.52 0 01-.41.36l-60.8 8.8zm-15.35-13.18l15.49 12.15 59.51-8.61c-5-4.25-12.22-10.35-13.3-11-3.26.46-49.38 5.98-61.7 7.46z" fill="#231f20"/><path fill="#fff" d="M121.19 174.93l-16.25-13.17.25-2.71 16.61 13.03-.61 2.85z"/><path d="M121.19 175.43a.52.52 0 01-.32-.11l-16.24-13.17a.52.52 0 01-.19-.43l.25-2.72a.51.51 0 01.81-.35l16.61 13a.51.51 0 01.18.5l-.61 2.86a.5.5 0 01-.33.36.45.45 0 01-.16.06zm-15.73-13.89L120.87 174l.38-1.75L105.6 160z" fill="#231f20"/><path fill="#fff" d="M182.61 163.27l11.75-39.39-64.48 10.99-8.08 37.21 60.81-8.81z"/><path d="M121.8 172.58a.5.5 0 01-.36-.16.53.53 0 01-.13-.45l8.08-37.2a.49.49 0 01.4-.39l64.49-11a.49.49 0 01.56.63l-11.75 39.4a.53.53 0 01-.41.35l-60.8 8.8zm8.5-37.27l-7.85 36.17 59.77-8.66 11.43-38.31zm52.31 28zm34.57-59.17a.49.49 0 01-.49-.44c-.34-3.31 2.13-7.38 2.24-7.55a.5.5 0 01.69-.17.51.51 0 01.16.69s-2.4 4-2.1 6.92a.5.5 0 01-.45.55z" fill="#231f20"/><path d="M258.07 156.73a.53.53 0 01-.27-.08l-11.17-7.18a.5.5 0 01.54-.85l11.17 7.18a.51.51 0 01.15.7.53.53 0 01-.42.23zm4.04-1.8a.5.5 0 01-.27-.07L251.23 148a.5.5 0 11.55-.84l10.6 6.81a.51.51 0 01.15.7.52.52 0 01-.42.26zm3.89-1.33a.56.56 0 01-.27-.08L255 146.64a.5.5 0 11.55-.84l10.69 6.88a.5.5 0 01.15.69.48.48 0 01-.39.23zm4.89-1.32a.45.45 0 01-.25-.07l-11.51-6.78a.5.5 0 11.5-.86l11.51 6.78a.5.5 0 01-.25.93zm3.49-1.19a.48.48 0 01-.26-.07l-11.51-6.78a.51.51 0 01-.17-.69.48.48 0 01.68-.17l11.51 6.78a.5.5 0 01-.25.93z" fill="#d1d3d4"/></g></svg>