<svg xmlns="http://www.w3.org/2000/svg" viewBox="0 0 400 300"><g data-name="#193_health_flatline"><path d="M330.43 68.53H69.57a16.38 16.38 0 00-16.38 16.38v136.22a16.38 16.38 0 0016.38 16.38h30.63L124 263.7v-26.19h206.43a16.38 16.38 0 0016.38-16.38V84.91a16.38 16.38 0 00-16.38-16.38z" fill="#fff"/><path d="M330.43 68.53a16.38 16.38 0 0116.38 16.38v136.22a16.38 16.38 0 01-16.38 16.38H124v26.19l-23.8-26.19H69.57a16.38 16.38 0 01-16.38-16.38V84.91a16.38 16.38 0 0116.38-16.38h260.86m0-1H69.57a17.4 17.4 0 00-17.38 17.38v136.22a17.39 17.39 0 0017.38 17.38h30.19l23.45 25.86a1 1 0 00.74.33.92.92 0 00.36-.07 1 1 0 00.64-.93v-25.19h205.48a17.39 17.39 0 0017.38-17.38V84.91a17.4 17.4 0 00-17.38-17.38z" fill="#d1d3d4"/><path d="M330.76 153.86H277.4a.5.5 0 01-.5-.5V88.81a.5.5 0 01.5-.5h53.36a.5.5 0 01.5.5v64.55a.5.5 0 01-.5.5zm-52.86-1h52.36V89.31H277.9z" fill="#d1d3d4"/><path d="M309.15 96.42H306v-3.19a.85.85 0 00-.85-.85h-2.05a.85.85 0 00-.85.85v3.19H299a.85.85 0 00-.85.85v2a.85.85 0 00.85.85h3.19v3.19a.85.85 0 00.85.85h2.05a.85.85 0 00.85-.85v-3.19h3.19a.85.85 0 00.85-.85v-2a.85.85 0 00-.83-.85z" fill="#b71440"/><path d="M308.81 110.64h-25.48a.5.5 0 01-.5-.5.5.5 0 01.5-.5h25.48a.5.5 0 01.5.5.51.51 0 01-.5.5zm16.03 0h-8.65a.51.51 0 01-.5-.5.5.5 0 01.5-.5h8.65a.5.5 0 01.5.5.51.51 0 01-.5.5zM303 117.63h-19.7a.5.5 0 01-.5-.5.5.5 0 01.5-.5H303a.5.5 0 01.5.5.5.5 0 01-.5.5zm20.88 0h-7.69a.5.5 0 01-.5-.5.51.51 0 01.5-.5h7.69a.51.51 0 01.5.5.5.5 0 01-.5.5zm-17.98 7h-22.57a.5.5 0 01-.5-.5.5.5 0 01.5-.5h22.57a.51.51 0 01.5.5.5.5 0 01-.5.5zm18.94 0h-8.65a.5.5 0 01-.5-.5.51.51 0 01.5-.5h8.65a.51.51 0 01.5.5.5.5 0 01-.5.5zm-21.84 7h-19.7a.5.5 0 01-.5-.5.5.5 0 01.5-.5H303a.5.5 0 01.5.5.5.5 0 01-.5.5zm20.4 0h-7.21a.5.5 0 01-.5-.5.51.51 0 01.5-.5h7.21a.51.51 0 01.5.5.5.5 0 01-.5.5zm-14.59 7h-25.48a.5.5 0 01-.5-.5.5.5 0 01.5-.5h25.48a.51.51 0 01.5.5.5.5 0 01-.5.5zm16.03 0h-8.65a.5.5 0 01-.5-.5.51.51 0 01.5-.5h8.65a.51.51 0 01.5.5.5.5 0 01-.5.5zm-24.63 7h-16.88a.5.5 0 01-.5-.5.5.5 0 01.5-.5h16.88a.5.5 0 01.5.5.5.5 0 01-.5.5zm24.63 0h-8.65a.5.5 0 01-.5-.5.51.51 0 01.5-.5h8.65a.51.51 0 01.5.5.5.5 0 01-.5.5z" fill="#d1d3d4"/><path d="M135.61 160.58c0-.89-3.49-4.29-4.05-5-1.31-1.64-3.59-2.81-4.08-4.93-.42-1.78 1-5.32.82-7.14a17.83 17.83 0 00-1-4 5.22 5.22 0 00-2.4-3.14 1.39 1.39 0 00-1.63.16 1.79 1.79 0 00-.27 1.23 24.73 24.73 0 01-.22 5.64c-2.26 11.5-15.29-.44-20-3.88-3.6-2.6-7.33-5.44-11.74-5.95a3 3 0 00-2 .29 2.33 2.33 0 00-.69 2.69 6.79 6.79 0 001.74 2.4 7 7 0 00-2.31-1.52 2.4 2.4 0 00-2.56.58 2.37 2.37 0 000 2.66 6.85 6.85 0 002.06 1.91 4.29 4.29 0 00-4-1.62c-1.18 1.8.36 4.11 1.91 5.6a29.86 29.86 0 009.38 6.58c3.43 1.36 6.72 2.56 9.72 4.86 7 5.39 13.12 12.08 18.66 19a60.08 60.08 0 016.52-9.6c1.53-1.88 6.14-4.53 6.14-6.82z" fill="#fff"/><path d="M123 177.44a.46.46 0 01-.36-.17C116 169 110.07 163 104 158.34a34.54 34.54 0 00-8.77-4.46l-.84-.33a30.82 30.82 0 01-9.53-6.69c-.87-.83-3.57-3.73-2-6.17a.44.44 0 01.31-.2 4.57 4.57 0 011.43 0 2.75 2.75 0 01.21-2.79 2.83 2.83 0 013-.73h.14a3.42 3.42 0 01-.13-.34 2.77 2.77 0 01.87-3.22 3.48 3.48 0 012.31-.36c4.31.5 7.93 3.12 11.43 5.66l.52.37c.58.42 1.28 1 2.08 1.58 4 3.1 10.67 8.29 14.45 6.86 1.4-.52 2.34-2 2.79-4.27a23.8 23.8 0 00.23-5.27v-.28a2.14 2.14 0 01.37-1.53 1.84 1.84 0 012.17-.29 5.5 5.5 0 012.64 3.4 18.82 18.82 0 011 4.13 12.22 12.22 0 01-.44 3.45 10.31 10.31 0 00-.4 3.64 6.48 6.48 0 002.35 3.1 14.28 14.28 0 011.65 1.65c.14.18.47.53.88 1 2.17 2.3 3.27 3.6 3.27 4.31 0 1.71-2 3.38-3.95 5a17.55 17.55 0 00-2.28 2.1 60.24 60.24 0 00-6.47 9.52.44.44 0 01-.36.24zm-39.42-36.07c-1 1.82 1.23 4.15 1.94 4.84a29.92 29.92 0 009.24 6.49l.83.33a35.39 35.39 0 019 4.58c6 4.57 11.79 10.47 18.3 18.55a63.42 63.42 0 016.24-9 17.48 17.48 0 012.41-2.23c1.61-1.34 3.61-3 3.62-4.29-.07-.56-2.21-2.84-3-3.69-.44-.47-.79-.84-.94-1a13.17 13.17 0 00-1.54-1.54 7.28 7.28 0 01-2.63-3.57 10.63 10.63 0 01.4-4 11.84 11.84 0 00.42-3.16 17.75 17.75 0 00-.93-3.92 4.7 4.7 0 00-2.16-2.88c-.38-.17-.88-.21-1.09.05a1.41 1.41 0 00-.16.91v.16a23.92 23.92 0 01-.24 5.47c-.52 2.65-1.65 4.32-3.37 5-4.27 1.6-10.93-3.57-15.33-7-.79-.61-1.48-1.15-2.06-1.57l-.51-.37c-3.41-2.47-6.93-5-11-5.49a2.62 2.62 0 00-1.7.21 1.91 1.91 0 00-.51 2.16 6.52 6.52 0 001.64 2.23.46.46 0 01-.63.66 6.65 6.65 0 00-2.15-1.42 1.65 1.65 0 00-2 2.56 3.43 3.43 0 00.4.54 4.42 4.42 0 011.63 1.34.45.45 0 010 .59.47.47 0 01-.6.06 11 11 0 01-1.55-1.25 3.7 3.7 0 00-1.97-.35z" fill="#231f20"/><path d="M252.37 61.64c-.53-.34-.92-.58-.93-.61-1-5.49-6.05-8.36-11.23-8.49-6.21-.17-12.21.77-17.75-2.54-2.26-1.36-4.68-2.84-7.31-2.66-3 .21-5.47 2.63-6.64 5.4-3.17 7.5.83 17.71 6.51 23a52.58 52.58 0 007.66 5.57l5.66 3.61c5.78 3.7 13.84 7.2 20.84 4.62 5.36-2 7.85-8.28 8.45-13.52a21.12 21.12 0 00-.74-8.73 12.25 12.25 0 00-1.65-3.62 20.32 20.32 0 00-2.87-2.03z" fill="#fff"/><path d="M244 90.89c-5.77 0-11.61-2.83-15.92-5.58l-5.66-3.62a52.93 52.93 0 01-7.73-5.63c-5.73-5.32-9.89-15.84-6.63-23.55 1.38-3.26 4.15-5.49 7.07-5.7 2.72-.18 5.24 1.32 7.46 2.65l.14.08c4.31 2.59 8.87 2.54 13.69 2.49h3.81c5 .13 10.55 2.87 11.68 8.71l.66.42-.19.47.26-.43a16.06 16.06 0 013 2.12 12.64 12.64 0 011.73 3.77 21.51 21.51 0 01.76 8.93c-.63 5.4-3.26 11.9-8.77 13.94a15.56 15.56 0 01-5.36.93zm-28.4-43.1h-.41c-2.54.18-5 2.18-6.22 5.09-3.09 7.31.91 17.33 6.39 22.43a52.31 52.31 0 007.64 5.54l5.66 3.61C234.08 88 242.06 91.59 249 89c5.09-1.88 7.53-8 8.12-13.11a20.39 20.39 0 00-.72-8.52 11.8 11.8 0 00-1.56-3.46 24.07 24.07 0 00-2.75-1.88l.27-.42-.36.39c-1-.65-1-.65-1.08-.9-.95-5.41-6.08-8-10.76-8.08h-3.77c-5 0-9.66.1-14.21-2.63l-.14-.08c-2.04-1.23-4.17-2.52-6.44-2.52z" fill="#231f20"/><path d="M271.81 158l19.59-8.76c-.71-1.35-12.13-27.86-22.6-34.52-9-7.48-27.05-8.22-47.5-9 0 0-9.37.83-19.45 1.9-11 1.16-21.44 11.72-21.44 11.72l3.45 41.75s-1.87 33.8-5.14 76.39h95.17s-2.63-73.39-2.08-79.48z" fill="#b71440"/><path fill="#fff" d="M216.71 118.59l6.41 73.19 20.05-75.41-26.46 2.22z"/><circle cx="243.76" cy="147.76" r="4.37" fill="#231f20"/><path d="M243.76 152.57a4.82 4.82 0 114.81-4.81 4.82 4.82 0 01-4.81 4.81zm0-8.75a3.94 3.94 0 103.93 3.94 3.95 3.95 0 00-3.93-3.94z" fill="#231f20"/><circle cx="245.74" cy="146.47" r="3.48" fill="#231f20"/><path d="M245.74 150.39a3.92 3.92 0 113.92-3.92 3.93 3.93 0 01-3.92 3.92zm0-7a3 3 0 103 3 3 3 0 00-3-2.96zm-35.28-7.91h-.05a.45.45 0 01-.41-.48c.11-1.06 2.87-25.94 14.4-28.29a.44.44 0 11.17.87c-10.89 2.21-13.67 27.26-13.69 27.51a.45.45 0 01-.42.39z" fill="#231f20"/><path d="M244.59 146h-.05a.5.5 0 01-.44-.56c2.94-26.08-.77-36.3-.81-36.4a.5.5 0 11.93-.35c.16.41 3.85 10.48.87 36.86a.5.5 0 01-.5.45zm-26.76 18a.5.5 0 01-.5-.5.5.5 0 01.5-.5 2.79 2.79 0 002.78-2.78v-15.36a9.33 9.33 0 00-9.32-9.32h-1.67a9.33 9.33 0 00-9.32 9.32v15.35a2.79 2.79 0 002.78 2.78.5.5 0 01.5.5.5.5 0 01-.5.5 3.78 3.78 0 01-3.78-3.78v-15.35a10.33 10.33 0 0110.32-10.32h1.67a10.33 10.33 0 0110.32 10.32v15.35a3.78 3.78 0 01-3.78 3.79z" fill="#231f20"/><rect x="203.32" y="161.1" width="1.68" height="4.89" rx=".84" fill="#231f20"/><path d="M204.16 166.43a1.29 1.29 0 01-1.28-1.28v-3.21a1.28 1.28 0 012.56 0v3.21a1.28 1.28 0 01-1.28 1.28zm0-4.89a.4.4 0 00-.4.4v3.21a.4.4 0 00.8 0v-3.21a.4.4 0 00-.4-.4z" fill="#231f20"/><rect x="216.64" y="161.1" width="1.68" height="4.89" rx=".84" fill="#231f20"/><path d="M217.48 166.43a1.28 1.28 0 01-1.28-1.28v-3.21a1.28 1.28 0 012.56 0v3.21a1.28 1.28 0 01-1.28 1.28zm0-4.89a.4.4 0 00-.4.4v3.21a.4.4 0 00.8 0v-3.21a.4.4 0 00-.4-.4z" fill="#231f20"/><path d="M245.74 150.45h-.07c-1.86-.27-3.07-1-3.61-2.13-.89-1.87.44-4.11.5-4.2a.48.48 0 01.68-.17.5.5 0 01.17.68s-1.11 1.88-.45 3.27c.39.82 1.35 1.35 2.85 1.57a.5.5 0 01-.07 1zm-27.67-48.37l-1.36 16.51s1.5 9.21 11.76 7.71a20.65 20.65 0 0014.67-10l2.51-28.3s-7.07-4.66-3.38-20.62a49.93 49.93 0 01-26.43 1.2s-6.18 17.11-5.69 25a8.83 8.83 0 007.92 8.5z" fill="#fff"/><path d="M226.31 127c-8.63 0-10.07-8.21-10.09-8.3a.24.24 0 010-.12l1.31-16a9.25 9.25 0 01-7.88-8.9c-.49-7.9 5.47-24.49 5.72-25.2a.5.5 0 01.58-.31 49.82 49.82 0 0026.14-1.19.5.5 0 01.66.58c-3.55 15.37 3.11 20 3.18 20.09a.51.51 0 01.22.47l-2.51 28.33a.6.6 0 01-.06.19 21 21 0 01-15 10.24 16.47 16.47 0 01-2.27.12zm-9.09-8.41c.15.82 1.84 8.6 11.18 7.25a20.35 20.35 0 0014.25-9.63l2.48-28c-1.25-1-6.51-6.15-3.54-20.09a52 52 0 01-25.42 1c-.93 2.65-5.95 17.36-5.52 24.38a8.24 8.24 0 007.46 8 .49.49 0 01.45.54z" fill="#231f20"/><path d="M217.23 112.28a29.17 29.17 0 0010.12-5.16c4.82-3.85 4.67-6.36 4.67-6.36s-7.5 3.25-14 1.32z" fill="#231f20"/><path d="M217.23 112.77a.47.47 0 01-.32-.12.51.51 0 01-.18-.42l.84-10.19a.47.47 0 01.22-.37.48.48 0 01.42-.07c6.21 1.86 13.54-1.26 13.61-1.29a.47.47 0 01.46 0 .49.49 0 01.24.39c0 .12.11 2.81-4.85 6.78a29.63 29.63 0 01-10.32 5.25zm1.28-10l-.72 8.88a29.35 29.35 0 009.25-4.86c3-2.38 4-4.21 4.31-5.18-2.1.72-7.66 2.39-12.84 1.11z" fill="#231f20"/><path d="M180.41 119.37l-23.28 48.84-25.53-14.85-17.19 18.27s31.49 41.31 48.35 32.57 30.78-38.2 30.78-38.2z" fill="#b71440"/><path d="M180.11 219.38a.5.5 0 01-.48-.52c1.19-28.54 7.37-84.37 7.44-84.93a.48.48 0 01.55-.44.5.5 0 01.44.55c-.07.56-6.25 56.35-7.44 84.87a.49.49 0 01-.51.47z" fill="#231f20"/><path fill="#fff" d="M230.04 180.55l18.65 62.78-52.21-.15-18.15-61.37 51.71-1.26z"/><path d="M248.69 243.79l-52.21-.16a.45.45 0 01-.44-.32l-18.14-61.37a.44.44 0 01.06-.4.47.47 0 01.36-.18l51.68-1.27a.46.46 0 01.44.33l18.65 62.78a.47.47 0 01-.44.59zm-51.87-1.07l51.26.15L229.7 181l-50.76 1.24z" fill="#231f20"/><path d="M271.81 214.13c-6.86.85-14.52-.37-21 1.81-6.79 2.27-14.25 4.17-21.31 2-3.32-1-8.89-14.18-3.54-15 3.53-.56 10.56-.74 10.56-.74l-2.07-7.93s4.53 4.52 9.65 4.67 22.38-.55 22.38-.55" fill="#fff"/><path d="M236.18 219.35a23 23 0 01-6.85-1c-2.74-.86-6.37-8.4-6.06-12.61.17-2.43 1.5-3.14 2.59-3.31 3-.47 8.29-.67 10-.73l-1.86-7.37a.46.46 0 01.22-.51.44.44 0 01.55.07s4.46 4.39 9.33 4.53c5 .15 22.18-.54 22.35-.54a.43.43 0 01.48.43.46.46 0 01-.44.48c-.17 0-17.34.69-22.42.54-3.73-.1-7.11-2.41-8.81-3.78l1.69 6.48a.46.46 0 01-.07.39.5.5 0 01-.36.18c-.07 0-7 .19-10.5.73-1.12.18-1.71 1-1.82 2.48-.29 4 3.26 11 5.43 11.66 6.88 2.15 14.17.33 21-2 4.12-1.38 8.71-1.42 13.15-1.47a70.17 70.17 0 008-.37.47.47 0 01.5.4.45.45 0 01-.39.51 74.62 74.62 0 01-8.08.38c-4.37 0-8.89.08-12.87 1.41-4.8 1.67-9.8 3.02-14.76 3.02zm-42.64-39.9l3.43 8.14 22.14-.84-3.08-8-22.49.7z" fill="#231f20"/><path d="M197 188a.45.45 0 01-.41-.27l-3.43-8.14a.44.44 0 01.4-.61l22.49-.7a.44.44 0 01.43.28l3.07 8a.44.44 0 010 .4.46.46 0 01-.35.2L197 188zm-2.77-8.16l3.05 7.27 21.23-.81-2.74-7.13z" fill="#231f20"/><path d="M205.58 175.24a3.83 3.83 0 00-2.63-.07 3.72 3.72 0 00-2.3 2.89 4.42 4.42 0 00.36 2.2 4.93 4.93 0 001.18 1.89c1.84 1.67 6.35 1.49 6.65-2.12a5.24 5.24 0 00-.66-2.71 4.27 4.27 0 00-2.6-2.08z" fill="#231f20"/><path d="M205.13 183.61a4.89 4.89 0 01-3.24-1.14 5.36 5.36 0 01-1.3-2.05 4.93 4.93 0 01-.38-2.41 4.12 4.12 0 012.59-3.25 4.26 4.26 0 012.94.07 4.72 4.72 0 012.84 2.29 5.72 5.72 0 01.7 2.94 3.62 3.62 0 01-2.35 3.22 5 5 0 01-1.8.33zm-1-8.2a3.12 3.12 0 00-1 .17 3.27 3.27 0 00-2 2.54 3.94 3.94 0 00.33 2 3.76 3.76 0 005.19 2.36 2.72 2.72 0 001.75-2.48 4.81 4.81 0 00-.62-2.48 3.74 3.74 0 00-2.35-1.85 3.82 3.82 0 00-1.31-.26z" fill="#231f20"/><path d="M85.85 105.81l2.79 41.36c.2 2.9 8.33 4.72 18.17 4.05s17.65-3.55 17.46-6.45l-2.79-41.36z" fill="#fff"/><path d="M120.55 104.47l2.72 40.36c0 .72-1.27 1.94-4.32 3.07a45.6 45.6 0 01-12.21 2.33c-1.32.09-2.64.13-3.92.13-8.46 0-13.09-1.89-13.18-3.26l-2.72-40.36 33.63-2.27m.93-1.06l-35.63 2.4 2.79 41.36c.17 2.5 6.22 4.19 14.18 4.19 1.28 0 2.62 0 4-.14 9.84-.66 17.65-3.55 17.46-6.45l-2.79-41.36z" fill="#231f20"/><ellipse cx="103.67" cy="104.61" rx="17.85" ry="5.27" transform="rotate(-3.85 103.859 104.765)" fill="#231f20"/><path d="M107.3 100.21c8.46 0 13.1 1.89 13.19 3.26s-5.49 4.66-16.53 5.4c-1.33.09-2.65.13-3.93.13-8.46 0-13.09-1.89-13.18-3.26 0-.72 1.27-1.94 4.32-3.07a45.67 45.67 0 0112.21-2.33c1.32-.09 2.64-.13 3.92-.13m0-1c-1.28 0-2.62.05-4 .14-9.83.66-17.65 3.55-17.46 6.46.16 2.5 6.23 4.19 14.16 4.19 1.29 0 2.62 0 4-.14 9.84-.66 17.66-3.55 17.46-6.45-.17-2.5-6.22-4.2-14.18-4.2z" fill="#231f20"/><path d="M122.15 113.38l1.5 22.15c.19 2.9-7.63 5.8-17.46 6.46s-18-1.16-18.17-4.06l-1.49-22.15c.19 2.9 8.33 4.72 18.17 4.06s17.65-3.56 17.45-6.46z" fill="#fff"/><path d="M121.36 116.42l1.29 19.18c0 .71-1.27 1.94-4.32 3.06a45.65 45.65 0 01-12.21 2.34c-1.32.08-2.64.13-3.92.13-8.46 0-13.09-1.9-13.18-3.26l-1.3-19.19c2.92 1.65 8.25 2.29 13 2.29 1.33 0 2.7 0 4.06-.14 6.75-.45 13.48-2 16.6-4.41m.79-3c.2 2.9-7.62 5.79-17.45 6.46-1.37.09-2.71.13-4 .13-8 0-14-1.69-14.17-4.19L88 137.93c.17 2.5 6.22 4.2 14.18 4.2 1.29 0 2.62 0 4-.14 9.83-.66 17.65-3.56 17.46-6.46l-1.5-22.15z" fill="#231f20"/><path d="M111.92 126.76l-3.57.24-.24-3.57a1.28 1.28 0 00-1.36-1.19l-2.5.17a1.26 1.26 0 00-1.18 1.36l.24 3.57-3.57.24a1.27 1.27 0 00-1.19 1.36l.17 2.49a1.26 1.26 0 001.36 1.19l3.57-.24.24 3.57a1.27 1.27 0 001.36 1.19l2.49-.17a1.28 1.28 0 001.19-1.36l-.24-3.57 3.57-.24a1.28 1.28 0 001.19-1.36l-.17-2.49a1.28 1.28 0 00-1.36-1.19z" fill="#b71440"/><path d="M113.79 136.08a.5.5 0 010-1 13.86 13.86 0 006.45-2.05.5.5 0 11.58.82 14.52 14.52 0 01-7 2.23z" fill="#d1d3d4"/><path d="M210.53 85.93a4.06 4.06 0 01-4-3.78l-.23-3.45a4.06 4.06 0 013.7-4.32l7.56-.51a4.08 4.08 0 014.32 3.78l.23 3.45a4.06 4.06 0 01-3.78 4.31l-7.56.51zm7.33-11.06h-.2l-7.56.51a3.06 3.06 0 00-2.85 3.25l.23 3.45a3.06 3.06 0 003.26 2.84l7.55-.5a3.06 3.06 0 002.85-3.26l-.23-3.44a3.06 3.06 0 00-3.05-2.85zm9.78 9.88a4.06 4.06 0 01-4-3.78l-.23-3.45a4.07 4.07 0 013.78-4.32l7.55-.5a4.07 4.07 0 014.26 3.77l.23 3.45a4.06 4.06 0 01-3.77 4.32l-7.56.5zM235 73.69h-.21l-7.56.5a3.05 3.05 0 00-2.84 3.25l.23 3.45a3 3 0 003.25 2.84l7.56-.5a3.06 3.06 0 002.82-3.23l-.25-3.46a3 3 0 00-3-2.85z" fill="#231f20"/><path d="M221.49 79.4a.5.5 0 010-1l2-.14a.5.5 0 01.07 1l-2 .14z" fill="#231f20"/><path d="M85.06 88.58a2.67 2.67 0 00-.22 3.79l8.75 9.87a2.68 2.68 0 004-3.56l-8.76-9.87a2.69 2.69 0 00-3.77-.23z" fill="#fff"/><path d="M86.84 87.91a2.67 2.67 0 012 .9l8.76 9.87a2.68 2.68 0 01-4 3.56l-8.75-9.87a2.67 2.67 0 012-4.46m0-1a3.66 3.66 0 00-2.44.93 3.59 3.59 0 00-1.23 2.53 3.66 3.66 0 00.91 2.63l8.75 9.86a3.68 3.68 0 005.2.31 3.66 3.66 0 00.31-5.2l-8.75-9.82a3.68 3.68 0 00-2.76-1.24z" fill="#231f20"/><path d="M93.23 93.74s0 1-1.48 2.29a4.16 4.16 0 01-2.54 1.28l4.38 4.93a2.68 2.68 0 004-3.56z" fill="#b71440"/><path d="M113.64 63.82a2.68 2.68 0 00-3.52 1.42L105 77.38a2.68 2.68 0 001.42 3.52 2.65 2.65 0 002.05 0 2.69 2.69 0 001.47-1.44l5.16-12.14a2.69 2.69 0 00-1.46-3.5z" fill="#fff"/><path d="M112.59 63.6a2.6 2.6 0 011 .22 2.69 2.69 0 011.42 3.52l-5.11 12.14a2.69 2.69 0 01-1.47 1.44 2.86 2.86 0 01-1 .19 2.77 2.77 0 01-1.05-.21 2.68 2.68 0 01-1.38-3.52l5.16-12.14a2.69 2.69 0 012.47-1.64m0-1a3.7 3.7 0 00-3.39 2.24L104 77a3.68 3.68 0 002 4.82 3.74 3.74 0 001.44.29 3.65 3.65 0 001.38-.27 3.7 3.7 0 002-2L116 67.73a3.69 3.69 0 00-2-4.83 3.57 3.57 0 00-1.44-.3z" fill="#231f20"/><path d="M112.48 73.41a3.67 3.67 0 01-2.7-.36 4.1 4.1 0 01-2.24-1.74L105 77.38a2.68 2.68 0 001.42 3.52 2.65 2.65 0 002.05 0 2.69 2.69 0 001.47-1.44z" fill="#b71440"/><path d="M104.33 60.87a2.68 2.68 0 01-3.73-.73l-7.36-11A2.69 2.69 0 0196 45.06a2.65 2.65 0 011.7 1.14l7.36 10.95a2.67 2.67 0 01-.73 3.72z" fill="#fff"/><path d="M95.47 45a3.05 3.05 0 01.52.05 2.65 2.65 0 011.71 1.15l7.36 10.95a2.69 2.69 0 01-2.23 4.18 2.94 2.94 0 01-.51 0 2.71 2.71 0 01-1.72-1.14l-7.36-11a2.69 2.69 0 01.76-3.72 2.62 2.62 0 011.47-.47m0-1a3.68 3.68 0 00-3 5.74l7.35 11a3.68 3.68 0 002.35 1.56 3.42 3.42 0 00.71.07 3.69 3.69 0 003.06-5.74l-7.36-11a3.64 3.64 0 00-2.35-1.56 4.17 4.17 0 00-.71-.07z" fill="#231f20"/><path d="M101.38 51.67a3.62 3.62 0 00-2.58.86 4.14 4.14 0 00-1.88 2.14l-3.68-5.48A2.69 2.69 0 0196 45.06a2.65 2.65 0 011.7 1.14z" fill="#b71440"/><path d="M83.89 70.83l-.67 2.37c-.38 1.32 2.18 3.19 5.7 4.19s6.67.75 7-.56l.67-2.38z" fill="#fff"/><path d="M83.89 70.83l12.75 3.62-.64 2.38c-.22.77-1.4 1.17-3 1.17a15.1 15.1 0 01-4-.61c-3.52-1-6.08-2.87-5.7-4.19l.67-2.37m0-1a1 1 0 00-1 .73l-.68 2.37c-.21.75-.08 1.94 1.76 3.29a14.84 14.84 0 004.63 2.13 15.85 15.85 0 004.28.65c3 0 3.81-1.19 4-1.9l.67-2.37a1 1 0 00-.09-.76 1 1 0 00-.6-.48l-12.78-3.62a.84.84 0 00-.27 0z" fill="#231f20"/><ellipse cx="90.26" cy="72.64" rx="2.47" ry="6.63" transform="rotate(-74.14 90.266 72.643)" fill="#fff"/><path d="M86.94 69.66a14.7 14.7 0 014 .61c3.52 1 6.07 2.87 5.7 4.18-.22.77-1.4 1.18-3 1.18a15.1 15.1 0 01-4-.61c-3.52-1-6.07-2.88-5.7-4.19.22-.77 1.4-1.17 3-1.17m0-1c-3 0-3.81 1.19-4 1.9s-.08 1.93 1.76 3.29A15.19 15.19 0 0089.32 76a16.13 16.13 0 004.27.65c3 0 3.81-1.19 4-1.9s.08-1.94-1.76-3.29a14.73 14.73 0 00-4.63-2.13 15.73 15.73 0 00-4.27-.65z" fill="#231f20"/><path d="M85.21 74.05a.49.49 0 01-.48-.38.5.5 0 01.36-.61L94 70.83a.49.49 0 01.6.36.5.5 0 01-.36.61L85.33 74z" fill="#231f20"/><path d="M118.57 77l.58-2.4c.32-1.32 3.47-1.7 7-.84s6.19 2.64 5.86 4l-.58 2.4z" fill="#fff"/><path d="M122.58 73.27a15.7 15.7 0 013.59.46c3.56.86 6.19 2.64 5.86 4l-.58 2.4L118.57 77l.58-2.4c.21-.84 1.56-1.3 3.43-1.3m0-1c-2.52 0-4.08.73-4.4 2.07l-.58 2.4a1 1 0 00.74 1.2l12.88 3.12h.23a1 1 0 00.53-.15 1 1 0 00.45-.62l.58-2.39c.56-2.32-3-4.3-6.6-5.17a16.69 16.69 0 00-3.83-.49z" fill="#231f20"/><ellipse cx="125.01" cy="78.53" rx="2.47" ry="6.63" transform="rotate(-76.39 125.022 78.528)" fill="#231f20"/><path d="M122 75.67a15.71 15.71 0 013.6.46c3.56.86 6.18 2.63 5.86 4-.2.84-1.55 1.3-3.42 1.3a15.78 15.78 0 01-3.6-.46c-3.55-.86-6.18-2.63-5.86-4 .21-.84 1.55-1.3 3.42-1.3m0-1c-2.51 0-4.07.73-4.39 2.07-.18.76 0 1.93 1.89 3.21a14.59 14.59 0 004.71 2 16.62 16.62 0 003.83.49c2.51 0 4.07-.73 4.4-2.07.18-.76 0-1.93-1.89-3.21a15 15 0 00-4.71-2 16.7 16.7 0 00-3.84-.49z" fill="#231f20"/><path d="M127.72 82.08a.51.51 0 01-.35-.13l-6.65-6.33a.5.5 0 010-.71.49.49 0 01.7 0l6.66 6.33a.5.5 0 01-.34.86z" fill="#231f20"/><path d="M103.68 103.39l1.13 2.19c.63 1.22 3.77.84 7-.83s5.38-4 4.76-5.23l-1.13-2.19z" fill="#fff"/><path d="M115.47 97.33l1.13 2.19c.62 1.21-1.51 3.55-4.76 5.23a12.52 12.52 0 01-5.25 1.55c-.89 0-1.53-.24-1.78-.72l-1.13-2.19 11.79-6.06m0-1a1 1 0 00-.46.11l-11.78 6.06a1 1 0 00-.5.59 1 1 0 00.07.76l1.12 2.19a2.7 2.7 0 002.67 1.26 13.45 13.45 0 005.7-1.66 15 15 0 004.12-3c1.54-1.69 1.44-2.87 1.08-3.57l-1.13-2.19a1 1 0 00-.58-.5 1.1 1.1 0 00-.31 0z" fill="#231f20"/><ellipse cx="109.58" cy="100.36" rx="6.63" ry="2.47" transform="rotate(-27.23 109.574 100.365)" fill="#fff"/><path d="M113.69 96.62c.89 0 1.53.23 1.78.71.62 1.21-1.51 3.55-4.76 5.22a12.52 12.52 0 01-5.25 1.55c-.89 0-1.53-.23-1.78-.71-.62-1.21 1.51-3.55 4.77-5.23a12.45 12.45 0 015.24-1.54m0-1a13.46 13.46 0 00-5.7 1.65c-3.27 1.69-6.28 4.46-5.19 6.58.29.57 1 1.25 2.66 1.25a13.31 13.31 0 005.7-1.66c3.27-1.68 6.29-4.45 5.2-6.57-.29-.57-1-1.25-2.67-1.25z" fill="#231f20"/><path d="M106.51 105a.48.48 0 01-.28-.08.5.5 0 01-.14-.69l5-7.72a.5.5 0 01.69-.15.51.51 0 01.15.7l-5 7.71a.51.51 0 01-.42.23z" fill="#231f20"/><path d="M110.05 38l-3.17 8.67c-.95 2.58 5.39 7.28 14.16 10.5s16.64 3.72 17.59 1.13l3.17-8.66z" fill="#fff"/><path d="M110.65 39.24l29.87 10.94-2.83 7.72c-.17.46-1.22 1-3.64 1a39.86 39.86 0 01-12.67-2.72 43 43 0 01-10.47-5.35c-2.8-2.08-3.26-3.41-3.09-3.87l2.83-7.72m-.6-1.29l-3.17 8.67c-.95 2.58 5.39 7.28 14.16 10.5a40.86 40.86 0 0013 2.78c2.49 0 4.17-.54 4.58-1.65l3.17-8.66L110.05 38z" fill="#231f20"/><ellipse cx="125.93" cy="43.77" rx="4.99" ry="16.91" transform="rotate(-69.88 125.93 43.773)" fill="#fff"/><path d="M114.63 37.3A39.86 39.86 0 01127.3 40a43.36 43.36 0 0110.47 5.35c2.8 2.08 3.26 3.41 3.09 3.87s-1.22 1-3.64 1a39.92 39.92 0 01-12.67-2.72 43.72 43.72 0 01-10.47-5.35c-2.8-2.08-3.26-3.41-3.09-3.87s1.22-1 3.64-1m0-1c-2.49 0-4.17.54-4.58 1.65-1 2.59 5.39 7.29 14.16 10.51a40.86 40.86 0 0013 2.78c2.49 0 4.18-.54 4.58-1.65.95-2.59-5.39-7.29-14.16-10.51a40.86 40.86 0 00-13-2.78z" fill="#231f20"/><path d="M110.4 49.74a.51.51 0 01-.17 0 .5.5 0 01-.31-.63l2-5.77a.5.5 0 01.64-.3.48.48 0 01.3.63l-2 5.77a.51.51 0 01-.46.3zm3.06 2.39a.39.39 0 01-.18 0 .49.49 0 01-.29-.64l2.25-5.83a.49.49 0 01.64-.29.5.5 0 01.29.65l-2.25 5.83a.48.48 0 01-.46.28zm3.83 1.87h-.18a.5.5 0 01-.28-.65l2.24-5.83a.5.5 0 11.93.36l-2.24 5.83a.51.51 0 01-.47.29zm3.91 1.53a.57.57 0 01-.18 0 .51.51 0 01-.29-.65L123 49a.5.5 0 01.64-.29.5.5 0 01.29.65l-2.24 5.83a.51.51 0 01-.49.34zm4.27 1.47a.57.57 0 01-.18 0 .5.5 0 01-.29-.65l2.24-5.83a.5.5 0 11.94.36l-2.25 5.83a.48.48 0 01-.46.29zm4.16 1.14a.57.57 0 01-.18 0 .5.5 0 01-.29-.65l2.24-5.83a.51.51 0 01.65-.29.5.5 0 01.29.65l-2.25 5.83a.48.48 0 01-.46.29zm4.42.36a.57.57 0 01-.18 0 .51.51 0 01-.28-.65l2.24-5.85a.5.5 0 01.65-.29.51.51 0 01.29.65l-2.25 5.83a.51.51 0 01-.47.31z" fill="#d1d3d4"/><path d="M168.39 175.47a.59.59 0 01-.25-.07L135.08 156a.49.49 0 01-.18-.68.5.5 0 01.68-.17l33.07 19.38a.5.5 0 01.17.68.48.48 0 01-.43.26z" fill="#231f20"/><ellipse cx="233.46" cy="78.57" rx="1.84" ry="1.31" transform="rotate(-87.54 233.468 78.57)" fill="#231f20"/><ellipse cx="217.28" cy="79.19" rx="1.31" ry="1.84" transform="rotate(-6.03 217.342 79.225)" fill="#231f20"/><path d="M223.15 95.16a22.38 22.38 0 01-8.63-2 .51.51 0 01-.23-.67.5.5 0 01.67-.23c.09 0 9 4.24 14.42-.05a.5.5 0 01.7.08.52.52 0 01-.08.71 10.84 10.84 0 01-6.85 2.16z" fill="#231f20"/><path d="M222.82 80.25s-3.72 6.29-2.65 7.81 4.67 1.07 4.67 1.07" fill="#fff"/><path d="M223.64 89.69c-1.26 0-3.08-.21-3.88-1.35-1.16-1.65 1.72-6.81 2.63-8.35a.5.5 0 11.86.51c-1.71 2.89-3.22 6.49-2.67 7.27.73 1 3.28 1 4.2.86a.52.52 0 01.56.43.5.5 0 01-.44.56 10 10 0 01-1.26.07zm24.5-4.96a.52.52 0 01-.21 0l-9.39-4.28a.49.49 0 01-.24-.66.49.49 0 01.66-.25l9.38 4.28a.49.49 0 01.25.66.49.49 0 01-.45.25z" fill="#231f20"/><path d="M241.27 84.9a6.67 6.67 0 012.55-3.3 8.47 8.47 0 016-1.53c2 .4 3.24 2.61 3.41 4.56a7.64 7.64 0 01-1.53 5.07c-2.48 3.41-6.78 4.87-10.62 2.72" fill="#fff"/><path d="M244.89 93.92a8.14 8.14 0 01-4-1.06.5.5 0 01.49-.87c3.38 1.89 7.48.83 10-2.58a7.07 7.07 0 001.44-4.74c-.15-1.78-1.24-3.76-3-4.11A7.93 7.93 0 00244.1 82a6.1 6.1 0 00-2.36 3 .5.5 0 01-.63.31.51.51 0 01-.31-.64 7.09 7.09 0 012.74-3.55 8.83 8.83 0 016.4-1.61c2.26.45 3.63 2.86 3.82 5a8.08 8.08 0 01-1.63 5.49 9 9 0 01-7.24 3.92z" fill="#231f20"/><path d="M291.4 149.27s29.79 51.64 22.47 59.24-52.65 10.38-52.65 10.38l-7.94-24.68 25.72-2.43-15.48-35.07z" fill="#b71440"/><path d="M253.28 194.71a.5.5 0 010-1l24.94-2.37-21.52-42.28a.5.5 0 01.89-.46l21.81 43a.52.52 0 010 .47.48.48 0 01-.39.25l-25.67 2.44zm7.94 24.67a.5.5 0 010-1c.33 0 33.1-1.57 42.69-5.91a.5.5 0 11.41.91c-9.76 4.42-41.7 5.93-43.05 6z" fill="#231f20"/></g></svg>