<svg xmlns="http://www.w3.org/2000/svg" viewBox="0 0 400 300"><g data-name="#288_startup_flatline"><ellipse cx="210.85" cy="251.03" rx="57.4" ry="5.49" fill="#d1d3d4"/><path fill="#fff" d="M192.98 233.34h35.74l4.28-17.17h-44.31l4.29 17.17z"/><path d="M228.72 233.84H193a.51.51 0 01-.49-.38l-4.28-17.17a.48.48 0 01.09-.43.49.49 0 01.39-.19H233a.51.51 0 01.4.19.51.51 0 01.09.43l-4.29 17.17a.49.49 0 01-.48.38zm-35.35-1h35l4-16.17h-43z" fill="#231f20"/><path d="M250.91 162.58s18.72 11.71 25.23 31.22-8.33 57.2-8.33 57.2l-34.07-36.94z" fill="#fff"/><path d="M267.81 251.53a.48.48 0 01-.36-.17l-34.08-36.93a.54.54 0 01-.11-.5l17.17-51.5a.52.52 0 01.31-.32.5.5 0 01.43 0c.19.12 19 12 25.44 31.48 2.73 8.18 2.15 20.36-1.71 36.21a187 187 0 01-6.62 21.36.49.49 0 01-.37.31zM234.31 214l33.32 36.12c2-5.4 13.9-38.53 8-56.13-5.75-17.27-21.39-28.51-24.49-30.6z" fill="#231f20"/><path d="M169.92 162.58s-18.73 11.71-25.23 31.22S153 251 153 251l34.08-36.94z" fill="#fff"/><path d="M153 251.53h-.09a.49.49 0 01-.37-.31 187 187 0 01-6.62-21.36c-3.87-15.85-4.44-28-1.71-36.21 6.48-19.45 25.25-31.36 25.44-31.48a.5.5 0 01.43 0 .52.52 0 01.31.32l17.16 51.5a.51.51 0 01-.1.5l-34.08 36.93a.48.48 0 01-.37.11zm16.64-88.17c-3.09 2.09-18.73 13.33-24.49 30.6-5.87 17.6 6 50.73 8 56.13L186.52 214z" fill="#231f20"/><path d="M180.24 222.67c-9.32-22.28-15.17-54.58-15.17-90.52 0-54.46 30-82.82 41.45-91.63a7.07 7.07 0 018.65 0c11.42 8.81 41.46 37.17 41.46 91.63 0 35.94-5.86 68.24-15.17 90.52 0 0-9.28 4.68-30.61 4.68s-30.61-4.68-30.61-4.68z" fill="#fff"/><path d="M210.85 227.85c-21.21 0-30.45-4.54-30.84-4.73a.47.47 0 01-.23-.25c-9.67-23.13-15.21-56.2-15.21-90.72 0-54.05 29.12-82.36 41.64-92a7.61 7.61 0 019.27 0c12.52 9.67 41.65 38 41.65 92 0 34.52-5.55 67.59-15.21 90.72a.49.49 0 01-.24.25c-.38.19-9.63 4.73-30.83 4.73zm-30.22-5.55c1.32.6 10.78 4.55 30.22 4.55s28.9-3.95 30.22-4.55c9.57-23 15.06-55.84 15.06-90.15 0-53.6-28.86-81.66-41.26-91.23a6.57 6.57 0 00-8 0c-12.41 9.57-41.26 37.62-41.26 91.23-.04 34.31 5.44 67.15 15.02 90.15z" fill="#231f20"/><path d="M215.17 40.52A106.12 106.12 0 01247 82.73h-72.32a106.12 106.12 0 0131.84-42.21 7.07 7.07 0 018.65 0z" fill="#fff"/><path d="M247 83.23h-72.32a.5.5 0 01-.42-.23.49.49 0 010-.47c9.74-22.93 24.23-36.41 32-42.41a7.61 7.61 0 019.27 0c7.77 6 22.26 19.48 32 42.41a.49.49 0 010 .47.5.5 0 01-.53.23zm-71.58-1h70.82c-9.65-22.3-23.78-35.44-31.39-41.31a6.57 6.57 0 00-8 0c-7.64 5.87-21.77 19.01-31.41 41.31z" fill="#231f20"/><path d="M197.87 143.72h22.38v19a3.4 3.4 0 01-3.4 3.4h-15.58a3.4 3.4 0 01-3.4-3.4v-19z" fill="#fff"/><path d="M216.84 166.6h-15.57a3.91 3.91 0 01-3.9-3.91v-19a.5.5 0 01.5-.5h22.38a.5.5 0 01.5.5v19a3.91 3.91 0 01-3.91 3.91zm-18.47-22.38v18.47a2.91 2.91 0 002.9 2.91h15.57a2.92 2.92 0 002.91-2.91v-18.47z" fill="#231f20"/><circle cx="209.06" cy="123.22" r="27.92" fill="#fff"/><path d="M209.06 151.64a28.43 28.43 0 1128.42-28.43 28.46 28.46 0 01-28.42 28.43zm0-55.85a27.43 27.43 0 1027.42 27.42 27.46 27.46 0 00-27.42-27.42z" fill="#231f20"/><circle cx="209.06" cy="123.22" r="17.23" fill="#231f20"/><path d="M209.06 140.94a17.73 17.73 0 1117.72-17.73 17.75 17.75 0 01-17.72 17.73zm0-34.45a16.73 16.73 0 1016.72 16.72 16.74 16.74 0 00-16.72-16.72z" fill="#231f20"/><path d="M195.39 122.12h-.07a.49.49 0 01-.42-.56C196.83 108.3 209 109 209.09 109a.5.5 0 01-.07 1c-.46 0-11.34-.6-13.14 11.73a.5.5 0 01-.49.39zm19.74-10.5a.51.51 0 01-.31-.11 6.11 6.11 0 00-2.59-1.07.5.5 0 01-.43-.56.51.51 0 01.56-.43 7.1 7.1 0 013.07 1.27.5.5 0 01.09.7.5.5 0 01-.39.2zm-31.51 103.3a.49.49 0 01-.47-.34 398.4 398.4 0 01-11.73-46.89.5.5 0 01.4-.58.49.49 0 01.58.4 398.39 398.39 0 0011.69 46.75.5.5 0 01-.31.63zM197.87 160c0-.46 22.38 0 22.38 0" fill="#fff"/><path d="M220.25 160.54c-7.94-.16-20.8-.33-22.11-.07a.5.5 0 01-.6-.8c.19-.19.59-.58 22.73-.13a.5.5 0 010 1z" fill="#231f20"/><path d="M197.87 155c0-.46 22.38 0 22.38 0" fill="#fff"/><path d="M220.25 155.51c-7.94-.16-20.8-.32-22.11-.07a.5.5 0 01-.6-.8c.19-.19.59-.58 22.73-.13a.52.52 0 01.49.51.51.51 0 01-.51.49zM200 165.85h17.73a3.77 3.77 0 01-3.77 3.77h-10.19a3.77 3.77 0 01-3.77-3.77z" fill="#231f20"/><path d="M214 170.12h-10.23a4.27 4.27 0 01-4.27-4.27.5.5 0 01.5-.5h17.73a.5.5 0 01.5.5 4.27 4.27 0 01-4.23 4.27zm-13.42-3.77a3.27 3.27 0 003.23 2.77H214a3.27 3.27 0 003.23-2.77z" fill="#231f20"/><path d="M181.51 204.79s13.12 1.81 17.79 1.21l.76 10.4s-14.32-.19-17.94-2z" fill="#fff"/><path d="M200.06 216.91c-.59 0-14.48-.21-18.16-2a.5.5 0 01-.29-.43l-.6-9.63a.53.53 0 01.16-.41.51.51 0 01.42-.13c.14 0 13.1 1.79 17.66 1.2a.51.51 0 01.39.12.52.52 0 01.19.36l.75 10.4a.51.51 0 01-.14.39.52.52 0 01-.38.13zm-17.45-2.83c3.42 1.42 14.29 1.73 16.89 1.79l-.67-9.31c-4.46.38-14.18-.83-16.76-1.18z" fill="#d1d3d4"/><path d="M82.82 217.43a10.82 10.82 0 005.18 4.65c1.86.78 4 .57 5.93 1 5.53 1.11 11.13.33 16.5-1.23s11.21-4.22 14-9.26a13.25 13.25 0 00-.27-12.94c-.87-1.44-2-2.69-2.93-4.09a29.38 29.38 0 01-3.17-7.31c-1.44-4.54-2.55-9.59-5-13.72a7.17 7.17 0 00-4.59-3.06c-.54-.14-5.85.08-5.6.41-1.1-1.46-3.39-1-5-.19a20 20 0 00-10 11.5c-1.45 4.36-1.34 9.09-2.4 13.56-.83 3.49-2.35 6.77-3.25 10.24s-1.11 7.29.6 10.44z" fill="#fff"/><path d="M99.34 224.07a28 28 0 01-5.48-.53 17.79 17.79 0 00-2.21-.27 12 12 0 01-3.81-.73 11.26 11.26 0 01-5.46-4.87c-1.55-2.85-1.76-6.5-.64-10.84.44-1.66 1-3.29 1.57-4.88A51.11 51.11 0 0085 196.6a51.68 51.68 0 00.93-5.79A39.84 39.84 0 0187.4 183a20.49 20.49 0 0110.21-11.79c1.69-.84 4-1.3 5.38 0a28.63 28.63 0 015.6-.29 7.6 7.6 0 014.89 3.3 46.25 46.25 0 014.08 10.61c.32 1.08.63 2.16 1 3.21a29 29 0 003.11 7.19c.4.6.86 1.2 1.29 1.77a26.31 26.31 0 011.65 2.33 13.72 13.72 0 01.28 13.44c-2.35 4.29-7 7.4-14.26 9.5a40.53 40.53 0 01-11.29 1.8zm1.35-52.68a6.23 6.23 0 00-2.63.71 19.49 19.49 0 00-9.71 11.22 39.31 39.31 0 00-1.44 7.61 54.41 54.41 0 01-.94 5.9 54.15 54.15 0 01-1.71 5.46c-.56 1.56-1.13 3.17-1.55 4.79-.73 2.81-1.22 6.84.55 10.12a10.25 10.25 0 005 4.42 11.39 11.39 0 003.51.66 18.58 18.58 0 012.32.28c4.79 1 10.11.56 16.26-1.22 7-2 11.45-5 13.67-9a12.68 12.68 0 00-.27-12.44 25.08 25.08 0 00-1.58-2.24c-.45-.59-.91-1.2-1.33-1.83a30.09 30.09 0 01-3.24-7.44c-.33-1.06-.65-2.14-1-3.23a45.35 45.35 0 00-4-10.38 6.63 6.63 0 00-4.28-2.84 30.73 30.73 0 00-5.11.26.13.13 0 01-.07.06.5.5 0 01-.7-.09 2.09 2.09 0 00-1.75-.78z" fill="#231f20"/><path d="M126.28 251.82c1 0 8.35.8 11.79 2.51s4.19 1.84 3.49 4.15-6.76 2.88-11.38 2a31 31 0 01-8.51-3.09z" fill="#fff"/><path d="M134.43 261.32a24.49 24.49 0 01-4.33-.38 31.45 31.45 0 01-8.66-3.15.46.46 0 01-.12-.69l4.61-5.57a.42.42 0 01.34-.17c1.07 0 8.48.81 12 2.56l.78.38c2.77 1.36 3.7 1.82 2.95 4.32-.58 1.94-4.06 2.7-7.57 2.7zm-12.05-4.06a30.85 30.85 0 007.89 2.78c4.94.93 10.32.1 10.86-1.69s.3-1.86-2.48-3.23l-.78-.38c-3.16-1.57-9.84-2.4-11.38-2.46z" fill="#231f20"/><path d="M127.27 251.8a2.65 2.65 0 012 3c-.33 2.45-5.51 2.55-5.81 2.56s3.81-5.56 3.81-5.56z" fill="#fff"/><path d="M123.45 257.82a.48.48 0 01-.42-.26c-.16-.3-.24-.47 3.87-6a.46.46 0 01.47-.18 3.08 3.08 0 012.34 3.51c-.36 2.7-5.27 2.94-6.25 3zm4-5.49c-1.28 1.74-2.6 3.59-3.22 4.54 1.89-.15 4.4-.71 4.58-2.13a2.13 2.13 0 00-1.37-2.41z" fill="#231f20"/><path d="M88.84 257.41c-.16.08-1.56 1.91-7.71 2.65s-8.43 2.05-9.8-1.18-.43-5.31 2.6-6.23 11.38-1.69 13-.15 1.91 4.91 1.91 4.91z" fill="#fff"/><path d="M74.36 261.41a3.32 3.32 0 01-3.45-2.35 5.45 5.45 0 01-.3-4.45 4.82 4.82 0 013.19-2.4c3-.9 11.61-1.78 13.46 0s2 5.06 2 5.21a.46.46 0 01-.19.41c-1.88 1.7-5.33 2.41-7.92 2.72-1.32.16-2.45.34-3.45.5a22.24 22.24 0 01-3.34.36zm8-9.34a34.26 34.26 0 00-8.31 1 4 4 0 00-2.61 1.93 4.57 4.57 0 00.31 3.71c.9 2.1 2 2 5.83 1.4 1-.16 2.16-.35 3.5-.51 2.41-.29 5.61-.93 7.28-2.38-.09-.75-.47-3.2-1.73-4.38-.58-.55-2.26-.77-4.26-.77z" fill="#231f20"/><path d="M90.8 256.09s-2.79 2.33-4.65 2.06-4.43-1.29-3.39-3.3 7.69-3.21 7.69-3.21z" fill="#fff"/><path d="M86.46 258.62a2.42 2.42 0 01-.38 0c-.7-.11-3.07-.56-3.81-2a2.06 2.06 0 01.08-2c1.11-2.15 7.32-3.33 8-3.45a.47.47 0 01.54.41l.34 4.46a.42.42 0 01-.16.38c-.07.12-2.62 2.2-4.61 2.2zm3.54-6.44c-2.06.42-6.17 1.51-6.88 2.88a1.18 1.18 0 00-.07 1.13c.43.83 2 1.33 3.13 1.5s3.24-1.12 4.1-1.8zm34.3-15.64s-2.94 11.46-13.67 13.66-16.28 1.61-20.08-5.63-1.29-11.68-1.29-11.68l33.86-.67z" fill="#231f20"/><path d="M101.75 251.83c-5.29 0-8.93-1.85-11.65-7-3.88-7.4-1.38-12-1.27-12.15a.49.49 0 01.42-.26l33.86-.67a.55.55 0 01.5.37l1.17 4.32a.53.53 0 010 .25c0 .12-3.14 11.8-14 14a46.52 46.52 0 01-9.03 1.14zm-12.17-18.44c-.42 1-1.71 5 1.41 10.94 3.77 7.19 9.31 7.47 19.54 5.38 9.7-2 12.89-12 13.25-13.17l-1-3.81z" fill="#231f20"/><path d="M86.71 236.64s-5.55-17.93-4.82-29.16 8.11-12.07 10.6-12.28 16-2.28 21.06 3.66 13.93 33.76 13.93 33.76z" fill="#b71440"/><path d="M106.75 195.23l-.88 6a4.43 4.43 0 01-5.66 1.53c-3.79-1.57-3.86-4.46-3.86-4.46l1.8-11.09a21.76 21.76 0 005.66-10.41s3.34 5.83 8.18 7.14a46.84 46.84 0 01-1.19 7.84c-.8 2.9-3.99 3.42-4.05 3.45z" fill="#fff"/><path d="M102.26 203.71a5.77 5.77 0 01-2.25-.49c-4-1.67-4.15-4.78-4.16-4.91l1.8-11.18a.56.56 0 01.16-.29 21.4 21.4 0 005.51-10.16.49.49 0 01.42-.37.5.5 0 01.5.24c0 .06 3.3 5.67 7.88 6.9a.51.51 0 01.37.52 47 47 0 01-1.21 7.95 5.53 5.53 0 01-4.08 3.71l-.83 5.68a.4.4 0 01-.07.18 5 5 0 01-4.04 2.22zm-3.65-16.25l-1.76 10.92s.14 2.51 3.55 3.92a3.93 3.93 0 005-1.25l.85-5.89a.55.55 0 01.25-.36l.2-.07a4.68 4.68 0 003.62-3.09 44.48 44.48 0 001.14-7.34c-3.6-1.16-6.3-4.58-7.46-6.27a22.13 22.13 0 01-5.39 9.43zm7.26 13.77z" fill="#231f20"/><path d="M100.48 187.38a2.61 2.61 0 00-.65-1.51 4.61 4.61 0 00-1.27-.91 2 2 0 00-.81-.28 1.52 1.52 0 00-.59.12 2 2 0 00-1.1.84 2.37 2.37 0 00-.23 1.12 4.66 4.66 0 00.11 1.24 3.16 3.16 0 003.87 2.28" fill="#fff"/><path d="M99 190.88a3.64 3.64 0 01-3.55-2.76 5.1 5.1 0 01-.13-1.37 2.92 2.92 0 01.29-1.35 2.45 2.45 0 011.39-1.07 2.08 2.08 0 01.78-.15 2.51 2.51 0 011 .34 5.2 5.2 0 011.4 1 3.07 3.07 0 01.78 1.8.5.5 0 11-1 .08 2.09 2.09 0 00-.53-1.21 4.09 4.09 0 00-1.14-.81 1.6 1.6 0 00-.59-.22.81.81 0 00-.4.09 1.5 1.5 0 00-.83.61 2 2 0 00-.17.89 4 4 0 00.1 1.11 2.74 2.74 0 001.23 1.64 2.68 2.68 0 002 .27.51.51 0 01.61.36.49.49 0 01-.35.61 3.71 3.71 0 01-.89.14z" fill="#231f20"/><path d="M105.9 185.67s1.7 3.34 1.14 3.82-1.89 0-1.89 0" fill="#fff"/><path d="M106.34 190.19a3.92 3.92 0 01-1.37-.28.5.5 0 11.36-.93 2.37 2.37 0 001.32.17 10.81 10.81 0 00-1.19-3.25.5.5 0 11.89-.45c1.87 3.69 1.23 4.24 1 4.42a1.54 1.54 0 01-1.01.32z" fill="#231f20"/><ellipse cx="103.28" cy="184.88" rx=".73" ry=".52" transform="rotate(-85.34 103.28 184.881)" fill="#231f20"/><ellipse cx="108.63" cy="185.62" rx=".73" ry=".52" transform="rotate(-85.74 108.622 185.616)" fill="#231f20"/><path d="M105.46 192.86a4.45 4.45 0 01-2-.45 4.29 4.29 0 01-2.11-3.27.5.5 0 111-.17 3.33 3.33 0 001.59 2.55c1.68.88 4.11-.21 4.13-.22a.52.52 0 01.67.25.51.51 0 01-.25.66 7.92 7.92 0 01-3.03.65zm1.29 2.37s-3.86.32-5.88-1.26c0 0 1.7 5.39 5.28 5.38z" fill="#231f20"/><path d="M106.13 199.85c-3.88 0-5.66-5.49-5.74-5.73a.52.52 0 01.2-.56.5.5 0 01.59 0c1.84 1.44 5.49 1.16 5.53 1.15a.52.52 0 01.4.16.45.45 0 01.13.41l-.6 4.12a.49.49 0 01-.51.45zm-4.26-4.75c.66 1.39 1.95 3.45 3.85 3.72l.45-3.06a11.86 11.86 0 01-4.3-.66z" fill="#231f20"/><path d="M85.36 198.09c-3.07.61-12.55 30.92-8.21 34.13 6.78 5 27.46-1.83 27.46-1.83l-2.07-8.92s-14.93.71-15.2-2.35 8.34-17.43 7.13-19.53-9.11-1.5-9.11-1.5z" fill="#b71440"/><path d="M101 224.5a34.74 34.74 0 007.42-.5 22.35 22.35 0 015.54-.75 20.79 20.79 0 017.18 1.49.54.54 0 01.25.16c.22.3-.29.61-.67.62a9.69 9.69 0 01-2.93-.31 28.54 28.54 0 016.68 3.38c.24.16.5.42.39.69s-.58.22-.89.09l-5.4-2.37a13.68 13.68 0 013.84 2.23c.16.14.34.32.3.53-.07.37-.61.31-.94.15a31.14 31.14 0 01-4.7-2.74l3.35 2.46c0 .27-.23.5-.5.52a1.56 1.56 0 01-.77-.25l-3.72-2.06 2.33 1.57c.37.24.78.64.61 1.05s-.9.34-1.38.14a27.82 27.82 0 00-5.94-1.7 9.27 9.27 0 00-2.19-.4 19.78 19.78 0 00-3.34.8c-1.65.4-3.31.82-5 1.24" fill="#fff"/><path d="M117.78 231.27a2.67 2.67 0 01-1-.22 27.45 27.45 0 00-5.84-1.67c-.26 0-.51-.12-.76-.18a4.24 4.24 0 00-1.33-.21 9.21 9.21 0 00-2.2.49c-.36.1-.71.21-1.05.29l-4.92 1.23a.45.45 0 01-.56-.33.46.46 0 01.33-.55l5-1.25c.33-.08.66-.18 1-.28a10.4 10.4 0 012.41-.52 5 5 0 011.61.23 5.49 5.49 0 00.7.17 28.06 28.06 0 016 1.73 1.36 1.36 0 00.76.13c0-.08-.06-.28-.43-.53l-2.32-1.56a.46.46 0 01.47-.78l3.72 2.06a2 2 0 00.3.14l-2.87-2.1a.47.47 0 01-.1-.64.46.46 0 01.64-.1 31.33 31.33 0 004.62 2.7h.09a13.34 13.34 0 00-2.47-1.59l-1.19-.52a.45.45 0 01-.24-.59.46.46 0 01.58-.26c.42.16.84.34 1.24.54l4.17 1.81h.08a27.41 27.41 0 00-6.57-3.32.46.46 0 01.27-.88 9.37 9.37 0 002.79.3 21 21 0 00-6.81-1.36 18.84 18.84 0 00-4.74.6l-.68.14a35.1 35.1 0 01-7.48.61.44.44 0 01-.44-.46.46.46 0 01.46-.45 34.87 34.87 0 007.32-.5l.68-.14a20.35 20.35 0 015-.62 21.22 21.22 0 017.35 1.53 1 1 0 01.44.31.67.67 0 01.07.72 1.26 1.26 0 01-1 .62 29.54 29.54 0 013.89 2.25c.75.51.63 1 .55 1.23a.76.76 0 01-.43.43 1.48 1.48 0 01-1.06-.09l-.64-.28a.91.91 0 010 .37.76.76 0 01-.41.54 1.42 1.42 0 01-1.18-.07c-.24-.11-.49-.23-.73-.36a.76.76 0 01-.15.26 1 1 0 01-.75.38 1.94 1.94 0 01-1-.3h-.06a1.05 1.05 0 01-.07.37.93.93 0 01-.53.52 1.16 1.16 0 01-.53.01z" fill="#231f20"/><path d="M112 201.43c.84.82 3.18 13.91 4.06 20.1" fill="#fff"/><path d="M116.05 222a.45.45 0 01-.45-.39c-1-6.84-3.22-19-3.93-19.84a.45.45 0 010-.65.46.46 0 01.65 0c1.11 1.08 3.65 16.51 4.19 20.36a.45.45 0 01-.38.52zm-22.69 11.8a.5.5 0 01-.49-.4.5.5 0 01.4-.59l6.82-1.31.06-7.82-13-1.08a.52.52 0 01-.37-.22.5.5 0 01-.07-.41l5.45-20.29a.5.5 0 01.61-.35.48.48 0 01.35.61l-5.29 19.71 12.88 1.07a.5.5 0 01.46.5l-.06 8.69a.5.5 0 01-.41.49l-7.22 1.39z" fill="#231f20"/><path fill="#fff" d="M133.58 235.9l6.29-16.83-25.69.51-5.76 19.2 25.16-2.88z"/><path d="M108.42 239.27a.49.49 0 01-.38-.18.51.51 0 01-.1-.46l5.76-19.19a.51.51 0 01.47-.36l25.69-.51a.52.52 0 01.42.21.56.56 0 01.06.47l-6.29 16.83a.52.52 0 01-.42.32l-25.15 2.87zm6.14-19.2l-5.44 18.12 24.1-2.75 5.92-15.86zm19 15.83z" fill="#231f20"/><path d="M132.21 236.06s7 5.66 4.5 10.85S89.76 258 89.76 258l-2-6.78s34.92-17.81 44.45-15.16z" fill="#231f20"/><path d="M89.76 258.53a.5.5 0 01-.48-.36l-2-6.78a.51.51 0 01.25-.59c1.44-.73 35.21-17.89 44.82-15.22a.51.51 0 01.18.09c.3.24 7.25 6 4.64 11.45-2.51 5.29-42.75 10.79-47.34 11.4zm-1.41-7l1.77 6c17.77-2.39 44.43-7.19 46.14-10.78 2.13-4.49-3.54-9.55-4.29-10.19-8.85-2.32-39.87 13.06-43.62 14.94z" fill="#231f20"/><path d="M85.44 233.46s34.58 14 43.16 17.67l-5 7.71s-31.93-.62-41.09-8.65-8.51-21.38 2.93-16.73z" fill="#231f20"/><path d="M123.61 259.34c-1.31 0-32.22-.72-41.41-8.77-6-5.3-7.76-12.66-5.57-16.22 1.57-2.54 4.86-3 9-1.36.34.14 34.68 14 43.16 17.68a.52.52 0 01.29.31.52.52 0 01-.06.42l-5 7.71a.5.5 0 01-.41.23zM81.2 233a4.07 4.07 0 00-3.72 1.88c-2 3.2-.29 10 5.37 14.94 8.47 7.42 37.34 8.43 40.49 8.51l4.52-7c-9.31-4-42.27-17.29-42.61-17.43a10.93 10.93 0 00-4.05-.9z" fill="#231f20"/><path d="M133.7 229.18a1.31 1.31 0 00.25.55l.67 1a.73.73 0 00-1-.5 1.18 1.18 0 00-.61 1.06 3.23 3.23 0 00.3 1.26c.47 1.24 1.56 3.06 3.12 2.12 1.06-.64 1.36-2.89 1.51-4 .29-2.21-.38-5-3.22-4.61a5.41 5.41 0 001.17 3c-.46-.49-2.32-1.18-2.19.12z" fill="#fff"/><path d="M135.58 235.38a1.7 1.7 0 01-.59-.1 4.29 4.29 0 01-2.11-2.57 3.81 3.81 0 01-.33-1.43 1.6 1.6 0 01.89-1.47 1.3 1.3 0 01-.21-.58 1 1 0 01.55-1.14 1.59 1.59 0 01.95-.08 5.59 5.59 0 01-.48-1.93.44.44 0 01.38-.48 3 3 0 012.67.74c1.08 1.06 1.26 3 1.07 4.38s-.49 3.59-1.72 4.34a2.17 2.17 0 01-1.07.32zm-1.67-4.75h-.1a.73.73 0 00-.35.65 3.27 3.27 0 00.27 1.09 3.36 3.36 0 001.56 2 1 1 0 00.91-.15c.86-.51 1.15-2.7 1.28-3.63a4.61 4.61 0 00-.8-3.65 2 2 0 00-1.45-.53 5 5 0 001 2.28.48.48 0 01-.06.63.46.46 0 01-.62 0 1.89 1.89 0 00-1.38-.43c-.05 0 0 .16 0 .22a.91.91 0 00.18.33l.33.5a1 1 0 01.42.71.47.47 0 01-.3.48.46.46 0 01-.54-.18l-.22-.33z" fill="#231f20"/><path d="M124 249.83a.63.63 0 01-.19 0c-.75-.3-18.6-7.21-22.64-9.68a.52.52 0 11.54-.88c4 2.43 22.29 9.52 22.48 9.59a.53.53 0 01.29.67.5.5 0 01-.48.3z" fill="#fff"/><path d="M318.77 259.73a1.5 1.5 0 01-1.45-1.1l-48.9-175.56a1.5 1.5 0 012.9-.8l48.89 175.56a1.49 1.49 0 01-1 1.85 1.83 1.83 0 01-.44.05zm-35.3 0a1.48 1.48 0 01-1.44-1.1l-48.9-175.56a1.5 1.5 0 012.89-.8l48.9 175.56a1.51 1.51 0 01-1.05 1.85 1.83 1.83 0 01-.4.05z" fill="#231f20"/><path d="M272.88 97.21h-34.67a1.5 1.5 0 010-3h34.67a1.5 1.5 0 010 3zm5.24 18.79h-34.67a1.5 1.5 0 010-3h34.67a1.5 1.5 0 010 3zm5.24 18.84h-34.67a1.5 1.5 0 010-3h34.67a1.5 1.5 0 010 3zm5.24 18.82h-34.67a1.5 1.5 0 010-3h34.67a1.5 1.5 0 010 3zm5.24 18.81h-34.67a1.5 1.5 0 010-3h34.67a1.5 1.5 0 010 3zm5.24 18.82h-34.67a1.5 1.5 0 010-3h34.67a1.5 1.5 0 010 3zm5.24 18.82h-34.67a1.5 1.5 0 010-3h34.67a1.5 1.5 0 110 3zm5.24 18.81h-34.67a1.5 1.5 0 010-3h34.67a1.5 1.5 0 010 3zm5.24 18.82h-34.67a1.5 1.5 0 010-3h34.67a1.5 1.5 0 010 3z" fill="#231f20"/><path d="M293.49 104.44s-5.93-7.87-3.51-13.08c0 0-2.22-.69-.11-3.4a11.09 11.09 0 0113.67-2.61l-2 1a7.71 7.71 0 019.09 3.72l-2.22.81-1.3 10.87z" fill="#fff"/><path d="M293.49 104.9a.44.44 0 01-.36-.19c-.25-.32-5.78-7.76-3.74-13.13a1.88 1.88 0 01-.8-1 3.29 3.29 0 01.92-2.89 11.6 11.6 0 0114.23-2.74.44.44 0 01.26.4.46.46 0 01-.06.23 8 8 0 017.13 4.27.46.46 0 010 .38.48.48 0 01-.28.28l-1.95.71-1.27 10.6a.46.46 0 01-.36.39l-13.67 2.69zm4.75-20.36a10.38 10.38 0 00-8 3.7c-.66.85-.93 1.55-.78 2.05a1.12 1.12 0 00.65.64.44.44 0 01.28.25.47.47 0 010 .37c-2.05 4.43 2.37 11.07 3.3 12.38l13.06-2.56L308 90.82a.44.44 0 01.3-.37l1.69-.62a7.16 7.16 0 00-8.24-3 .46.46 0 01-.58-.25.46.46 0 01.21-.58l1.1-.57a11.41 11.41 0 00-4.24-.89z" fill="#231f20"/><rect x="315.42" y="170.32" width="3.9" height="29.09" rx="1.87" transform="rotate(-171.29 317.368 184.871)" fill="#fff"/><path d="M315.54 199.74h-.53a2.32 2.32 0 01-1.94-2.64l3.84-25.1a2.3 2.3 0 01.92-1.51 2.33 2.33 0 011.73-.43h.17a2.32 2.32 0 011.94 2.64l-3.84 25.08a2.3 2.3 0 01-.92 1.52 2.34 2.34 0 01-1.37.44zm-.39-1h.17a1.42 1.42 0 001.61-1.18l3.84-25.07a1.39 1.39 0 00-.26-1.05 1.42 1.42 0 00-.92-.56h-.17a1.41 1.41 0 00-1.05.25 1.37 1.37 0 00-.55.92L314 197.17a1.42 1.42 0 001.18 1.61z" fill="#231f20"/><path d="M318.77 158.51s-4.54 16.67-2.59 15.83c2.2-1 3.39-6 3.39-6s1.65 2.81 1.65 4.32-2.1 6.72-.44 7.06 5.73-8.4 5.27-10.42a26.09 26.09 0 00-1.8-4.73l.75-4.67" fill="#fff"/><path d="M320.88 180.15a.58.58 0 01-.19 0 1 1 0 01-.73-.51c-.55-.86-.2-2.55.37-4.83a12.75 12.75 0 00.43-2.17 8.77 8.77 0 00-1.05-3.09c-.51 1.61-1.62 4.48-3.35 5.23a.72.72 0 01-.76-.1c-1.2-1 1.19-10.64 2.73-16.27a.45.45 0 01.56-.32.46.46 0 01.32.56c-1.79 6.56-3.35 13.8-3 15.2 1.54-.87 2.65-4.32 3-5.62a.45.45 0 01.37-.35.47.47 0 01.47.22c.07.12 1.71 2.93 1.71 4.54a12.84 12.84 0 01-.46 2.39c-.35 1.4-.88 3.52-.49 4.13a.2.2 0 00.14.1s.19 0 .62-.43c1.94-2 4.43-8 4.12-9.44a26.17 26.17 0 00-1.77-4.62.47.47 0 010-.28l.76-4.68a.46.46 0 01.52-.37.45.45 0 01.38.52l-.73 4.53a26 26 0 011.78 4.7c.43 1.91-2.49 8.38-4.36 10.28a1.87 1.87 0 01-1.39.68zm-4.65-6.15z" fill="#231f20"/><path d="M278.23 179.7l3.63 9s-10.63 4.16-13.51 4.77-3-.7.9-4.27c3-2.79 4.17-3.16 4.17-3.16l-1.94-3.49z" fill="#fff"/><path d="M267.21 194.09a1.34 1.34 0 01-1.29-.59c-.3-.58-.23-1.62 3-4.62a21.38 21.38 0 013.85-3l-1.71-3.06a.5.5 0 010-.38.44.44 0 01.25-.27l6.75-2.86a.53.53 0 01.35 0 .44.44 0 01.25.25l3.64 9a.47.47 0 010 .35.51.51 0 01-.25.25c-.44.17-10.7 4.18-13.58 4.79a6.18 6.18 0 01-1.26.14zm4.92-11.3l1.69 3a.45.45 0 010 .39.46.46 0 01-.29.27s-1.15.42-4 3.06c-3.07 2.83-2.84 3.52-2.83 3.53s.23.23 1.53 0c2.48-.53 11-3.8 13-4.59l-3.23-8.14z" fill="#231f20"/><path d="M295.69 216.88a17.88 17.88 0 01-.41 5.36 20.61 20.61 0 00-1 7.22c.25 1.93 2.31 4.25 4.35 3.31s2.84-6.81 2.77-8.39a42.25 42.25 0 01.18-7.86z" fill="#fff"/><path d="M297.61 233.44a3 3 0 01-1.46-.4 5 5 0 01-2.37-3.52c-.32-2.47.73-6.3 1.06-7.41a17.69 17.69 0 00.4-5.2.44.44 0 01.11-.33.43.43 0 01.32-.16l5.83-.35a.42.42 0 01.37.16.45.45 0 01.1.39 40.53 40.53 0 00-.17 7.57v.17c.05 1.23-.6 7.69-3 8.82a2.83 2.83 0 01-1.19.26zm-1.43-16.14a17.31 17.31 0 01-.46 5.07 20.28 20.28 0 00-1 7 4 4 0 001.9 2.84 1.88 1.88 0 001.79.11c1.7-.79 2.59-6.24 2.52-8v-.16A46.6 46.6 0 01301 217z" fill="#231f20"/><path d="M311.78 139.89c-1.07-.67-25.08 4.59-25.08 4.59s-29.1 5.26-28.33 12.56S271 184 271 184l8.95-2.45-7.88-19h17.79s6.14 43.45 4.39 56.32l8.72 1.36z" fill="#231f20"/><path d="M303 220.67h-.07l-8.71-1.36a.43.43 0 01-.37-.49c1.59-12.07-3.74-51.48-4.33-55.79h-16.78l7.63 18.35a.48.48 0 010 .37.49.49 0 01-.28.23l-8.95 2.44a.45.45 0 01-.5-.19c-.48-.81-11.92-19.82-12.69-27.12-.81-7.62 27.47-12.82 28.68-13 7.25-1.59 24.28-5.23 25.39-4.53a.44.44 0 01.2.42l-8.8 80.33a.53.53 0 01-.17.31.46.46 0 01-.25.03zm-8.23-2.17l7.84 1.22 8.71-79.46c-2.43 0-16 2.79-24.5 4.65-8 1.45-28.58 6.43-28 12.08.71 6.64 10.95 24 12.41 26.47l8.14-2.22-7.69-18.51a.46.46 0 010-.41.46.46 0 01.37-.2h17.8a.45.45 0 01.43.38c.28 1.78 5.98 42.7 4.46 56z" fill="#231f20"/><path d="M310.94 162.35l-33.22-17s8.83-29.36 12.89-33.7 20.53-2.13 22.94 2.13-.41 32.27-2.61 48.57z" fill="#b71440"/><path d="M295.89 107.22l-.4 5.65a3 3 0 003.88 2.46 7.16 7.16 0 004.83-3.77s.87-13.56 1.16-17.14a18.17 18.17 0 01-7.12-2.42 4.35 4.35 0 00-1.06-.61c-.7-.11-.61.29-.93.89a5.45 5.45 0 01-2.57 2.47.84.84 0 00-.36.25.65.65 0 00-.08.31c-.36 3.23-1 6.45-.56 9.7.38 2.69 3.21 2.21 3.21 2.21z" fill="#fff"/><path d="M298.37 115.9a3.24 3.24 0 01-1.95-.59 3.7 3.7 0 01-1.38-2.38l.36-5.22a3.49 3.49 0 01-2-.6 3 3 0 01-1.14-2 28.58 28.58 0 01.31-7.74c.09-.69.18-1.38.25-2.07a1.27 1.27 0 01.15-.49 1.13 1.13 0 01.55-.43 5.06 5.06 0 002.37-2.27 3.05 3.05 0 00.15-.35 1 1 0 011.25-.78 2.48 2.48 0 01.93.47l.28.19a17.54 17.54 0 006.9 2.36.47.47 0 01.31.16.44.44 0 01.11.33c-.29 3.55-1.16 17-1.17 17.14a.28.28 0 010 .15 7.5 7.5 0 01-5.15 4 5.39 5.39 0 01-1.13.12zm-2.42-3a2.89 2.89 0 001 1.67 2.82 2.82 0 002.31.31 6.73 6.73 0 004.48-3.44c.07-1.12.82-12.68 1.12-16.61a19.27 19.27 0 01-6.86-2.44l-.37-.24a2.48 2.48 0 00-.53-.32.67.67 0 00-.19 0 1.64 1.64 0 01-.08.22c-.05.13-.11.28-.19.44a5.92 5.92 0 01-2.79 2.67.75.75 0 00-.17.1.46.46 0 010 .1c-.08.7-.17 1.39-.26 2.09a27.65 27.65 0 00-.3 7.49 2 2 0 00.77 1.44 2.84 2.84 0 001.91.4.44.44 0 01.38.11.44.44 0 01.15.37l-.33 5.64z" fill="#231f20"/><path d="M295.74 110a5.5 5.5 0 003.87-1.19 4 4 0 001.45-3 11.11 11.11 0 01-5.17 1.4z" fill="#231f20"/><path d="M296.15 110.46h-.45a.45.45 0 01-.4-.46l.15-2.78a.45.45 0 01.45-.42 10.86 10.86 0 004.94-1.34.44.44 0 01.66.34 4.39 4.39 0 01-1.6 3.35 5.66 5.66 0 01-3.75 1.31zm.15-2.8l-.09 1.91a4.76 4.76 0 003.1-1.09 4 4 0 001.21-1.9 10.81 10.81 0 01-4.22 1.08z" fill="#231f20"/><path d="M298.67 98.33s-2 2.61-1.58 3.1 1.63.27 1.63.27" fill="#fff"/><path d="M298.09 102.2a1.69 1.69 0 01-1.35-.49c-.15-.19-.62-.77 1.58-3.65a.45.45 0 01.71.54 9.36 9.36 0 00-1.55 2.6 2.08 2.08 0 001.16.06.43.43 0 01.51.35.44.44 0 01-.35.52 3.78 3.78 0 01-.71.07zm-.62-1z" fill="#231f20"/><ellipse cx="296.33" cy="97.33" rx=".59" ry=".31" transform="rotate(-84.13 296.337 97.33)" fill="#231f20"/><ellipse cx="301.59" cy="97.51" rx=".59" ry=".31" transform="rotate(-88.09 301.583 97.515)" fill="#231f20"/><path d="M304.14 99.68c.66-.81 1.69-2.29 2.91-1.74a2.06 2.06 0 01.81.68 3.65 3.65 0 01-.07 4.09c-.65 1.09-2.55 2.69-3.69 1.2" fill="#fff"/><path d="M305.24 105a1.87 1.87 0 01-1.51-.79.46.46 0 01.73-.55.92.92 0 00.84.43 3.59 3.59 0 002.19-5.16 1.66 1.66 0 00-.62-.55c-.74-.33-1.47.48-2.21 1.41l-.16.2a.46.46 0 11-.71-.57l.15-.2c.69-.87 1.85-2.31 3.3-1.67a2.46 2.46 0 011 .83 4.06 4.06 0 010 4.6 4.2 4.2 0 01-2.82 2zm-7.02-.12a3.53 3.53 0 01-2.59-1.26.45.45 0 11.65-.61 2.6 2.6 0 002.06 1 4.45 4.45 0 002.76-1.69.44.44 0 01.62-.08.43.43 0 01.08.62 5.31 5.31 0 01-3.42 2z" fill="#231f20"/><path d="M313.55 113.75s10.11 6.68 15.07 22.06c2.41 7.48-2.49 27.5-2.49 27.5l-9.29-3.77s2.48-15.38 2-17.43-13.2-16.2-13.2-16.2z" fill="#b71440"/><path d="M262.07 115.86s-8.5-7.85-9.29-7.65-4.46 2.6-4.38 3.3.13 1.42.13 1.42a5.65 5.65 0 011.92-.18 24.33 24.33 0 012 2.41c.47.6-2.16 1.21-2.16 1.21a19.4 19.4 0 003.19.79 19.73 19.73 0 013.89 1.39z" fill="#fff"/><path d="M257.32 119a.49.49 0 01-.2-.05 18.54 18.54 0 00-3.73-1.35 19.57 19.57 0 01-3.3-.8.47.47 0 01-.31-.46.46.46 0 01.35-.42 7 7 0 001.79-.64l-.14-.19c-.34-.45-1.35-1.79-1.58-2a10 10 0 00-1.57.25.47.47 0 01-.56-.42s0-.71-.12-1.39c-.15-1.2 4.17-3.66 4.72-3.8.26-.06 1-.26 9.71 7.75a.46.46 0 01-.08.74l-4.76 2.78a.46.46 0 01-.22 0zm-5.51-2.65a9.52 9.52 0 001.65.34 17.07 17.07 0 013.83 1.34l4-2.27c-3.67-3.37-7.68-6.8-8.48-7.09-.86.29-3.78 2.31-4 2.85 0 .29.07.59.09.84 1.35-.25 1.65-.07 1.75 0a12.93 12.93 0 011.82 2.19l.25.33a.71.71 0 01.12.66 1.83 1.83 0 01-1.03.82zm.23-.92z" fill="#231f20"/><path d="M291.93 110.93s-15.92 9.95-18.29 9.39-13.11-6.56-13.11-6.56l-4.59 5.24s11.08 12.51 16.45 11.14 19.4-9.44 19.4-9.44z" fill="#b71440"/><path d="M290.94 113.38s-8.19 17.22-11.51 26.45" fill="#fff"/><path d="M279.43 140.29a.4.4 0 01-.15 0 .46.46 0 01-.28-.58c3.29-9.15 11.44-26.32 11.53-26.5a.46.46 0 01.82.4c-.08.17-8.21 17.3-11.49 26.4a.46.46 0 01-.43.28z" fill="#231f20"/><path d="M318.79 142.11s-9.24-12.21-13.2-16.2" fill="#fff"/><path d="M318.79 142.57a.47.47 0 01-.37-.19c-.09-.12-9.26-12.23-13.15-16.14a.46.46 0 01.65-.65c3.93 4 12.85 15.74 13.23 16.24a.46.46 0 01-.09.64.41.41 0 01-.27.1zM166.43 252.93a10.73 10.73 0 01-6.53-1.93c-2.43-1.81-3.93-4.89-4.46-9.18-.83-6.75-3.2-11.64-7-14.53a14.84 14.84 0 00-10.32-2.74.49.49 0 01-.57-.41.51.51 0 01.41-.58 15.59 15.59 0 0111.04 2.93c4.08 3.06 6.59 8.18 7.45 15.22.5 4 1.86 6.86 4.06 8.5 3.3 2.45 7.81 1.68 10.23 1.27.45-.08.84-.15 1.14-.18 8.83-1 10.66-18.52 12.14-32.61.35-3.34.68-6.49 1.08-9.23a.5.5 0 011 .15c-.4 2.72-.73 5.86-1.08 9.18-1.51 14.45-3.39 32.43-13 33.5l-1.08.17a25.53 25.53 0 01-4.51.47z" fill="#231f20"/><path fill="#fff" d="M74.35 78.95h79.9v60.99h-79.9z"/><path d="M154.25 140.46h-79.9a.51.51 0 01-.51-.51V79a.51.51 0 01.51-.51h79.9a.51.51 0 01.52.51v61a.51.51 0 01-.52.46zm-79.38-1h78.87v-60H74.87z" fill="#d1d3d4"/><circle cx="192.66" cy="210.97" r="2.13" fill="#b71440"/><path d="M144.5 129.45H86.16a.51.51 0 01-.52-.51V87.49a.52.52 0 111 0v40.93h57.86a.52.52 0 010 1z" fill="#d1d3d4"/><path d="M86.16 129.45a.69.69 0 01-.24 0 .52.52 0 01-.22-.7C86 128 94.09 112.4 102 115a16.63 16.63 0 015.51 3.39c3.08 2.58 4.94 4.14 11.87-2.26 5.3-4.9 7.83-10.72 9.86-15.4s3.7-8.53 7.27-9.76a.51.51 0 11.34 1c-3.14 1.09-4.69 4.67-6.66 9.2-2.07 4.77-4.65 10.7-10.11 15.74-7.23 6.69-9.74 5.23-13.23 2.3a15.74 15.74 0 00-5.18-3.2c-7-2.38-14.93 13-15 13.15a.51.51 0 01-.51.29z" fill="#d1d3d4"/><path fill="#fff" d="M135.5 148.18h39.74v28.35H135.5z"/><path d="M175.24 177H135.5a.51.51 0 01-.51-.51v-28.31a.51.51 0 01.51-.52h39.74a.52.52 0 01.52.52v28.35a.51.51 0 01-.52.47zM136 176h38.71v-27.31H136z" fill="#d1d3d4"/><path d="M150.08 171.86a9.51 9.51 0 110-19 9.41 9.41 0 015.38 1.68.51.51 0 01.14.71l-4.54 6.61h8a.51.51 0 01.52.51 9.52 9.52 0 01-9.5 9.49zm0-18a8.48 8.48 0 108.46 9h-8.46a.52.52 0 01-.46-.28.51.51 0 010-.53l4.8-7a8.4 8.4 0 00-4.34-1.18z" fill="#d1d3d4"/><path d="M159.07 153.86l-4.69 6.14h7.91a7.56 7.56 0 00-3.22-6.14zm12.19 11.2h-9a.52.52 0 010-1h9a.52.52 0 110 1zm-3.05 3.61h-5.92a.52.52 0 010-1h5.92a.52.52 0 110 1z" fill="#d1d3d4"/></g></svg>