<svg xmlns="http://www.w3.org/2000/svg" viewBox="0 0 400 300"><g data-name="#118_team_work_flatline"><path d="M274.78 232.66v7.79h-24.33s9.48-4.26 11.26-4.82l-1.19-6.57z" fill="#fff"/><path d="M274.78 240.91h-24.33a.45.45 0 01-.45-.36.44.44 0 01.26-.51c.36-.17 8.49-3.82 10.93-4.72l-1.12-6.18a.45.45 0 01.14-.42.49.49 0 01.42-.11l14.26 3.6a.46.46 0 01.35.45v7.79a.46.46 0 01-.46.46zm-22.19-.91h21.74v-7l-13.24-3.34 1.07 5.88a.45.45 0 01-.31.51c-1.25.41-6.39 2.67-9.26 3.95z" fill="#231f20"/><path fill="#fff" d="M260.52 240.7H152.21l54.15-41.38 54.16 41.38z"/><path d="M260.52 241.2H152.21a.5.5 0 01-.3-.9l54.15-41.38a.53.53 0 01.61 0l54.15 41.38a.5.5 0 01.17.56.51.51 0 01-.47.34zm-106.83-1H259L206.36 200z" fill="#d1d3d4"/><path d="M364.29 241H35.71a.5.5 0 01-.5-.5.5.5 0 01.5-.5h328.58a.5.5 0 01.5.5.5.5 0 01-.5.5z" fill="#d1d3d4"/><path fill="#fff" d="M338.49 225.68l7.61 9.8-3.75 5.05h20.64l-8.55-13.82-15.95-1.03z"/><path d="M363 241h-20.65a.46.46 0 01-.37-.73l3.54-4.76-7.39-9.51a.48.48 0 01-.05-.5.51.51 0 01.44-.24l15.94 1a.45.45 0 01.36.21l8.56 13.82a.45.45 0 010 .46.46.46 0 01-.38.25zm-19.73-.91h18.91l-8-12.92-14.7-1 7 9a.45.45 0 010 .55z" fill="#231f20"/><path d="M279.8 154.69s-24.8 32.42-27.2 39.79c-1.43 4.48 7.5 36.64 7.5 36.64l14.68 1.54s-2.29-28.64-.55-33.34 20.66-22.82 20.66-22.82l43.6 51.81 18-1.3-49.37-80.82z" fill="#231f20"/><path d="M274.78 233.16l-14.68-1.53a.5.5 0 01-.43-.36c-.37-1.32-9-32.37-7.5-36.93 2.35-7.37 26.26-38.62 27.28-40a.49.49 0 01.25-.17l27.34-8.5a.5.5 0 01.57.21l49.37 80.83a.5.5 0 010 .49.54.54 0 01-.41.27l-18 1.3a.54.54 0 01-.42-.18l-43.25-51.4c-2.69 2.6-18.6 18.08-20.15 22.26-1.68 4.55.56 32.84.58 33.13a.48.48 0 01-.15.39.47.47 0 01-.4.19zm-14.29-2.5l13.75 1.44c-.33-4.26-2.11-28.53-.48-32.95 1.77-4.76 20-22.27 20.78-23a.46.46 0 01.38-.14.5.5 0 01.35.18l43.44 51.61 16.94-1.22-48.74-79.79-26.81 8.34c-1.7 2.21-24.8 32.53-27 39.51-1.1 3.51 4.9 26.87 7.39 36.02z" fill="#231f20"/><path d="M266 117.54c1.67-1.75-4.35-.39-4.91 11.09-.43 8.77-1 20.25-1 20.25l-23.9 5.38-2.65 10s34.48-5 35-6c7.34-13.87-2.54-40.72-2.54-40.72z" fill="#fff"/><path d="M233.55 164.74a.49.49 0 01-.34-.15.47.47 0 01-.1-.42l2.65-10a.49.49 0 01.34-.33l23.56-5.3 1-19.9c.41-8.3 3.7-11.75 5.23-12.12a.69.69 0 01.81.26.78.78 0 01-.15.89 106.21 106.21 0 014 15c2.08 11.31 1.57 20-1.52 25.85-.42.8-12.31 2.91-35.34 6.26zm3-10.1l-2.41 9.09c13.16-1.92 32.44-4.95 34-5.77 7.05-13.55-2.52-40-2.62-40.26-1.17.87-3.66 3.85-4 11l-1 20.24a.45.45 0 01-.36.42zm31.91 3.68z" fill="#231f20"/><path d="M159.1 114.54s5.34 1.94 7 1.62 4.83-2.42 5-1.54-2.18 2.21-2.18 2.21 9.28-.24 9.19 1.35-2.29 5.13-3.89 5.3-17-1.38-17-1.38" fill="#fff"/><path d="M173.88 124c-2.88 0-16.14-1.34-16.73-1.4a.5.5 0 11.1-1c4.27.43 15.65 1.53 16.92 1.38s3.37-3.34 3.45-4.84c-.34-.53-4.32-.94-8.68-.82a.49.49 0 01-.49-.37.5.5 0 01.23-.57 6.78 6.78 0 001.82-1.38 13.88 13.88 0 00-1.69.7 12.58 12.58 0 01-2.6 1c-1.76.33-6.72-1.44-7.28-1.65a.5.5 0 11.34-.93c1.45.52 5.5 1.84 6.75 1.6a13.06 13.06 0 002.37-.92c1.49-.69 2.3-1 2.83-.75a.73.73 0 01.38.53c.11.62-.41 1.26-1 1.78 2.53 0 6.81.17 7.78 1.18a.94.94 0 01.28.72c-.09 1.63-2.37 5.55-4.34 5.77z" fill="#231f20"/><path fill="#fff" d="M164.88 58.43h82.97v62.36h-82.97z"/><path d="M247.85 121.28h-83a.5.5 0 01-.5-.5V58.43a.5.5 0 01.5-.5h83a.5.5 0 01.5.5v62.35a.5.5 0 01-.5.5zm-82.47-1h82V58.93h-82z" fill="#d1d3d4"/><path d="M112.86 144.9l19.4 49.9.54 36.2h-9.29L118 197.17l-19.23-26s-11.31 20.81-14.29 25.41A129.35 129.35 0 0152.69 230h-9.47s30-51.6 31.53-65 8.41-28.5 8.41-28.5z" fill="#231f20"/><path d="M132.8 231.5h-9.29a.5.5 0 01-.49-.42l-5.49-33.71-18.69-25.32c-2 3.65-11.28 20.66-13.93 24.75A130.89 130.89 0 0153 230.36a.47.47 0 01-.28.09h-9.5a.51.51 0 01-.44-.26.52.52 0 010-.5c.3-.51 30-51.65 31.47-64.8 1.52-13.33 8.37-28.5 8.44-28.65a.5.5 0 01.59-.28l29.72 8.46a.5.5 0 01.33.29l19.39 49.91a1.16 1.16 0 010 .18l.58 36.2a.51.51 0 01-.5.51zm-8.86-1h8.35l-.53-35.6-19.27-49.59-29-8.27c-1.08 2.46-6.82 16-8.19 28-1.44 12.63-27.32 57.79-31.16 64.45h8.44a130.33 130.33 0 0031.54-33.19c2.93-4.54 14.16-25.17 14.27-25.38a.5.5 0 01.84-.06l19.23 26.05a.47.47 0 01.09.22z" fill="#231f20"/><path d="M52 229.31a34.91 34.91 0 00.32 5.16c.32 1.15 3.06 4.21 3.06 5.16s-10.71 1.4-11.54 0-.44-2.93 0-4.84a33.15 33.15 0 00.64-5.16" fill="#231f20"/><path d="M49 241c-2.59 0-5.12-.28-5.63-1.13-.91-1.55-.53-3.19-.08-5.09v-.12a34.32 34.32 0 00.62-5.05.5.5 0 011 0 34.58 34.58 0 01-.65 5.27v.13c-.41 1.76-.74 3.15 0 4.35s.24.28 1.73.47c3.06.4 7.84.05 8.84-.38a15.22 15.22 0 00-1.45-2.3 11.29 11.29 0 01-1.55-2.57 33 33 0 01-.34-5.29.5.5 0 011 0 32.32 32.32 0 00.3 5 11.94 11.94 0 001.4 2.25c1 1.47 1.68 2.4 1.68 3s-.74.8-1.06.88A27.88 27.88 0 0149 241zm83-12.74s-.6 4.93.08 6.46 10.12 5.69 9.86 6.45-16.82.34-17.42-.51-.34-1.19-.42-3.22-.51-7-.51-7" fill="#231f20"/><path d="M136.77 242.07c-1.59 0-3.31 0-4.82-.09-7.28-.28-7.64-.79-7.81-1a3 3 0 01-.5-2.1v-1.39c-.09-2-.51-6.9-.51-7a.5.5 0 011-.09c0 .05.42 5 .51 7v1.44c0 .79 0 1 .28 1.46 1.25.59 13.18 1 16.16.61-.74-.51-2.23-1.33-3.49-2-3.42-1.88-5.53-3.09-5.93-4-.72-1.61-.19-6.2-.13-6.72a.5.5 0 011 .12c-.16 1.33-.47 5 0 6.19.29.66 3.43 2.39 5.5 3.53 3.87 2.12 4.61 2.6 4.37 3.29-.12.39-.57.48-1.05.55a38.39 38.39 0 01-4.58.2zm-11.89-1.77z" fill="#231f20"/><path d="M51.93 230.7h-7.21a.52.52 0 110-1h7.21a.52.52 0 110 1z" fill="#fff"/><path d="M102.48 93.45c-2.22-.9-4.59-2-6.69-2-6.05 0-8.63 7.09-9.89 11.86-3.31 12.54-4.55 25.84-6.64 38.68 0 0 26.08 11.28 34.89 5.39l7.51-28.87 40.75 6s.89-8.25 1.37-11.31c0 0-52.93-17.15-58.85-18.85-.79-.25-1.61-.56-2.45-.9z" fill="#b71440"/><path fill="#fff" d="M111.36 101.77l-2.8 2.62 1.46 1.36-6.74 25.79 5.7 6.89 4.02-5.63-1.49-26.97 1.7-1.13-1.85-2.93zm-3.86-8.59c-6.64 1-8.61-10.44-8.72-15.35a8.58 8.58 0 01.41-3.19 7.29 7.29 0 014.53-4 45.53 45.53 0 016-1.36 27.29 27.29 0 0012.29-6.2c1.18-1 2.54-2.27 4.09-2a3.42 3.42 0 012.29 1.92 7 7 0 01-.42 6.83c-1.31 2.14-3.34 3.23-5.41 4.43 1 1.61 1.47 2 1 3.85a14.77 14.77 0 01-2.37 4.68 36.2 36.2 0 01-3.75 4.08c-2.77 2.82-5.52 5.44-9.62 6.24a1.91 1.91 0 01-.32.07z"/><path d="M106.68 93.75a5.3 5.3 0 01-3.48-1.31c-3.71-3.11-4.84-10.91-4.92-14.6a9.22 9.22 0 01.44-3.38 7.86 7.86 0 014.83-4.24 25.14 25.14 0 014.22-1c.63-.12 1.26-.23 1.89-.36a27 27 0 0012.06-6.09c1.26-1.11 2.76-2.42 4.51-2.1a3.87 3.87 0 012.6 2.11 7.53 7.53 0 01-.43 7.33 13.24 13.24 0 01-5.15 4.35.57.57 0 01.08.13 3.85 3.85 0 01.73 3.67 16 16 0 01-2.45 4.85 27.22 27.22 0 01-3 3.27l-.85.86c-3 3-5.74 5.57-9.88 6.39l-.35.06a7.09 7.09 0 01-.85.06zm.82-.57zm18.19-31.57c-1.15 0-2.26 1-3.24 1.84a28 28 0 01-12.58 6.37c-.64.14-1.28.26-1.93.37a24.37 24.37 0 00-4 1 6.78 6.78 0 00-4.23 3.66 8 8 0 00-.38 3c.09 4.11 1.38 11.18 4.56 13.85a4.29 4.29 0 003.58 1l.31-.06c3.86-.75 6.52-3.21 9.36-6.1l.87-.87a26.24 26.24 0 002.84-3.15 15 15 0 002.24-4.52c.34-1.38.1-1.76-.6-2.9l-.36-.57a.49.49 0 010-.39.44.44 0 01.23-.3l.33-.19c1.92-1.11 3.73-2.15 4.9-4.07a6.52 6.52 0 00.41-6.33 2.91 2.91 0 00-1.9-1.61 2.19 2.19 0 00-.41-.03z" fill="#231f20"/><path d="M122.63 83.64s2.45 4.89 1.72 5.76-2.72 0-2.72 0" fill="#fff"/><path d="M123.31 90.28a5.37 5.37 0 01-1.88-.43.5.5 0 01.4-.92c.66.29 1.8.53 2.14.14s-.61-2.86-1.79-5.21a.51.51 0 01.22-.67.5.5 0 01.67.23c1 1.93 2.48 5.33 1.66 6.3a1.8 1.8 0 01-1.42.56z" fill="#231f20"/><path d="M122.89 73.55c1.72 1.79.59 9 .32 11.17q-.58 4.52-1.36 9c-.34 1.9-5.28 1.35-6.09.67l-.13 7.63s-2.45.37-6.21-2-3.69-3.27-3.69-3.27l1.37-8.66s3.27.42 5.66-3.24 3-9.64 3-9.64 5.46-3.4 7.13-1.66z" fill="#fff"/><path d="M115.22 102.53a11.85 11.85 0 01-6.06-2c-3.64-2.24-4-3.36-3.93-3.74l1.38-8.7a.5.5 0 01.56-.42c.11 0 3 .31 5.17-3 2.31-3.51 3-9.37 3-9.43a.53.53 0 01.23-.37c.59-.37 5.82-3.59 7.72-1.61 1.55 1.61 1.14 6.47.53 11l-.08.57c-.38 3-.84 6-1.36 9a1.88 1.88 0 01-1.38 1.38 8.72 8.72 0 01-4.73-.07l-.12 6.88a.5.5 0 01-.42.49s-.21.02-.51.02zm-9-5.76c.07.18.57 1.08 3.44 2.86a11.2 11.2 0 005.46 1.9l.12-7.16a.5.5 0 01.3-.44.49.49 0 01.53.07 7.24 7.24 0 004.54.27c.43-.16.68-.38.72-.64.52-3 1-6 1.36-9l.08-.58c.29-2.16 1.16-8.71-.26-10.18-1-1-4.27.42-6.26 1.64-.15 1.18-.9 6.28-3.09 9.61a7 7 0 01-5.65 3.48z" fill="#231f20"/><path d="M122 91.46a3.56 3.56 0 01-3.75-2.73" fill="#fff"/><path d="M121.73 92a4.12 4.12 0 01-3.92-3.1.5.5 0 011-.3A3.07 3.07 0 00122 91a.5.5 0 01.56.44.51.51 0 01-.43.56z" fill="#231f20"/><path d="M116.62 84.88a4.12 4.12 0 00-.59-2.17 5.8 5.8 0 00-.93-1.5 2 2 0 00-1.56-.69 1.85 1.85 0 00-1.29.79 3.48 3.48 0 00-.56 1.45 6.52 6.52 0 002.31 6.09l-.14-.2" fill="#fff"/><path d="M114 89.35a.51.51 0 01-.31-.11 7.05 7.05 0 01-2.47-6.57 3.93 3.93 0 01.64-1.65 2.34 2.34 0 011.66-1 2.46 2.46 0 012 .85 6.4 6.4 0 011 1.62 4.53 4.53 0 01.64 2.44.5.5 0 01-1-.11 3.63 3.63 0 00-.55-1.89 5.78 5.78 0 00-.84-1.38 1.54 1.54 0 00-1.16-.53 1.36 1.36 0 00-.93.59 3 3 0 00-.47 1.24 6 6 0 001.79 5.31.51.51 0 01.28.2l.15.19a.5.5 0 01-.06.66.52.52 0 01-.37.14zm1.76 5.03a8.06 8.06 0 01-3.44-3s-.38 4.6 3.38 6.4z" fill="#231f20"/><path d="M115.7 98.28a.54.54 0 01-.21 0c-4-1.92-3.69-6.69-3.67-6.89a.5.5 0 01.4-.45.48.48 0 01.54.26 7.6 7.6 0 003.24 2.72.5.5 0 01.29.47l-.06 3.4a.5.5 0 01-.23.42.6.6 0 01-.3.07zM112.9 93a5.77 5.77 0 002.32 3.94V94.7a10.18 10.18 0 01-2.32-1.7z" fill="#231f20"/><ellipse cx="121.16" cy="81.35" rx="1.08" ry=".43" transform="rotate(-73.7 120.762 81.373)" fill="#231f20"/><path fill="#fff" d="M122.17 80.61l-1.98-1.22"/><path d="M122.17 81.11a.5.5 0 01-.26-.08l-2-1.22a.5.5 0 01-.16-.68.49.49 0 01.69-.17l2 1.22a.5.5 0 01.17.69.52.52 0 01-.44.24zm-1.24 41.28a.39.39 0 01-.15 0 .51.51 0 01-.33-.63c0-.07 2.34-7.46 3-10.26a.5.5 0 111 .24c-.69 2.83-2.94 10-3 10.32a.5.5 0 01-.52.33z" fill="#231f20"/><path d="M79.32 154.85a.51.51 0 01-.51-.45.52.52 0 01.44-.58 8.73 8.73 0 007.07-6.2.52.52 0 111 .27 9.79 9.79 0 01-7.93 7zm75.14-63.45s3.23-1.5 5.39-2.82a33.25 33.25 0 005.23-4.66v1.44c0 .48-.22 1.9.05 2.3s2.7-.41 3.37-.56c1.31-.3 2.62-.56 3.94-.79a5.12 5.12 0 011.51-.09 1.68 1.68 0 011.25.76 2.41 2.41 0 01-.12 2 7.18 7.18 0 01-1.48 2.48 9.34 9.34 0 01-2.87 1.75l-3.65 1.65a109.11 109.11 0 01-10.34 3.73" fill="#fff"/><path d="M156.76 99.1a.5.5 0 01-.12-1c2.54-.62 9.37-3.3 10.26-3.7l3.64-1.66a8.73 8.73 0 002.72-1.65 6.79 6.79 0 001.38-2.31 1.88 1.88 0 00.14-1.57 1.21 1.21 0 00-.88-.52 4.31 4.31 0 00-1.35.1c-1.31.22-2.63.48-3.92.78-.14 0-.37.1-.64.19-1.68.52-2.81.81-3.26.16a3.5 3.5 0 01-.16-2 3.92 3.92 0 000-.54v-.22a27.66 27.66 0 01-4.46 3.84c-2.16 1.32-5.31 2.78-5.44 2.84a.49.49 0 01-.66-.24.5.5 0 01.24-.67s3.23-1.5 5.34-2.78a32.26 32.26 0 005.12-4.58.49.49 0 01.55-.12.49.49 0 01.32.46v1.43a5.43 5.43 0 010 .64 6.62 6.62 0 000 1.33 8.63 8.63 0 002.15-.5l.72-.21c1.31-.29 2.64-.56 4-.79a5.21 5.21 0 011.66-.1 2.16 2.16 0 011.61 1 2.79 2.79 0 01-.08 2.43 7.92 7.92 0 01-1.64 2.68 9.63 9.63 0 01-3 1.85l-3.64 1.66a110.26 110.26 0 01-10.43 3.76z" fill="#231f20"/><path d="M93.07 94.25c1.06.29 55-2.78 64.14-5.4l3.69 9.75s-26 10-67.83 14.58c-13.36-2.81 0-18.93 0-18.93z" fill="#b71440"/><path d="M93.07 113.68a.49.49 0 01-.49-.42.51.51 0 01.42-.57c.45-.07 45.16-7.06 65.51-14a.51.51 0 01.64.32.49.49 0 01-.32.63c-20.43 6.92-65.23 13.92-65.68 14z" fill="#231f20"/><circle cx="206.36" cy="160.05" r="39.27" fill="#fff"/><path d="M206.36 199.82a39.77 39.77 0 1139.77-39.77 39.81 39.81 0 01-39.77 39.77zm0-78.54a38.77 38.77 0 1038.77 38.77 38.82 38.82 0 00-38.77-38.77z" fill="#d1d3d4"/><path d="M174.78 118.63a4.08 4.08 0 013.09 2.05 2.69 2.69 0 01-.83 3.41 4 4 0 01-2.33.38c-1.7-.12-6.43-.84-6.21-3.3.22-2.3 4.63-2.78 6.28-2.54z" fill="#fff"/><path d="M175.3 125h-.63c-.46 0-4.59-.36-6.1-2.14a2.23 2.23 0 01-.56-1.71 2.45 2.45 0 011-1.73c1.59-1.25 4.58-1.43 5.83-1.25a4.55 4.55 0 013.47 2.32 3.2 3.2 0 01-1 4.06 3.74 3.74 0 01-2.01.45zm-1.42-5.91a7.7 7.7 0 00-4.24 1.09 1.52 1.52 0 00-.64 1 1.27 1.27 0 00.33 1c1 1.2 4 1.69 5.41 1.79a3.52 3.52 0 002-.3 2.21 2.21 0 00.64-2.77 3.57 3.57 0 00-2.71-1.77 5.06 5.06 0 00-.79-.05z" fill="#231f20"/><path d="M262.24 94.49a9.63 9.63 0 013.21-4.43c1.3-.88 2.36-.66 3.8-.7.56 0 1 .68 1.54.61s1.37-1 1.92-1.33a10.94 10.94 0 019.7-.45 22.81 22.81 0 015.51 4.2c7.49 6.86 16.77 12.9 26.93 12.49-4.94 9.1-12.54 17-22.09 21a34.64 34.64 0 01-14.71 2.61c-4-.18-11.37-.93-13.83-4.55-2.31-3.42-3.3-9.86-3.82-13.88a29.9 29.9 0 011.84-15.57z" fill="#fff"/><path d="M279.53 129h-1.5c-5.17-.23-11.83-1.24-14.22-4.78-2.3-3.39-3.33-9.66-3.91-14.09a30.52 30.52 0 011.88-15.77 10.35 10.35 0 013.39-4.65 5.19 5.19 0 013.29-.79h.77a1.76 1.76 0 011 .39c.18.13.36.24.46.22a2.77 2.77 0 00.91-.63 4.2 4.2 0 01.85-.64 11.3 11.3 0 0110.13-.46 21.26 21.26 0 015.21 3.9l.42.38c9.45 8.66 18.12 12.71 26.58 12.37a.46.46 0 01.44.23.5.5 0 010 .5C309.92 115 302 122.53 293 126.29a35.29 35.29 0 01-13.47 2.71zM262.7 94.69a29.49 29.49 0 00-1.81 15.25c.56 4.33 1.56 10.45 3.74 13.67 1.69 2.48 6.46 4 13.44 4.33a34.13 34.13 0 0014.5-2.57c8.59-3.57 16.17-10.65 21.42-20h-.13c-8.4 0-17-4.14-26.28-12.64l-.42-.39a20.76 20.76 0 00-5-3.73 10.32 10.32 0 00-9.26.45 3.67 3.67 0 00-.65.5 3 3 0 01-1.43.87 1.65 1.65 0 01-1.15-.38c-.17-.12-.34-.28-.45-.23h-.8a4.2 4.2 0 00-2.74.61 8.88 8.88 0 00-3 4.22z" fill="#231f20"/><path d="M300.13 114c-7.91-7.06-32.27-4.6-37.54 5.62s13.72 41 13.72 41l36.63-7.14s-4.89-32.43-12.81-39.48z" fill="#b71440"/><path d="M272.83 123.19c1.57 8.93 12.23 35.74 12.23 35.74l9.83-1.91-11-38.52s-2.6-.82-11.06 4.69z" fill="#231f20"/><path d="M272.2 116.44l1 7s1.38 3.08 5.92 1.31 4.79-5.09 4.79-5.09l-2.35-13s-7.89-2.91-7.88-10.61a9.74 9.74 0 01-9.15 6.39 84.34 84.34 0 001.88 10.31c1.07 3.55 5.79 3.69 5.79 3.69z" fill="#fff"/><path d="M276.55 125.82a4.13 4.13 0 01-3.79-2.15.74.74 0 010-.14l-1-6.62c-1.25-.13-4.87-.78-5.83-4a82.22 82.22 0 01-1.89-10.4.46.46 0 01.12-.39.48.48 0 01.37-.17 9.14 9.14 0 008.67-6 .48.48 0 01.55-.34.5.5 0 01.43.49c0 7.25 7.48 10.12 7.55 10.14a.51.51 0 01.32.38l2.36 13a.48.48 0 010 .12c0 .15-.33 3.66-5.11 5.53a7.75 7.75 0 01-2.75.55zm-2.85-2.51c.2.38 1.51 2.45 5.25 1s4.41-4.17 4.47-4.61l-2.29-12.7c-1.29-.56-6.8-3.28-7.79-9.12a10 10 0 01-8.23 5 79 79 0 001.79 9.69c.94 3.18 5.28 3.34 5.32 3.34a.5.5 0 01.48.43z" fill="#231f20"/><path d="M279.3 106.58c.43-4 6.74-4 5.47.63A3.9 3.9 0 01280 110" fill="#fff"/><path d="M281 110.68a4.08 4.08 0 01-1.14-.16.51.51 0 01-.34-.62.49.49 0 01.62-.34 3.16 3.16 0 002.42-.29 3.65 3.65 0 001.71-2.19 2 2 0 00-2.76-2.75 2.67 2.67 0 00-1.74 2.3.5.5 0 01-.55.45.5.5 0 01-.44-.55 3.68 3.68 0 012.37-3.13 3.3 3.3 0 013.38.5 3.18 3.18 0 01.7 3.44 4.62 4.62 0 01-2.18 2.8 4.16 4.16 0 01-2.05.54z" fill="#231f20"/><path d="M270.75 105.48s-2.11 3.93-1.46 4.51 2.26 0 2.26 0" fill="#fff"/><path d="M270.18 110.75a1.77 1.77 0 01-1.22-.39c-.63-.56-.17-2.28 1.35-5.12a.5.5 0 01.88.47c-.93 1.74-1.63 3.59-1.51 4 .22.18 1.14 0 1.69-.17a.5.5 0 01.35.94 4.91 4.91 0 01-1.54.27z" fill="#231f20"/><ellipse cx="273.72" cy="102.79" rx=".61" ry=".86" transform="rotate(-4.49 273.55 102.695)" fill="#231f20"/><ellipse cx="268.56" cy="104.56" rx=".61" ry=".86" transform="rotate(-4.49 268.368 104.536)" fill="#231f20"/><path d="M271.24 113.6a5.36 5.36 0 01-1.33-.16.51.51 0 01-.35-.62.52.52 0 01.62-.35 4 4 0 002.94-.38 3.77 3.77 0 001.5-2.77.51.51 0 01.57-.42.5.5 0 01.42.57 4.69 4.69 0 01-1.95 3.46 4.41 4.41 0 01-2.42.67zm.96 2.84s3.64-.6 5.16-1.87c0 0-.71 4.38-4.48 6.08z" fill="#231f20"/><path d="M272.88 121.15a.51.51 0 01-.49-.42l-.68-4.21a.5.5 0 01.41-.57s3.52-.6 4.92-1.77a.5.5 0 01.81.47c0 .19-.8 4.66-4.76 6.46a.52.52 0 01-.21.04zm-.11-4.31l.49 3.06a7.89 7.89 0 003.28-4.25 16.78 16.78 0 01-3.77 1.19z" fill="#231f20"/><path d="M291.18 120.94c-7 8.16-12.3 18.3-17.13 19.43s-29.42 0-29.42 0-4.09-4.47-5.78-4.6.59 2.81 1.78 5.1c0 0-8.91-1-8.95 2.31-.09 6.38 3.54 5 8.07 5.82s40.19 4.32 44.4.94 17.05-20.32 17.41-20.79c4.13-5.35-3.36-16.38-10.38-8.21z" fill="#fff"/><path d="M272.77 151.84a301.82 301.82 0 01-33.1-2.39c-.9-.15-1.76-.22-2.59-.29-3.18-.25-5.94-.47-5.86-6a2.1 2.1 0 01.74-1.58c1.68-1.48 6-1.38 7.86-1.26l-.59-1c-1.12-1.86-1.73-3-1.31-3.63a.94.94 0 011-.39c1.7.12 5.15 3.74 6 4.6 2.29.1 24.62 1.05 29.11 0 3-.7 6.35-5.29 10.21-10.61 2.1-2.88 4.26-5.86 6.68-8.67 2.94-3.41 6.41-4 9.3-1.69s4.24 7.31 1.79 10.48l-.15.2c-3.12 4.09-13.59 17.66-17.33 20.67-1.53 1.15-6.06 1.56-11.76 1.56zm-34.84-10.65c-2 0-4.38.23-5.36 1.1a1.19 1.19 0 00-.44.9c-.06 4.65 1.85 4.81 5 5.06.81.06 1.73.14 2.68.3 4.64.8 40 4.25 44 1 3.66-2.94 14.07-16.44 17.17-20.5l.16-.21c2.13-2.77.89-7.15-1.65-9.21-1.18-1-4.32-2.73-8 1.57-2.4 2.79-4.55 5.75-6.64 8.62-4 5.46-7.4 10.18-10.74 11-4.84 1.13-28.54.06-29.54 0a.44.44 0 01-.32-.15c-1.53-1.67-4.38-4.36-5.48-4.44a.34.34 0 00-.16 0 12.41 12.41 0 001.36 2.64c.36.59.72 1.2 1 1.78a.43.43 0 010 .46.44.44 0 01-.42.2c-.55-.05-1.55-.12-2.62-.12zm53.25-20.25z" fill="#231f20"/><path d="M269 128a.75.75 0 01-.62-.33c-.8-1.14 1-6.44 1.79-8.66a.45.45 0 11.85.31c-1.16 3.21-2.18 7-1.92 7.76a7.88 7.88 0 003.24-1.66.46.46 0 11.58.72c-.29.16-2.41 1.86-3.92 1.86zm.13-.86zm17.24-5.9a.46.46 0 01-.07-.91c.65-.1 2.44-.55 3-1.44.13-.21-.16-.92-3.61-3.23a7.86 7.86 0 01-1.08-.78.46.46 0 010-.65.45.45 0 01.64 0c.09.08.53.38.92.64 2.47 1.65 4.63 3.24 3.88 4.47-.88 1.43-3.52 1.85-3.63 1.87z" fill="#231f20"/><path d="M129.94 232.11h-5.63a.52.52 0 110-1h5.63a.52.52 0 010 1zm220.37-9.2a.51.51 0 01-.44-.24c-1.65-2.61-40.38-63.95-40.95-65.09a.52.52 0 01.93-.46c.53 1 27 43 40.9 65a.51.51 0 01-.17.71.53.53 0 01-.27.08z" fill="#fff"/></g></svg>