<svg xmlns="http://www.w3.org/2000/svg" viewBox="0 0 400 300"><g data-name="#117_online_team_meeting_flatline"><path d="M81.42 250.52h237.16v5.34a5 5 0 01-5 5H86.43a5 5 0 01-5-5v-5.34h-.01z"/><path d="M314.52 255h-229a4 4 0 01-3.84-5.35l20.58-60.74a13.3 13.3 0 0112.61-9h170.3a13.3 13.3 0 0112.61 9l20.58 60.74a4 4 0 01-3.84 5.35z" fill="#fff"/><path d="M314.52 255.43h-229a4.5 4.5 0 01-4.27-6l20.57-60.74a13.78 13.78 0 0113-9.35h170.35a13.78 13.78 0 0113.05 9.35l20.57 60.74a4.5 4.5 0 01-4.27 6zm-199.69-75.14a12.85 12.85 0 00-12.18 8.71l-20.58 60.76a3.6 3.6 0 003.41 4.75h229a3.6 3.6 0 003.41-4.75L297.35 189a12.85 12.85 0 00-12.18-8.74z" fill="#231f20"/><path d="M294.51 219.3h-189a.48.48 0 01-.4-.2.53.53 0 01-.08-.44l9.07-30.54a.5.5 0 01.48-.36h170.86a.5.5 0 01.48.36l9.08 30.54a.53.53 0 01-.08.44.48.48 0 01-.41.2zm-188.35-1h187.68l-8.78-29.54H114.94zm129.15 28.44h-70.62a.53.53 0 01-.39-.18.49.49 0 01-.09-.42l4.67-21.24a.49.49 0 01.48-.39h61.28a.49.49 0 01.48.39l4.67 21.24a.49.49 0 01-.09.42.53.53 0 01-.39.18zm-70-1h69.36l-4.45-20.23h-60.45z" fill="#d1d3d4"/><rect x="105.12" y="39.13" width="189.6" height="140.71" rx="7.04" fill="#fff"/><path d="M287.68 180.29H112.15a7.5 7.5 0 01-7.49-7.49V46.17a7.5 7.5 0 017.49-7.5h175.53a7.51 7.51 0 017.5 7.5V172.8a7.51 7.51 0 01-7.5 7.49zM112.15 39.59a6.59 6.59 0 00-6.58 6.58V172.8a6.59 6.59 0 006.58 6.58h175.53a6.59 6.59 0 006.58-6.58V46.17a6.59 6.59 0 00-6.58-6.58z" fill="#231f20"/><path d="M111.91 46.74h175.6v125.29h-175.6z"/><path fill="#fff" d="M115.42 56.47h81.36v48h-81.36zm87.18 0h81.36v48H202.6zm-43.59 51.89h81.36v48h-81.36z"/><path d="M287.4 161.49H112a.5.5 0 01-.5-.5.5.5 0 01.5-.5h175.4a.5.5 0 01.5.5.5.5 0 01-.5.5z" fill="#d1d3d4"/><circle cx="120.28" cy="166.38" r="2.33" fill="#d1d3d4"/><circle cx="129.04" cy="166.38" r="2.33" fill="#d1d3d4"/><circle cx="137.81" cy="166.38" r="2.33" fill="#d1d3d4"/><circle cx="146.58" cy="166.38" r="2.33" fill="#d1d3d4"/><path d="M204.61 164.11a.91.91 0 00-.86-.08l-1.42.59a.89.89 0 00-.5.54v-1.1a.85.85 0 00-.85-.85h-5.7a.85.85 0 00-.85.85v4.26a.86.86 0 00.85.86H201a.86.86 0 00.85-.86v-1.09a.89.89 0 00.5.54l1.42.59a.84.84 0 00.35.07.92.92 0 00.51-.15.85.85 0 00.39-.72v-2.73a.85.85 0 00-.41-.72zm-3.78 4.07h-5.4v-4h5.4zm3.17-.8l-1.21-.5v-1.37L204 165z" fill="#a3a3a3"/><path d="M254.58 78.76c-.24-1.58.91-3.22 1.22-4.88.43-2.34-.83-4.45-1.84-6.45s-1.11-4.16-2.39-5.81c-2.43-3.11-7.46-5.17-11.28-3.71a10.31 10.31 0 00-6.78 10.66 9.71 9.71 0 01.23 3.26c-.48 2.28-3.32 3.94-2.78 6.21a15.24 15.24 0 001 2.15c1 2.33-.89 4.79-1.37 7.26-.42 2.17.23 4.4.93 6.5.61 1.82 1.37 3.79 3.05 4.72a7.31 7.31 0 003.47.68c5.29.08 10.87-.95 14.85-4.43s5.73-9.92 2.71-14.22a7 7 0 01-.85-1.34 2.7 2.7 0 01-.17-.6z" fill="#fff"/><path d="M238.67 99.81h-.58a7.7 7.7 0 01-3.69-.73c-1.82-1-2.64-3.1-3.26-5-.72-2.16-1.39-4.47-.95-6.73a16 16 0 01.8-2.52c.6-1.59 1.16-3.08.6-4.47a5.47 5.47 0 00-.44-.82 5.42 5.42 0 01-.64-1.4c-.35-1.52.55-2.74 1.42-3.93a7 7 0 001.36-2.49 5.87 5.87 0 00-.11-2.27c0-.28-.09-.56-.13-.83a10.81 10.81 0 017.08-11.15c4.18-1.6 9.38.76 11.8 3.86a10.76 10.76 0 011.57 3.51 16 16 0 00.87 2.37l.32.62c.92 1.81 2 3.87 1.56 6.12a12.18 12.18 0 01-.62 2 5.59 5.59 0 00-.59 2.76 2 2 0 00.13.5 4.24 4.24 0 00.59 1l.21.3c3.34 4.77 1.18 11.41-2.73 14.83-3.41 2.9-8.44 4.47-14.57 4.47zM243 57.89a7.17 7.17 0 00-2.53.44A9.87 9.87 0 00234 68.51c0 .27.08.53.12.8a6.73 6.73 0 01.11 2.61 7.77 7.77 0 01-1.53 2.84c-.81 1.11-1.52 2.08-1.26 3.18a4.08 4.08 0 00.54 1.14 7 7 0 01.49.94c.71 1.72 0 3.46-.58 5.14a14.28 14.28 0 00-.76 2.38c-.4 2 .21 4.13.91 6.27.57 1.71 1.31 3.61 2.84 4.46a7.08 7.08 0 003.26.62c6.18.1 11.2-1.39 14.54-4.31 3.63-3.17 5.53-9.4 2.58-13.62l-.2-.28a5.27 5.27 0 01-.7-1.15 3.29 3.29 0 01-.19-.7 6.53 6.53 0 01.64-3.22 10.66 10.66 0 00.58-1.82c.36-1.94-.57-3.77-1.48-5.53l-.31-.63a15.24 15.24 0 01-.93-2.51 9.82 9.82 0 00-1.43-3.22 11.13 11.13 0 00-8.24-4.01z" fill="#231f20"/><path d="M234.88 104.57c2-2.84 3.54-5.28 3.54-5.28l-5.65-14.86L218 104.57h16.93z" fill="#b71440"/><path d="M259.73 104.57c.48-7.2.62-17.21-1.77-20.85-1.48-3.36-5.41-3.36-14.39-3 0 0-9.43.87-11.66 4.71-1.38 2.39-1.68 12.1-1.7 19.09z" fill="#b71440"/><path fill="#fff" d="M248.6 104.58l.54-23.39-8.36 1.52-1.38 21.87h9.2z"/><path d="M240.81 77.61v5.51a2.86 2.86 0 003.91 2.14 6.94 6.94 0 004.45-4l-.38-9.54a16.82 16.82 0 01-.55-5.11 12.19 12.19 0 01-7.28-3.14s-1.4 2.1-2 2.77a7.77 7.77 0 00-1.29 1.76 7.15 7.15 0 00-.52 3.55 23.07 23.07 0 00.41 4.15c.54 2.55 3.25 1.91 3.25 1.91z" fill="#fff"/><path d="M243.5 85.89a3.15 3.15 0 01-1.68-.45 3.61 3.61 0 01-1.49-2.24v-5.07a3.41 3.41 0 01-2-.46 2.86 2.86 0 01-1.23-1.93 22.62 22.62 0 01-.43-4.23 7.73 7.73 0 01.57-3.78 8.68 8.68 0 011.35-1.73c.58-.63 1.95-2.69 2-2.71a.48.48 0 01.33-.21.46.46 0 01.37.13s3.13 3 7 3a.45.45 0 01.32.14.49.49 0 01.13.33 15.77 15.77 0 00.44 4.56 3.05 3.05 0 01.11.52c0 .08.38 9.54.38 9.54a.47.47 0 010 .17 7.33 7.33 0 01-4.76 4.24 4.82 4.82 0 01-1.41.18zm-2.26-2.77a2.39 2.39 0 003.33 1.7 6.57 6.57 0 004.11-3.59l-.38-9.46c0-.01 0-.18-.07-.31a16 16 0 01-.48-4.37A12.43 12.43 0 01241 64.2a28.52 28.52 0 01-1.76 2.39 8.32 8.32 0 00-1.19 1.57 6.78 6.78 0 00-.46 3.33 21.86 21.86 0 00.4 4.07 2 2 0 00.83 1.34 2.75 2.75 0 001.87.26.49.49 0 01.39.09.46.46 0 01.17.36v5.51z" fill="#231f20"/><path d="M242.76 69.69s-1.77 2.65-1.35 3.11 1.59.2 1.59.2" fill="#fff"/><path d="M242.24 73.5a1.54 1.54 0 01-1.15-.4c-.17-.18-.66-.72 1.31-3.65a.43.43 0 01.61-.12.44.44 0 01.12.61 9.39 9.39 0 00-1.34 2.6 2 2 0 001.11 0 .44.44 0 01.54.31.44.44 0 01-.32.54 3.23 3.23 0 01-.88.11zm-.45-.9z" fill="#231f20"/><ellipse cx="240.25" cy="69.22" rx=".57" ry=".3" transform="rotate(-87.75 240.246 69.227)" fill="#231f20"/><ellipse cx="244.45" cy="68.7" rx=".57" ry=".3" transform="rotate(-87.7 244.485 68.516)" fill="#231f20"/><path d="M230.21 103.66h-.05a.44.44 0 01-.39-.49c.2-1.73.75-4.33 1.29-6.85s1.08-5.09 1.27-6.78a.44.44 0 01.49-.39.45.45 0 01.39.49c-.2 1.73-.75 4.34-1.29 6.86s-1.08 5.09-1.27 6.77a.44.44 0 01-.44.39z" fill="#231f20"/><path d="M246.92 69a5.18 5.18 0 011-1.87 1.75 1.75 0 012-.47 2.16 2.16 0 01.95 2 8.91 8.91 0 01-.48 2.65 3.19 3.19 0 01-.76 1.37 1.21 1.21 0 01-1.45.21" fill="#fff"/><path d="M248.7 73.49a1.4 1.4 0 01-.8-.25.45.45 0 11.51-.75.78.78 0 00.89-.17 2.63 2.63 0 00.63-1.18 8.12 8.12 0 00.46-2.5c0-.3 0-1.31-.69-1.62a1.34 1.34 0 00-1.43.38 4.88 4.88 0 00-.92 1.71.46.46 0 01-.59.26.46.46 0 01-.27-.59 5.58 5.58 0 011.13-2 2.23 2.23 0 012.48-.56 2.51 2.51 0 011.2 2.45 9.05 9.05 0 01-.5 2.78 3.57 3.57 0 01-.88 1.57 1.87 1.87 0 01-1.22.47z" fill="#231f20"/><path d="M267.53 104.57c-1-5.19-2.77-13.17-3.91-15.45-1.74-3.48-7-7.15-7-7.15l-.68 22.6z" fill="#b71440"/><path d="M255.34 103.66a.44.44 0 01-.44-.41l-1.06-13.63a.44.44 0 01.41-.48.43.43 0 01.47.41l1.06 13.63a.45.45 0 01-.41.48z" fill="#231f20"/><path d="M239.9 74.48s3 1.94 5.21-.56" fill="#fff"/><path d="M242.35 75.64a5.2 5.2 0 01-2.69-.79.45.45 0 01-.13-.61.43.43 0 01.61-.13c.11.06 2.72 1.7 4.64-.49a.44.44 0 01.63 0 .43.43 0 010 .62 4 4 0 01-3.06 1.4z" fill="#231f20"/><path d="M218 62.47h-7.74a.5.5 0 01-.5-.5.5.5 0 01.5-.5H218a.5.5 0 01.5.5.5.5 0 01-.5.5zm-90.87 0h-7.74a.5.5 0 01-.5-.5.5.5 0 01.5-.5h7.74a.5.5 0 01.5.5.5.5 0 01-.5.5zm46.38 52.73h-7.74a.5.5 0 01-.5-.5.5.5 0 01.5-.5h7.74a.5.5 0 01.5.5.5.5 0 01-.5.5z" fill="#d1d3d4"/><path d="M150.76 73.64a40.59 40.59 0 01-1.07-5.31 8 8 0 011.11-5.2 3.28 3.28 0 011.65-1.34 1.8 1.8 0 012 .57 4.65 4.65 0 012-1.52 10.92 10.92 0 015.8-1.11 7.87 7.87 0 015.2 2.66 22.18 22.18 0 001.55 1.93 4.32 4.32 0 003.88 1.08 9.93 9.93 0 01-4.28 6.6 19.19 19.19 0 01-7.39 3 12.11 12.11 0 01-4.19.3 5.27 5.27 0 01-3.6-2" fill="#fff"/><path d="M158.15 75.81a8.06 8.06 0 01-1.2-.08 5.81 5.81 0 01-3.95-2.19.51.51 0 11.83-.6 4.79 4.79 0 003.26 1.77 11.78 11.78 0 004-.3 18.23 18.23 0 007.19-2.88 9.56 9.56 0 003.9-5.53 4.75 4.75 0 01-3.61-1.31 9.15 9.15 0 01-1-1.24c-.18-.25-.35-.5-.55-.73a7.29 7.29 0 00-4.86-2.47 10.26 10.26 0 00-5.53 1.06 4.33 4.33 0 00-1.77 1.34.53.53 0 01-.42.23.59.59 0 01-.43-.22 1.27 1.27 0 00-1.38-.37 2.82 2.82 0 00-1.38 1.14 7.52 7.52 0 00-1 4.86 26.78 26.78 0 00.73 3.84c.12.46.23.93.33 1.4a.51.51 0 11-1 .22c-.1-.46-.22-.92-.33-1.38a27.57 27.57 0 01-.76-4 8.6 8.6 0 011.2-5.54 3.73 3.73 0 011.93-1.54 2.38 2.38 0 012.06.3 5.8 5.8 0 011.8-1.22 11.29 11.29 0 016.08-1.16 8.39 8.39 0 015.54 2.83c.21.26.41.52.6.79a7.77 7.77 0 00.9 1.11 3.86 3.86 0 003.42.94.52.52 0 01.46.12.51.51 0 01.16.45 10.41 10.41 0 01-4.42 6.91 19.39 19.39 0 01-7.58 3 15.62 15.62 0 01-3.22.45zm15.38 28.76c-2-9.25-6.9-20.06-7.78-20.46-2.13-1-13.38-2.07-15.92 2.26-.8 1.36-.33 10.34.69 18.2z" fill="#231f20"/><path d="M154.52 104.57l-2.23-19.77L164 86.37l2.63 18.2h16.12C180 95.14 173 86.4 171.67 85c-5-5.42-18.49-5-18.49-5s-11.39 2.59-14.31 8c-.73 1.36-1.48 10.8-1.57 16.64z" fill="#b71440"/><path d="M163.51 81.65l.53 4.72s-1.91 5.71-6.07 4.74-5.68-6.31-5.68-6.31l-.06-10s3.06-1.67 2.1-8.34a20.57 20.57 0 0010.8 1.4s2 7.23 1.48 10.45a3.51 3.51 0 01-3.1 3.34z" fill="#fff"/><path d="M158.88 91.74a4.73 4.73 0 01-1-.12c-4.41-1-6-6.44-6.06-6.67a.78.78 0 010-.14l-.06-10a.54.54 0 01.27-.46s2.73-1.64 1.84-7.82A.52.52 0 01154 66a.53.53 0 01.53-.05 20.12 20.12 0 0010.51 1.36.49.49 0 01.56.37c.09.3 2 7.38 1.5 10.66a4.17 4.17 0 01-3 3.71l.47 4.22a.46.46 0 010 .23c-.69 1.95-2.63 5.24-5.69 5.24zm-6.08-7c.19.58 1.71 5 5.28 5.88 3.36.78 5.16-3.57 5.43-4.3l-.51-4.6a.51.51 0 01.49-.57 3 3 0 002.61-2.9c.38-2.64-1-8.22-1.36-9.81a21.42 21.42 0 01-9.74-1.17c.51 5.19-1.46 7.23-2.2 7.8z" fill="#231f20"/><path d="M160.62 71.88s2 3.63 1.37 4.17-2.08 0-2.08 0" fill="#fff"/><path d="M161.16 76.8a4.36 4.36 0 01-1.42-.27.5.5 0 11.34-.94c.5.18 1.33.31 1.58.09a14 14 0 00-1.48-3.56.5.5 0 11.87-.48c1.44 2.64 1.87 4.24 1.28 4.78a1.69 1.69 0 01-1.17.38z" fill="#231f20"/><path d="M160.56 79.22h-.26a4.53 4.53 0 01-3.15-1.7.5.5 0 01.76-.65 3.52 3.52 0 002.44 1.35 4.68 4.68 0 003.07-1.15.5.5 0 01.67.75 5.87 5.87 0 01-3.53 1.4z" fill="#231f20"/><ellipse cx="158.07" cy="71.26" rx=".93" ry=".41" transform="rotate(-86.22 158.069 71.263)" fill="#231f20"/><ellipse cx="163.62" cy="71.26" rx=".93" ry=".41" transform="rotate(-86.22 163.623 71.261)" fill="#231f20"/><path d="M154.9 73.09a5.74 5.74 0 00-1.43-1.63 2 2 0 00-1.07-.46 1.76 1.76 0 00-.91.27 3.39 3.39 0 00-1.6 2.25 2.6 2.6 0 00.05 1.3 3 3 0 001.29 1.56 8.94 8.94 0 001.9.82" fill="#fff"/><path d="M153.12 77.7a.45.45 0 01-.16 0 8.79 8.79 0 01-2-.87 3.5 3.5 0 01-1.52-1.83 3.22 3.22 0 01-.06-1.55 3.86 3.86 0 011.85-2.59 2 2 0 011.19-.34 2.47 2.47 0 011.36.57 6 6 0 011.56 1.77.52.52 0 01-.18.71.53.53 0 01-.71-.18 5.12 5.12 0 00-1.3-1.48 1.41 1.41 0 00-.77-.36 1.18 1.18 0 00-.63.2 2.86 2.86 0 00-1.36 1.9 2.17 2.17 0 000 1 2.48 2.48 0 001.08 1.27 8.33 8.33 0 001.78.77.51.51 0 01-.17 1zM176 104a.52.52 0 01-.5-.36c-.36-1.2-1.21-3.49-2-5.71s-1.69-4.55-2.06-5.78a.52.52 0 011-.3c.36 1.2 1.22 3.5 2 5.72s1.69 4.54 2.06 5.76a.52.52 0 01-.34.65zm-28.95 0a.51.51 0 01-.52-.51v-13a.52.52 0 011 0v13a.51.51 0 01-.48.51z" fill="#231f20"/><path d="M133.91 95s-1.46-5.73-1.46-6.34a53.15 53.15 0 000-6.06c-.23-1-1.69-1.08-2.07 1.38 0 0-.84-5.45-1.61-5.6s-2.91 1.14-3.45 2.22 2.76 15.8 2.76 15.8" fill="#fff"/><path d="M128.08 96.9a.51.51 0 01-.5-.41c-1-4.48-3.28-15-2.72-16.14s3-2.71 4-2.5c.27.06.94.19 1.7 4.18a1.55 1.55 0 011.12-.62 1.24 1.24 0 011.27 1 35 35 0 010 5.3v.88c0 .41.85 3.88 1.44 6.21a.52.52 0 01-1 .25c-.35-1.36-1.47-5.83-1.47-6.46v-.91a39.83 39.83 0 000-5c0-.11-.08-.23-.22-.25s-.66.45-.84 1.6a.51.51 0 01-.51.43.52.52 0 01-.51-.43 20.58 20.58 0 00-1.28-5.18 5 5 0 00-2.81 2c-.23.85 1.27 8.61 2.8 15.46a.51.51 0 01-.39.62z" fill="#231f20"/><path fill="#b71440" d="M138.53 104.58l-4.26-11.25-7.52 1.64.75 9.61h11.03z"/><path d="M130.38 84s-1.9 1.72-.79 3.4" fill="#fff"/><path d="M129.59 87.88a.53.53 0 01-.44-.23c-1.06-1.62.11-3.37.88-4.07a.51.51 0 01.73 0 .52.52 0 010 .73c-.06.06-1.56 1.45-.71 2.74a.53.53 0 01-.15.72.6.6 0 01-.31.11z" fill="#231f20"/><path d="M225 139.47s5.16-7.68 5.07-5.89a9 9 0 01-.86 3.28s5.93-2.63 6.3-1.41-4.13 4.36-4.5 4.86-1.8 2.84-1.8 2.84" fill="#fff"/><path d="M229.23 143.61a.48.48 0 01-.23-.07.46.46 0 01-.16-.63c.06-.1 1.45-2.37 1.83-2.88a9 9 0 011.05-.91c2.95-2.42 3.47-3.25 3.39-3.53-.39-.25-3.06.52-5.69 1.69a.45.45 0 01-.52-.11.45.45 0 01-.07-.52 9.19 9.19 0 00.76-2.5 53.07 53.07 0 00-4.18 5.58.46.46 0 01-.76-.51c4.49-6.68 5.17-6.45 5.5-6.34a.64.64 0 01.41.72 8.89 8.89 0 01-.49 2.41c1.68-.69 4.44-1.67 5.44-1.21a.82.82 0 01.47.52c.34 1.11-1.47 2.69-3.69 4.5-.38.32-.81.67-.89.77-.29.38-1.38 2.15-1.78 2.8a.44.44 0 01-.39.22z" fill="#231f20"/><path d="M224.85 137.79s-8.09 10.91-9.1 10.77-10.82-14.36-10.82-14.36v.28c-1.52-2-4.41-2.83-10.68-2 0 0-12.29.29-15 4.71-1.55 2.55-7 11.65-9.59 19.38h53.47a128.37 128.37 0 007.39-13.35z" fill="#b71440"/><path d="M187 114c2.84-5.72 10.86-5.87 15.36-1.91s4.76 11.45 4.75 16.93a22.25 22.25 0 01-23.43.39c.51-2.91 2.4-13.52 3.32-15.41z" fill="#fff"/><path d="M195.07 133a22.18 22.18 0 01-11.62-3.18.46.46 0 01-.21-.47c.24-1.37 2.32-13.44 3.36-15.53a8.71 8.71 0 016.3-4.68 11.65 11.65 0 019.77 2.63c4.34 3.81 4.92 10.87 4.91 17.27a.47.47 0 01-.21.38 22.35 22.35 0 01-12.3 3.58zm-10.88-3.8a21.93 21.93 0 0022.47-.41c0-6.13-.58-12.81-4.59-16.34a10.73 10.73 0 00-9-2.41 7.81 7.81 0 00-5.66 4.18c-.77 1.56-2.36 10-3.22 14.97z" fill="#231f20"/><path d="M188.27 133s-1 5.28-.72 7.18c.33 2.59.19 6.71 5.84 6.52 4.44-.16 9.31-13.77 9.31-13.77s-8.11-1.42-14.43.07z" fill="#231f20"/><path d="M193 147.09c-5.17 0-5.56-3.69-5.82-6.15l-.09-.75c-.25-1.95.68-7.1.72-7.32a.45.45 0 01.34-.35c6.33-1.44 14.27-.13 14.61-.08a.45.45 0 01.3.22.43.43 0 010 .37c-.51 1.42-5.11 13.9-9.72 14.06zm-4.37-13.77a34.78 34.78 0 00-.67 6.76c0 .24.06.5.09.76.28 2.59.6 5.52 5.3 5.37 3.25-.12 7.23-9 8.73-13-1.83-.21-8.23-.99-13.43.11z" fill="#231f20"/><path d="M189.23 122.71a3.28 3.28 0 00-.67-1.23 1.14 1.14 0 00-1.28-.31 1.07 1.07 0 00-.54.87 2.37 2.37 0 00.17 1 4.17 4.17 0 001 1.67 2.38 2.38 0 001.79.7" fill="#fff"/><path d="M189.58 125.87a2.84 2.84 0 01-1.92-.82 4.42 4.42 0 01-1.12-1.83 2.84 2.84 0 01-.2-1.22 1.51 1.51 0 01.76-1.18 1.53 1.53 0 011.75.38 3.78 3.78 0 01.75 1.37.4.4 0 01-.23.51.4.4 0 01-.51-.23 3.16 3.16 0 00-.58-1.09.76.76 0 00-.82-.23.7.7 0 00-.33.55 2.09 2.09 0 00.16.88 3.72 3.72 0 00.91 1.51 2.06 2.06 0 001.49.6.39.39 0 01.43.37.41.41 0 01-.37.42z" fill="#231f20"/><path d="M191.72 129l-.56 5.59a2.92 2.92 0 003.77 2.55 7 7 0 004.89-3.59l.53-9.72c0-.41-1.49-2.12-1.09-5.67a8.69 8.69 0 01-6.08-3.46s-1.62 2-2.3 2.62a8.19 8.19 0 00-1.44 1.56c-1.07 1.64-1 4.3-.78 6.16.22 1.55 1.12 3.96 3.06 3.96z" fill="#fff"/><path d="M194.05 137.68A3.28 3.28 0 01192 137a3.73 3.73 0 01-1.3-2.41l.52-5.21c-1.93-.34-2.8-2.81-3-4.32-.18-1.28-.46-4.48.85-6.47a8.88 8.88 0 011.51-1.65c.65-.59 2.24-2.55 2.26-2.57a.52.52 0 01.38-.17.49.49 0 01.36.21 8.23 8.23 0 005.74 3.25.53.53 0 01.31.17.47.47 0 01.1.34 8.21 8.21 0 00.83 4.88 1.48 1.48 0 01.25.76c0 .1-.52 9.73-.52 9.73a.47.47 0 010 .17 7.52 7.52 0 01-5.23 3.84 5.54 5.54 0 01-1.01.13zm-2.44-3.05a2.9 2.9 0 00.95 1.69 2.85 2.85 0 002.28.37 6.64 6.64 0 004.53-3.26c.52-9.64.52-9.64.52-9.66s-.09-.14-.16-.29a9 9 0 01-1-4.93 9.13 9.13 0 01-5.6-3.12c-.53.64-1.48 1.77-2 2.23a7.72 7.72 0 00-1.37 1.48c-1.13 1.72-.87 4.65-.7 5.83.18 1.33.93 3.57 2.55 3.57h.05a.45.45 0 01.33.15.42.42 0 01.12.35l-.56 5.59z" fill="#231f20"/><path d="M194.75 119.54s-2.05 2.52-1.66 3 1.61.31 1.61.31" fill="#fff"/><path d="M194.17 123.36a1.81 1.81 0 01-1.44-.53c-.14-.19-.59-.78 1.68-3.57a.44.44 0 01.62-.07.46.46 0 01.07.63 9.69 9.69 0 00-1.62 2.52 2.14 2.14 0 001.15.1.43.43 0 01.5.36.44.44 0 01-.36.51 3.3 3.3 0 01-.6.05zm-.69-1z" fill="#231f20"/><ellipse cx="192.4" cy="120.09" rx=".58" ry=".31" transform="rotate(-82.38 192.408 120.085)" fill="#231f20"/><ellipse cx="197.22" cy="120.48" rx=".58" ry=".31" transform="rotate(-89.33 197.23 120.482)" fill="#231f20"/><path d="M199.16 121.69a3.71 3.71 0 01.63-1.33 1.77 1.77 0 011.45-.74 1.16 1.16 0 01.88.47 1.62 1.62 0 01.23.67 3.49 3.49 0 01-1.4 3.51 1.26 1.26 0 01-1.32 0" fill="#fff"/><path d="M200.22 124.87a1.33 1.33 0 01-.83-.27.4.4 0 11.48-.63.89.89 0 00.89 0 3.14 3.14 0 001.2-3.1 1.15 1.15 0 00-.17-.5.72.72 0 00-.57-.3 1.38 1.38 0 00-1.12.58 3.7 3.7 0 00-.56 1.2.41.41 0 01-.5.27.39.39 0 01-.26-.5 4.37 4.37 0 01.69-1.46 2.2 2.2 0 011.79-.89 1.53 1.53 0 011.19.65 1.88 1.88 0 01.29.83 3.89 3.89 0 01-1.6 3.92 2 2 0 01-.92.2zm-8.55.13l5.39.15s-.72 2.87-3 2.73-2.39-2.88-2.39-2.88zm-10.51 30.29a.52.52 0 01-.5-.51c0-.41 1.78-9.94 2.54-14a.52.52 0 01.61-.41.51.51 0 01.41.6c-1 5.3-2.49 13.36-2.53 13.85a.52.52 0 01-.53.47zm22.53.89a.52.52 0 01-.52-.52v-15.35a.52.52 0 111 0v15.35a.51.51 0 01-.48.52z" fill="#231f20"/></g></svg>